SplineFontDB: 3.0
FontName: Holtwood
FullName: Holtwood
FamilyName: Holtwood
Weight: Book
Copyright: Copyright (c) 2011 by vernon adams. All rights reserved.
Version: 1.000
ItalicAngle: 0
UnderlinePosition: -103
UnderlineWidth: 102
Ascent: 1638
Descent: 410
sfntRevision: 0x00010000
LayerCount: 2
Layer: 0 1 "Back"  1
Layer: 1 1 "Fore"  0
NeedsXUIDChange: 1
XUID: [1021 759 1887733602 16329197]
FSType: 4
OS2Version: 3
OS2_WeightWidthSlopeOnly: 0
OS2_UseTypoMetrics: 1
CreationTime: 1301950740
ModificationTime: 1302000122
PfmFamily: 17
TTFWeight: 400
TTFWidth: 5
LineGap: 0
VLineGap: 0
Panose: 2 0 0 0 0 0 0 0 0 0
OS2TypoAscent: 797
OS2TypoAOffset: 1
OS2TypoDescent: -466
OS2TypoDOffset: 1
OS2TypoLinegap: 0
OS2WinAscent: 0
OS2WinAOffset: 1
OS2WinDescent: -350
OS2WinDOffset: 1
HheadAscent: 0
HheadAOffset: 1
HheadDescent: 350
HheadDOffset: 1
OS2SubXSize: 1434
OS2SubYSize: 1331
OS2SubXOff: 0
OS2SubYOff: 287
OS2SupXSize: 1434
OS2SupYSize: 1331
OS2SupXOff: 0
OS2SupYOff: 977
OS2StrikeYSize: 102
OS2StrikeYPos: 512
OS2Vendor: 'newt'
OS2CodePages: 00000013.00000000
OS2UnicodeRanges: 8000006f.5000004b.00000000.00000000
Lookup: 258 0 0 "'kern' Horizontal Kerning in Latin lookup 0"  {"'kern' Horizontal Kerning in Latin lookup 0 subtable"  } ['kern' ('latn' <'dflt' > ) ]
MarkAttachClasses: 1
DEI: 91125
TtTable: prep
PUSHW_1
 511
SCANCTRL
PUSHB_1
 1
SCANTYPE
SVTCA[y-axis]
MPPEM
PUSHB_1
 8
LT
IF
PUSHB_2
 1
 1
INSTCTRL
EIF
PUSHB_2
 70
 6
CALL
IF
POP
PUSHB_1
 16
EIF
MPPEM
PUSHB_1
 20
GT
IF
POP
PUSHB_1
 128
EIF
SCVTCI
PUSHB_1
 6
CALL
NOT
IF
SVTCA[y-axis]
PUSHB_1
 4
DUP
RCVT
PUSHB_1
 3
CALL
WCVTP
PUSHB_1
 5
DUP
RCVT
PUSHB_3
 4
 11
 2
CALL
PUSHB_1
 3
CALL
WCVTP
SVTCA[x-axis]
PUSHB_1
 6
DUP
RCVT
PUSHB_1
 3
CALL
WCVTP
PUSHB_1
 8
DUP
RCVT
PUSHB_3
 6
 34
 2
CALL
PUSHB_2
 3
 70
SROUND
CALL
WCVTP
PUSHB_1
 7
DUP
RCVT
PUSHB_3
 8
 8
 2
CALL
PUSHB_2
 3
 70
SROUND
CALL
WCVTP
PUSHB_1
 9
DUP
RCVT
PUSHW_3
 6
 32767
 2
CALL
PUSHB_2
 3
 70
SROUND
CALL
WCVTP
EIF
PUSHB_1
 20
CALL
EndTTInstrs
TtTable: fpgm

StartChar: R
Encoding: 82 82 1
Width: 1841
Flags: W
HStem: 0 21G<94 862 1109.5 1757> 1196 340<862 1067.92>
LayerCount: 2
Fore
SplineSet
1757 251 m 1,0,1
 1757 0 l 1,2,-1
 1121 0 l 1,3,4
 1098 45 1098 45 1075.5 90 c 128,-1,5
 1053 135 1053 135 1031 182 c 0,6,7
 1013 222 1013 222 994 267 c 128,-1,8
 975 312 975 312 957 359 c 128,-1,9
 939 406 939 406 923.5 454 c 128,-1,10
 908 502 908 502 897 549 c 1,11,-1
 862 549 l 1,12,-1
 862 0 l 1,13,-1
 94 0 l 1,14,-1
 94 434 l 1,15,-1
 222 459 l 1,16,-1
 222 1077 l 1,17,-1
 94 1102 l 1,18,-1
 94 1536 l 1,19,-1
 965 1536 l 2,20,21
 1138 1536 1138 1536 1264 1520 c 128,-1,22
 1390 1504 1390 1504 1478 1474.5 c 128,-1,23
 1566 1445 1566 1445 1620.5 1402.5 c 128,-1,24
 1675 1360 1675 1360 1705.5 1306.5 c 128,-1,25
 1736 1253 1736 1253 1746.5 1189.5 c 128,-1,26
 1757 1126 1757 1126 1757 1055 c 0,27,28
 1757 983 1757 983 1743.5 924.5 c 128,-1,29
 1730 866 1730 866 1696 817 c 128,-1,30
 1662 768 1662 768 1603 727.5 c 128,-1,31
 1544 687 1544 687 1453 651 c 1,32,33
 1472 611 1472 611 1510 557.5 c 128,-1,34
 1548 504 1548 504 1592 448.5 c 128,-1,35
 1636 393 1636 393 1680.5 340.5 c 128,-1,36
 1725 288 1725 288 1757 251 c 1,0,1
862 1196 m 1,37,-1
 862 844 l 1,38,39
 920 844 920 844 967.5 849 c 128,-1,40
 1015 854 1015 854 1048.5 872 c 128,-1,41
 1082 890 1082 890 1100 925 c 128,-1,42
 1118 960 1118 960 1118 1019 c 0,43,44
 1118 1077 1118 1077 1100 1111.5 c 128,-1,45
 1082 1146 1082 1146 1048.5 1165 c 128,-1,46
 1015 1184 1015 1184 967.5 1190 c 128,-1,47
 920 1196 920 1196 862 1196 c 1,37,-1
EndSplineSet
Validated: 19457
EndChar

StartChar: I
Encoding: 73 73 2
Width: 1084
Flags: W
HStem: 0 21G<94 990> 1516 20G<94 990>
VStem: 94 896<0 434 1102 1536> 222 640<459 1077>
LayerCount: 2
Fore
SplineSet
94 1102 m 1,0,-1
 94 1536 l 1,1,-1
 990 1536 l 1,2,-1
 990 1102 l 1,3,-1
 862 1077 l 1,4,-1
 862 459 l 1,5,-1
 990 434 l 1,6,-1
 990 0 l 1,7,-1
 94 0 l 1,8,-1
 94 434 l 1,9,-1
 222 459 l 1,10,-1
 222 1077 l 1,11,-1
 94 1102 l 1,0,-1
EndSplineSet
Validated: 19457
EndChar

StartChar: S
Encoding: 83 83 3
Width: 1488
Flags: W
HStem: -39 393<491.345 748.022> 24 470<130.943 428.531> 1043 470<1042.54 1338.81> 1183 393<735.266 981.71>
LayerCount: 2
Fore
SplineSet
1412 482 m 0,0,1
 1412 378 1412 378 1384 299 c 128,-1,2
 1356 220 1356 220 1307.5 162 c 128,-1,3
 1259 104 1259 104 1192.5 65.5 c 128,-1,4
 1126 27 1126 27 1049.5 3.5 c 128,-1,5
 973 -20 973 -20 889.5 -29.5 c 128,-1,6
 806 -39 806 -39 723 -39 c 0,7,8
 573 -39 573 -39 457 -19.5 c 128,-1,9
 341 0 341 0 259 24 c 0,10,11
 163 51 163 51 91 87 c 1,12,-1
 91 494 l 1,13,-1
 392 494 l 1,14,15
 444 422 444 422 509.5 388 c 128,-1,16
 575 354 575 354 644 354 c 0,17,18
 662 354 662 354 684 357 c 128,-1,19
 706 360 706 360 725.5 374 c 128,-1,20
 745 388 745 388 758.5 418 c 128,-1,21
 772 448 772 448 772 502 c 1,22,23
 686 510 686 510 601.5 525 c 128,-1,24
 517 540 517 540 440 566 c 128,-1,25
 363 592 363 592 296.5 631.5 c 128,-1,26
 230 671 230 671 181.5 727 c 128,-1,27
 133 783 133 783 105.5 858.5 c 128,-1,28
 78 934 78 934 78 1033 c 0,29,30
 78 1145 78 1145 105.5 1229 c 128,-1,31
 133 1313 133 1313 181 1373 c 128,-1,32
 229 1433 229 1433 294.5 1472.5 c 128,-1,33
 360 1512 360 1512 435.5 1535 c 128,-1,34
 511 1558 511 1558 593 1567 c 128,-1,35
 675 1576 675 1576 757 1576 c 0,36,37
 904 1576 904 1576 1018 1556 c 128,-1,38
 1132 1536 1132 1536 1213 1513 c 1,39,40
 1306 1485 1306 1485 1379 1450 c 1,41,-1
 1379 1043 l 1,42,-1
 1078 1043 l 1,43,44
 1027 1115 1027 1115 964.5 1149 c 128,-1,45
 902 1183 902 1183 836 1183 c 0,46,47
 818 1183 818 1183 795 1178.5 c 128,-1,48
 772 1174 772 1174 752 1157.5 c 128,-1,49
 732 1141 732 1141 718 1109.5 c 128,-1,50
 704 1078 704 1078 704 1024 c 1,51,52
 879 1018 879 1018 1012 986 c 128,-1,53
 1145 954 1145 954 1233.5 889.5 c 128,-1,54
 1322 825 1322 825 1367 724.5 c 128,-1,55
 1412 624 1412 624 1412 482 c 0,0,1
EndSplineSet
Validated: 19457
EndChar

StartChar: E
Encoding: 69 69 4
Width: 1525
Flags: W
HStem: 0 384<862 1111.43> 1152 384<862 1112.07>
LayerCount: 2
Fore
SplineSet
862 655 m 1,0,-1
 862 384 l 1,1,2
 930 384 930 384 990 395.5 c 128,-1,3
 1050 407 1050 407 1100.5 425 c 128,-1,4
 1151 443 1151 443 1192 466 c 128,-1,5
 1233 489 1233 489 1264 512 c 1,6,-1
 1431 512 l 1,7,-1
 1431 0 l 1,8,-1
 94 0 l 1,9,-1
 94 434 l 1,10,-1
 222 459 l 1,11,-1
 222 1075 l 1,12,-1
 94 1100 l 1,13,-1
 94 1536 l 1,14,-1
 1431 1536 l 1,15,-1
 1431 1024 l 1,16,-1
 1270 1024 l 1,17,18
 1238 1046 1238 1046 1196 1069 c 128,-1,19
 1154 1092 1154 1092 1102.5 1110.5 c 128,-1,20
 1051 1129 1051 1129 990.5 1140.5 c 128,-1,21
 930 1152 930 1152 862 1152 c 1,22,-1
 862 879 l 1,23,-1
 1162 944 l 1,24,-1
 1162 590 l 1,25,-1
 862 655 l 1,0,-1
EndSplineSet
Validated: 19457
EndChar

StartChar: D
Encoding: 68 68 5
Width: 1956
Flags: W
HStem: 0 459<862 1164.26> 1114 422<862 1165.51>
VStem: 222 640<459 1114> 1245 641<536.664 1035.89>
LayerCount: 2
Fore
SplineSet
94 1536 m 1,0,-1
 1259 1536 l 1,1,2
 1404 1505 1404 1505 1520 1446.5 c 128,-1,3
 1636 1388 1636 1388 1717.5 1297 c 128,-1,4
 1799 1206 1799 1206 1842.5 1079.5 c 128,-1,5
 1886 953 1886 953 1886 786 c 0,6,7
 1886 565 1886 565 1812 414.5 c 128,-1,8
 1738 264 1738 264 1603.5 172 c 128,-1,9
 1469 80 1469 80 1280 40 c 128,-1,10
 1091 0 1091 0 862 0 c 2,11,-1
 94 0 l 1,12,-1
 94 434 l 1,13,-1
 222 459 l 1,14,-1
 222 1114 l 1,15,-1
 94 1139 l 1,16,-1
 94 1536 l 1,0,-1
862 459 m 1,17,-1
 960 459 l 2,18,19
 1067 459 1067 459 1125 482.5 c 128,-1,20
 1183 506 1183 506 1209.5 549 c 128,-1,21
 1236 592 1236 592 1240.5 652 c 128,-1,22
 1245 712 1245 712 1245 786 c 256,23,24
 1245 860 1245 860 1240.5 920.5 c 128,-1,25
 1236 981 1236 981 1209.5 1024 c 128,-1,26
 1183 1067 1183 1067 1125 1090.5 c 128,-1,27
 1067 1114 1067 1114 960 1114 c 2,28,-1
 862 1114 l 1,29,-1
 862 459 l 1,17,-1
EndSplineSet
Validated: 19457
EndChar

StartChar: B
Encoding: 66 66 6
Width: 1875
Flags: W
HStem: 0 393<862 1130.11> 680 213<862 1130.11> 1180 356<862 1134.03>
VStem: 222 640<459 680 893 1114> 1161 640<424.992 623.677> 1161 538<951.793 1250.5>
LayerCount: 2
Fore
SplineSet
94 1536 m 1,0,-1
 1386 1536 l 1,1,2
 1544 1498 1544 1498 1621.5 1411 c 128,-1,3
 1699 1324 1699 1324 1699 1177 c 0,4,5
 1699 1079 1699 1079 1678 1012.5 c 128,-1,6
 1657 946 1657 946 1625 902.5 c 128,-1,7
 1593 859 1593 859 1555.5 835.5 c 128,-1,8
 1518 812 1518 812 1486 801 c 128,-1,9
 1454 790 1454 790 1431.5 788 c 128,-1,10
 1409 786 1409 786 1408 786 c 1,11,12
 1517 782 1517 782 1604 745 c 0,13,14
 1641 730 1641 730 1676 706 c 128,-1,15
 1711 682 1711 682 1739 647.5 c 128,-1,16
 1767 613 1767 613 1784 566 c 128,-1,17
 1801 519 1801 519 1801 459 c 0,18,19
 1801 361 1801 361 1776.5 277 c 128,-1,20
 1752 193 1752 193 1690.5 131.5 c 128,-1,21
 1629 70 1629 70 1523 35 c 128,-1,22
 1417 0 1417 0 1255 0 c 2,23,-1
 94 0 l 1,24,-1
 94 434 l 1,25,-1
 222 459 l 1,26,-1
 222 1114 l 1,27,-1
 94 1139 l 1,28,-1
 94 1536 l 1,0,-1
1161 1044 m 0,29,30
 1161 1095 1161 1095 1143.5 1122.5 c 128,-1,31
 1126 1150 1126 1150 1097 1163 c 128,-1,32
 1068 1176 1068 1176 1031 1178 c 128,-1,33
 994 1180 994 1180 956 1180 c 2,34,-1
 862 1180 l 1,35,-1
 862 893 l 1,36,-1
 956 893 l 2,37,38
 994 893 994 893 1031 895.5 c 128,-1,39
 1068 898 1068 898 1097 912 c 128,-1,40
 1126 926 1126 926 1143.5 956.5 c 128,-1,41
 1161 987 1161 987 1161 1044 c 0,29,30
1161 545 m 0,42,43
 1161 596 1161 596 1143.5 623 c 128,-1,44
 1126 650 1126 650 1097 663 c 128,-1,45
 1068 676 1068 676 1031 678 c 128,-1,46
 994 680 994 680 956 680 c 2,47,-1
 862 680 l 1,48,-1
 862 393 l 1,49,-1
 956 393 l 2,50,51
 994 393 994 393 1031 395.5 c 128,-1,52
 1068 398 1068 398 1097 412 c 128,-1,53
 1126 426 1126 426 1143.5 457 c 128,-1,54
 1161 488 1161 488 1161 545 c 0,42,43
EndSplineSet
Validated: 19457
EndChar

StartChar: period
Encoding: 46 46 7
Width: 827
Flags: W
HStem: 0 512<94 734>
VStem: 94 640<0 512>
LayerCount: 2
Fore
SplineSet
94 0 m 1,0,-1
 94 512 l 1,1,-1
 734 512 l 1,2,-1
 734 0 l 1,3,-1
 94 0 l 1,0,-1
EndSplineSet
Validated: 19457
EndChar

StartChar: F
Encoding: 70 70 8
Width: 1387
Flags: W
HStem: 0 21G<94 990> 1516 20G<94 1331>
LayerCount: 2
Fore
SplineSet
862 1152 m 1,0,1
 862 879 l 1,2,-1
 1134 944 l 1,3,-1
 1134 590 l 1,4,-1
 862 655 l 1,5,-1
 862 459 l 1,6,-1
 990 430 l 1,7,-1
 990 0 l 1,8,-1
 94 0 l 1,9,-1
 94 434 l 1,10,-1
 222 459 l 1,11,-1
 222 1075 l 1,12,-1
 94 1100 l 1,13,-1
 94 1536 l 1,14,-1
 1331 1536 l 1,15,-1
 1331 1024 l 1,16,-1
 1163 1024 l 1,17,18
 1139 1046 1139 1046 1108.5 1069 c 128,-1,19
 1078 1092 1078 1092 1040.5 1110.5 c 128,-1,20
 1003 1129 1003 1129 958.5 1140.5 c 128,-1,21
 914 1152 914 1152 862 1152 c 1,0,1
EndSplineSet
Validated: 19457
EndChar

StartChar: M
Encoding: 77 77 9
Width: 2364
Flags: W
HStem: 0 21G<94 861 1502 2270> 1516 20G<94 871.915 1491.19 2270>
LayerCount: 2
Fore
SplineSet
1183 197 m 1,0,-1
 861 749 l 1,1,-1
 861 0 l 1,2,-1
 94 0 l 1,3,-1
 94 434 l 1,4,-1
 222 459 l 1,5,-1
 222 1077 l 1,6,-1
 94 1102 l 1,7,-1
 94 1536 l 1,8,-1
 861 1536 l 1,9,-1
 1183 946 l 1,10,-1
 1502 1536 l 1,11,-1
 2270 1536 l 1,12,-1
 2270 1102 l 1,13,-1
 2142 1077 l 1,14,-1
 2142 459 l 1,15,-1
 2270 434 l 1,16,-1
 2270 0 l 1,17,-1
 1502 0 l 1,18,-1
 1502 749 l 1,19,-1
 1183 197 l 1,0,-1
EndSplineSet
Validated: 19457
EndChar

StartChar: L
Encoding: 76 76 10
Width: 1372
Flags: W
HStem: 0 21G<94 1314> 1516 20G<94 990>
VStem: 222 640<459 1077>
LayerCount: 2
Fore
SplineSet
862 1077 m 1,0,-1
 862 384 l 1,1,2
 910 384 910 384 952 395.5 c 128,-1,3
 994 407 994 407 1030 425 c 128,-1,4
 1066 443 1066 443 1095.5 466 c 128,-1,5
 1125 489 1125 489 1147 512 c 1,6,-1
 1314 512 l 1,7,-1
 1314 0 l 1,8,-1
 94 0 l 1,9,-1
 94 434 l 1,10,-1
 222 459 l 1,11,-1
 222 1077 l 1,12,-1
 94 1102 l 1,13,-1
 94 1536 l 1,14,-1
 990 1536 l 1,15,-1
 990 1102 l 1,16,-1
 862 1077 l 1,0,-1
EndSplineSet
Validated: 19457
EndChar

StartChar: O
Encoding: 79 79 11
Width: 1972
Flags: W
HStem: -40 505<825.531 1144.27> 1102 474<824.602 1145.19>
VStem: 90 640<565.939 1004.53> 1242 640<569.391 1001.64>
LayerCount: 2
Fore
SplineSet
985 -40 m 0,0,1
 860 -40 860 -40 745 -19.5 c 128,-1,2
 630 1 630 1 530.5 43.5 c 128,-1,3
 431 86 431 86 350 152 c 128,-1,4
 269 218 269 218 211 310 c 128,-1,5
 153 402 153 402 121.5 520.5 c 128,-1,6
 90 639 90 639 90 786 c 0,7,8
 90 928 90 928 121.5 1041.5 c 128,-1,9
 153 1155 153 1155 211 1243 c 128,-1,10
 269 1331 269 1331 350.5 1394 c 128,-1,11
 432 1457 432 1457 531.5 1497.5 c 128,-1,12
 631 1538 631 1538 745.5 1557 c 128,-1,13
 860 1576 860 1576 985 1576 c 0,14,15
 1109 1576 1109 1576 1224 1557 c 128,-1,16
 1339 1538 1339 1538 1438.5 1497.5 c 128,-1,17
 1538 1457 1538 1457 1620 1394 c 128,-1,18
 1702 1331 1702 1331 1760 1243 c 128,-1,19
 1818 1155 1818 1155 1850 1041.5 c 128,-1,20
 1882 928 1882 928 1882 786 c 0,21,22
 1882 565 1882 565 1812 408.5 c 128,-1,23
 1742 252 1742 252 1620.5 152 c 128,-1,24
 1499 52 1499 52 1335.5 6 c 128,-1,25
 1172 -40 1172 -40 985 -40 c 0,0,1
985 1102 m 256,26,27
 921 1102 921 1102 877.5 1085.5 c 128,-1,28
 834 1069 834 1069 805.5 1042 c 128,-1,29
 777 1015 777 1015 762 981 c 128,-1,30
 747 947 747 947 739.5 912 c 128,-1,31
 732 877 732 877 731 844 c 128,-1,32
 730 811 730 811 730 786 c 256,33,34
 730 761 730 761 731 728 c 128,-1,35
 732 695 732 695 739.5 659.5 c 128,-1,36
 747 624 747 624 762 589 c 128,-1,37
 777 554 777 554 805.5 526.5 c 128,-1,38
 834 499 834 499 877.5 482 c 128,-1,39
 921 465 921 465 985 465 c 256,40,41
 1049 465 1049 465 1092.5 482 c 128,-1,42
 1136 499 1136 499 1165 526.5 c 128,-1,43
 1194 554 1194 554 1209.5 589 c 128,-1,44
 1225 624 1225 624 1232 659.5 c 128,-1,45
 1239 695 1239 695 1240.5 728 c 128,-1,46
 1242 761 1242 761 1242 786 c 256,47,48
 1242 811 1242 811 1240.5 844 c 128,-1,49
 1239 877 1239 877 1232 912 c 128,-1,50
 1225 947 1225 947 1209.5 981 c 128,-1,51
 1194 1015 1194 1015 1165 1042 c 128,-1,52
 1136 1069 1136 1069 1092.5 1085.5 c 128,-1,53
 1049 1102 1049 1102 985 1102 c 256,26,27
EndSplineSet
Validated: 19457
EndChar

StartChar: K
Encoding: 75 75 12
Width: 2088
Flags: W
HStem: 0 21G<122 890 1164.17 1965> 1516 20G<122 890 1163.81 1965.08>
VStem: 122 768<0 434 1102 1536>
LayerCount: 2
Fore
SplineSet
1965 1536 m 1,0,-1
 1966 1290 l 1,1,2
 1918 1255 1918 1255 1872.5 1214.5 c 128,-1,3
 1827 1174 1827 1174 1785 1132 c 128,-1,4
 1743 1090 1743 1090 1705.5 1048.5 c 128,-1,5
 1668 1007 1668 1007 1636 968 c 0,6,7
 1561 877 1561 877 1499 786 c 1,8,9
 1583 671 1583 671 1666 565 c 0,10,11
 1701 520 1701 520 1739.5 472.5 c 128,-1,12
 1778 425 1778 425 1817 380 c 128,-1,13
 1856 335 1856 335 1893.5 295.5 c 128,-1,14
 1931 256 1931 256 1964 227 c 1,15,-1
 1965 0 l 1,16,-1
 1173 0 l 1,17,-1
 890 641 l 1,18,-1
 890 0 l 1,19,-1
 122 0 l 1,20,-1
 122 434 l 1,21,-1
 250 459 l 1,22,-1
 250 1077 l 1,23,-1
 122 1102 l 1,24,-1
 122 1536 l 1,25,-1
 890 1536 l 1,26,-1
 890 920 l 1,27,-1
 1173 1536 l 1,28,-1
 1965 1536 l 1,0,-1
EndSplineSet
Validated: 19457
EndChar

StartChar: Y
Encoding: 89 89 13
Width: 2031
Flags: W
HStem: 0 21G<532 1500> 1102 434<59 155.768 853.267 913 1119 1178.73 1875.83 1972>
LayerCount: 2
Fore
SplineSet
1500 0 m 1,0,-1
 532 0 l 1,1,-1
 532 432 l 1,2,-1
 660 464 l 1,3,-1
 221 1078 l 1,4,-1
 59 1102 l 1,5,-1
 59 1536 l 1,6,-1
 913 1536 l 1,7,-1
 913 1102 l 1,8,-1
 813 1078 l 1,9,-1
 1016 764 l 1,10,-1
 1219 1078 l 1,11,-1
 1119 1102 l 1,12,-1
 1119 1536 l 1,13,-1
 1972 1536 l 1,14,-1
 1972 1102 l 1,15,-1
 1811 1078 l 1,16,-1
 1372 464 l 1,17,-1
 1500 432 l 1,18,-1
 1500 0 l 1,0,-1
EndSplineSet
Validated: 19457
EndChar

StartChar: H
Encoding: 72 72 14
Width: 2292
Flags: W
HStem: 0 434<122 195.4 944.6 1018 1274 1347.4 2096.6 2170> 660 226<890 1402> 1100 436<122 195.4 944.6 1018 1274 1347.4 2096.6 2170>
VStem: 122 896<0 434 1100 1536> 1274 896<0 434 1100 1536>
LayerCount: 2
Fore
SplineSet
122 1100 m 1,0,-1
 122 1536 l 1,1,-1
 1018 1536 l 1,2,-1
 1018 1100 l 1,3,-1
 890 1075 l 1,4,-1
 890 886 l 1,5,-1
 1402 886 l 1,6,-1
 1402 1075 l 1,7,-1
 1274 1100 l 1,8,-1
 1274 1536 l 1,9,-1
 2170 1536 l 1,10,-1
 2170 1100 l 1,11,-1
 2042 1075 l 1,12,-1
 2042 459 l 1,13,-1
 2170 434 l 1,14,-1
 2170 0 l 1,15,-1
 1274 0 l 1,16,-1
 1274 434 l 1,17,-1
 1402 459 l 1,18,-1
 1402 660 l 1,19,-1
 890 660 l 1,20,-1
 890 459 l 1,21,-1
 1018 434 l 1,22,-1
 1018 0 l 1,23,-1
 122 0 l 1,24,-1
 122 434 l 1,25,-1
 250 459 l 1,26,-1
 250 1075 l 1,27,-1
 122 1100 l 1,0,-1
EndSplineSet
Validated: 19457
EndChar

StartChar: P
Encoding: 80 80 15
Width: 1798
Flags: W
HStem: 0 21G<94 990> 590 275<862 1065.14> 1237 299<862 1066.86>
VStem: 1118 640<915.788 1187.47>
LayerCount: 2
Fore
SplineSet
94 1102 m 1,0,-1
 94 1536 l 1,1,-1
 965 1536 l 2,2,3
 1135 1536 1135 1536 1260 1520.5 c 128,-1,4
 1385 1505 1385 1505 1473 1476 c 128,-1,5
 1561 1447 1561 1447 1616.5 1405 c 128,-1,6
 1672 1363 1672 1363 1703.5 1311 c 128,-1,7
 1735 1259 1735 1259 1746.5 1197 c 128,-1,8
 1758 1135 1758 1135 1758 1065 c 0,9,10
 1758 993 1758 993 1744.5 930 c 128,-1,11
 1731 867 1731 867 1695 814.5 c 128,-1,12
 1659 762 1659 762 1595.5 720 c 128,-1,13
 1532 678 1532 678 1432.5 649.5 c 128,-1,14
 1333 621 1333 621 1192.5 605.5 c 128,-1,15
 1052 590 1052 590 862 590 c 1,16,-1
 862 459 l 1,17,-1
 990 434 l 1,18,-1
 990 0 l 1,19,-1
 94 0 l 1,20,-1
 94 434 l 1,21,-1
 222 459 l 1,22,-1
 222 1077 l 1,23,-1
 94 1102 l 1,0,-1
862 1237 m 1,24,25
 862 865 l 1,26,27
 920 865 920 865 967.5 871 c 128,-1,28
 1015 877 1015 877 1048.5 896.5 c 128,-1,29
 1082 916 1082 916 1100 953 c 128,-1,30
 1118 990 1118 990 1118 1053 c 0,31,32
 1118 1114 1118 1114 1100 1150.5 c 128,-1,33
 1082 1187 1082 1187 1048.5 1206 c 128,-1,34
 1015 1225 1015 1225 967.5 1231 c 128,-1,35
 920 1237 920 1237 862 1237 c 1,24,25
EndSplineSet
Validated: 19457
EndChar

StartChar: N
Encoding: 78 78 16
Width: 2036
Flags: W
HStem: 0 21G<122 762 1131.36 1914> 1516 20G<122 903.011 1274 1914>
VStem: 122 640<0 434> 250 384<459 749> 1274 640<1102 1536> 1402 384<749 1075>
LayerCount: 2
Fore
SplineSet
1145 0 m 1,0,-1
 634 749 l 1,1,-1
 634 459 l 1,2,-1
 762 435 l 1,3,-1
 762 0 l 1,4,-1
 122 0 l 1,5,-1
 122 434 l 1,6,-1
 250 459 l 1,7,-1
 250 1077 l 1,8,-1
 122 1102 l 1,9,-1
 122 1536 l 1,10,-1
 890 1536 l 1,11,-1
 1402 749 l 1,12,-1
 1402 1075 l 1,13,-1
 1274 1102 l 1,14,-1
 1274 1536 l 1,15,-1
 1914 1536 l 1,16,-1
 1914 1102 l 1,17,-1
 1786 1077 l 1,18,-1
 1786 459 l 1,19,-1
 1914 434 l 1,20,-1
 1914 0 l 1,21,-1
 1145 0 l 1,0,-1
EndSplineSet
Validated: 19457
EndChar

StartChar: A
Encoding: 65 65 18
Width: 1825
Flags: W
HStem: 0 21G<81 654.109 1170.81 1744> 258 343<789 1035> 1516 20G<493.141 1330.88>
LayerCount: 2
Fore
SplineSet
1744 0 m 1,0,-1
 1175 0 l 1,1,-1
 1121 258 l 1,2,-1
 703 258 l 1,3,-1
 650 0 l 1,4,-1
 81 0 l 1,5,-1
 81 504 l 1,6,-1
 204 529 l 1,7,-1
 499 1536 l 1,8,-1
 1325 1536 l 1,9,-1
 1621 529 l 1,10,-1
 1744 504 l 1,11,-1
 1744 0 l 1,0,-1
912 1180 m 1,12,-1
 789 601 l 1,13,-1
 1035 601 l 1,14,-1
 912 1180 l 1,12,-1
EndSplineSet
Validated: 19457
EndChar

StartChar: Q
Encoding: 81 81 19
Width: 1907
Flags: W
HStem: -459 924<847.836 1106.41> 1102 474<786.602 1107.19>
VStem: 52 640<565.656 1004.53> 1204 640<567.41 1001.64>
LayerCount: 2
Fore
SplineSet
1480 -459 m 1,0,-1
 884 -459 l 1,1,2
 861 -433 861 -433 839 -403.5 c 128,-1,3
 817 -374 817 -374 795 -339 c 0,4,5
 757 -279 757 -279 716.5 -196 c 128,-1,6
 676 -113 676 -113 647 -7 c 1,7,8
 516 24 516 24 406.5 86.5 c 128,-1,9
 297 149 297 149 218.5 246.5 c 128,-1,10
 140 344 140 344 96 478 c 128,-1,11
 52 612 52 612 52 786 c 0,12,13
 52 928 52 928 83.5 1041.5 c 128,-1,14
 115 1155 115 1155 173 1243 c 128,-1,15
 231 1331 231 1331 312.5 1394 c 128,-1,16
 394 1457 394 1457 493.5 1497.5 c 128,-1,17
 593 1538 593 1538 707.5 1557 c 128,-1,18
 822 1576 822 1576 947 1576 c 0,19,20
 1071 1576 1071 1576 1186 1557 c 128,-1,21
 1301 1538 1301 1538 1400.5 1497.5 c 128,-1,22
 1500 1457 1500 1457 1582 1394 c 128,-1,23
 1664 1331 1664 1331 1722 1243 c 128,-1,24
 1780 1155 1780 1155 1812 1041.5 c 128,-1,25
 1844 928 1844 928 1844 786 c 0,26,27
 1844 621 1844 621 1804.5 492 c 128,-1,28
 1765 363 1765 363 1693 267 c 128,-1,29
 1621 171 1621 171 1521 107 c 128,-1,30
 1421 43 1421 43 1301 7 c 1,31,32
 1349 -53 1349 -53 1397 -109.5 c 128,-1,33
 1445 -166 1445 -166 1480 -208 c 1,34,-1
 1480 -459 l 1,0,-1
947 1102 m 256,35,36
 883 1102 883 1102 839.5 1085.5 c 128,-1,37
 796 1069 796 1069 767.5 1042 c 128,-1,38
 739 1015 739 1015 724 981 c 128,-1,39
 709 947 709 947 701.5 912 c 128,-1,40
 694 877 694 877 693 844 c 128,-1,41
 692 811 692 811 692 786 c 256,42,43
 692 761 692 761 693 728 c 128,-1,44
 694 695 694 695 701.5 659.5 c 128,-1,45
 709 624 709 624 724 589 c 128,-1,46
 739 554 739 554 767.5 526.5 c 128,-1,47
 796 499 796 499 839.5 482 c 128,-1,48
 883 465 883 465 947 465 c 256,49,50
 1011 465 1011 465 1054.5 482 c 128,-1,51
 1098 499 1098 499 1127 526.5 c 128,-1,52
 1156 554 1156 554 1171.5 589 c 128,-1,53
 1187 624 1187 624 1194 659.5 c 128,-1,54
 1201 695 1201 695 1202.5 728 c 128,-1,55
 1204 761 1204 761 1204 786 c 256,56,57
 1204 811 1204 811 1202.5 844 c 128,-1,58
 1201 877 1201 877 1194 912 c 128,-1,59
 1187 947 1187 947 1171.5 981 c 128,-1,60
 1156 1015 1156 1015 1127 1042 c 128,-1,61
 1098 1069 1098 1069 1054.5 1085.5 c 128,-1,62
 1011 1102 1011 1102 947 1102 c 256,35,36
EndSplineSet
Validated: 19457
EndChar

StartChar: T
Encoding: 84 84 20
Width: 1544
Flags: W
HStem: 0 21G<324 1220> 1024 512<68 274.996 1269 1476> 1152 384<318.981 452 1092 1225.02>
VStem: 452 640<459 1152>
LayerCount: 2
Fore
SplineSet
68 1536 m 1,0,-1
 1476 1536 l 1,1,-1
 1476 1024 l 1,2,-1
 1308 1024 l 1,3,4
 1291 1046 1291 1046 1269 1069 c 128,-1,5
 1247 1092 1247 1092 1220 1110.5 c 128,-1,6
 1193 1129 1193 1129 1161 1140.5 c 128,-1,7
 1129 1152 1129 1152 1092 1152 c 1,8,-1
 1092 459 l 1,9,-1
 1220 434 l 1,10,-1
 1220 0 l 1,11,-1
 324 0 l 1,12,-1
 324 434 l 1,13,-1
 452 459 l 1,14,-1
 452 1152 l 1,15,16
 415 1152 415 1152 383 1140.5 c 128,-1,17
 351 1129 351 1129 324 1110.5 c 128,-1,18
 297 1092 297 1092 275 1069 c 128,-1,19
 253 1046 253 1046 236 1024 c 1,20,-1
 68 1024 l 1,21,-1
 68 1536 l 1,0,-1
EndSplineSet
Validated: 19457
EndChar

StartChar: C
Encoding: 67 67 21
Width: 1629
Flags: W
HStem: -40 495<839.112 1308.46> 1113 463<849.383 1145.71>
VStem: 66 641<588.278 963.29>
LayerCount: 2
Fore
SplineSet
707 786 m 0,0,1
 707 699 707 699 729 636.5 c 128,-1,2
 751 574 751 574 793.5 533.5 c 128,-1,3
 836 493 836 493 897.5 474 c 128,-1,4
 959 455 959 455 1038 455 c 0,5,6
 1131 455 1131 455 1260.5 479.5 c 128,-1,7
 1390 504 1390 504 1543 552 c 1,8,-1
 1543 71 l 1,9,10
 1384 17 1384 17 1229.5 -11.5 c 128,-1,11
 1075 -40 1075 -40 929 -40 c 0,12,13
 746 -40 746 -40 588.5 10 c 128,-1,14
 431 60 431 60 315 162 c 128,-1,15
 199 264 199 264 132.5 419.5 c 128,-1,16
 66 575 66 575 66 786 c 0,17,18
 66 992 66 992 126.5 1141 c 128,-1,19
 187 1290 187 1290 299 1387 c 128,-1,20
 411 1484 411 1484 569 1530 c 128,-1,21
 727 1576 727 1576 921 1576 c 0,22,23
 1068 1576 1068 1576 1182 1556 c 128,-1,24
 1296 1536 1296 1536 1377 1513 c 1,25,26
 1470 1485 1470 1485 1543 1450 c 1,27,-1
 1543 973 l 1,28,-1
 1242 973 l 1,29,30
 1191 1045 1191 1045 1128.5 1079 c 128,-1,31
 1066 1113 1066 1113 1000 1113 c 0,32,33
 944 1113 944 1113 891.5 1091 c 128,-1,34
 839 1069 839 1069 798 1027 c 128,-1,35
 757 985 757 985 732 924.5 c 128,-1,36
 707 864 707 864 707 786 c 0,0,1
EndSplineSet
Validated: 19457
EndChar

StartChar: G
Encoding: 71 71 22
Width: 1670
Flags: W
HStem: -39 494<832.09 1153.74> 590 274<964 1156> 1113 463<850.383 1146.71>
VStem: 67 641<580.952 963.29> 1156 430<462.91 590>
LayerCount: 2
Fore
SplineSet
67 786 m 0,0,1
 67 992 67 992 127.5 1141 c 128,-1,2
 188 1290 188 1290 300 1387 c 128,-1,3
 412 1484 412 1484 570 1530 c 128,-1,4
 728 1576 728 1576 922 1576 c 0,5,6
 1069 1576 1069 1576 1183 1556 c 128,-1,7
 1297 1536 1297 1536 1378 1513 c 1,8,9
 1471 1485 1471 1485 1544 1450 c 1,10,-1
 1544 973 l 1,11,-1
 1243 973 l 1,12,13
 1192 1045 1192 1045 1129.5 1079 c 128,-1,14
 1067 1113 1067 1113 1001 1113 c 0,15,16
 945 1113 945 1113 892.5 1091 c 128,-1,17
 840 1069 840 1069 799 1027 c 128,-1,18
 758 985 758 985 733 924.5 c 128,-1,19
 708 864 708 864 708 786 c 0,20,21
 708 613 708 613 786.5 534 c 128,-1,22
 865 455 865 455 1010 455 c 0,23,24
 1079 455 1079 455 1156 471 c 1,25,-1
 1156 590 l 1,26,-1
 964 590 l 1,27,-1
 964 864 l 1,28,-1
 1586 864 l 1,29,-1
 1586 122 l 1,30,31
 1507 89 1507 89 1418.5 59.5 c 128,-1,32
 1330 30 1330 30 1241.5 8.5 c 128,-1,33
 1153 -13 1153 -13 1068 -26 c 128,-1,34
 983 -39 983 -39 911 -39 c 0,35,36
 733 -39 733 -39 579 10.5 c 128,-1,37
 425 60 425 60 311 162 c 128,-1,38
 197 264 197 264 132 419 c 128,-1,39
 67 574 67 574 67 786 c 0,0,1
EndSplineSet
Validated: 19457
EndChar

StartChar: U
Encoding: 85 85 23
Width: 1959
Flags: W
HStem: -39 504<867.318 1183.59> 1102 434<67 140.4 824.6 898 1154 1227.4 1818.6 1892>
VStem: 195 575<569.391 1077> 1282 481<569.391 1077>
LayerCount: 2
Fore
SplineSet
1892 1102 m 1,0,-1
 1764 1077 l 1,1,2
 1763 1045 1763 1045 1763 1014.5 c 128,-1,3
 1763 984 1763 984 1763 955 c 2,4,-1
 1763 786 l 2,5,6
 1763 565 1763 565 1704.5 408.5 c 128,-1,7
 1646 252 1646 252 1546 152.5 c 128,-1,8
 1446 53 1446 53 1311.5 7 c 128,-1,9
 1177 -39 1177 -39 1026 -39 c 0,10,11
 852 -39 852 -39 700.5 7 c 128,-1,12
 549 53 549 53 436.5 152.5 c 128,-1,13
 324 252 324 252 259.5 408.5 c 128,-1,14
 195 565 195 565 195 786 c 2,15,-1
 195 1077 l 1,16,-1
 67 1102 l 1,17,-1
 67 1536 l 1,18,-1
 898 1536 l 1,19,-1
 898 1102 l 1,20,-1
 770 1077 l 1,21,-1
 770 948 l 2,22,23
 770 923 770 923 770 897.5 c 128,-1,24
 770 872 770 872 770.5 850 c 128,-1,25
 771 828 771 828 771 811 c 128,-1,26
 771 794 771 794 771 786 c 0,27,28
 771 761 771 761 772 728 c 128,-1,29
 773 695 773 695 780.5 659.5 c 128,-1,30
 788 624 788 624 803 589 c 128,-1,31
 818 554 818 554 846.5 526.5 c 128,-1,32
 875 499 875 499 918.5 482 c 128,-1,33
 962 465 962 465 1026 465 c 256,34,35
 1090 465 1090 465 1133.5 482 c 128,-1,36
 1177 499 1177 499 1206 526.5 c 128,-1,37
 1235 554 1235 554 1250.5 589 c 128,-1,38
 1266 624 1266 624 1273 659.5 c 128,-1,39
 1280 695 1280 695 1281.5 728 c 128,-1,40
 1283 761 1283 761 1283 786 c 0,41,42
 1283 794 1283 794 1283 811 c 128,-1,43
 1283 828 1283 828 1282.5 850 c 128,-1,44
 1282 872 1282 872 1282 897.5 c 128,-1,45
 1282 923 1282 923 1282 948 c 2,46,-1
 1282 1077 l 1,47,-1
 1154 1102 l 1,48,-1
 1154 1536 l 1,49,-1
 1892 1536 l 1,50,-1
 1892 1102 l 1,0,-1
EndSplineSet
Validated: 19457
EndChar

StartChar: J
Encoding: 74 74 24
Width: 1516
Flags: W
HStem: -40 463<422.504 628.448> 1516 20G<556 1452>
VStem: 684 640<479.91 1077>
LayerCount: 2
Fore
SplineSet
1324 1077 m 1,0,-1
 1324 640 l 2,1,2
 1324 463 1324 463 1273.5 334.5 c 128,-1,3
 1223 206 1223 206 1131 123 c 128,-1,4
 1039 40 1039 40 908 0 c 128,-1,5
 777 -40 777 -40 617 -40 c 0,6,7
 481 -40 481 -40 376.5 -20.5 c 128,-1,8
 272 -1 272 -1 197 23 c 0,9,10
 110 50 110 50 45 86 c 1,11,-1
 45 563 l 1,12,-1
 346 563 l 1,13,14
 384 491 384 491 435.5 457 c 128,-1,15
 487 423 487 423 538 423 c 0,16,17
 565 423 565 423 591.5 437 c 128,-1,18
 618 451 618 451 638.5 478.5 c 128,-1,19
 659 506 659 506 671.5 546.5 c 128,-1,20
 684 587 684 587 684 640 c 2,21,-1
 684 1077 l 1,22,-1
 556 1102 l 1,23,-1
 556 1536 l 1,24,-1
 1452 1536 l 1,25,-1
 1452 1102 l 1,26,-1
 1324 1077 l 1,0,-1
EndSplineSet
Validated: 19457
EndChar

StartChar: V
Encoding: 86 86 25
Width: 1943
Flags: W
HStem: -1 21G<608.419 1335.58> 1102 434<55 145.795 923.293 989 1115 1180.71 1797.8 1888>
LayerCount: 2
Fore
SplineSet
1328 -1 m 1,0,-1
 616 -1 l 1,1,-1
 207 1078 l 1,2,-1
 55 1102 l 1,3,-1
 55 1536 l 1,4,-1
 989 1536 l 1,5,-1
 989 1102 l 1,6,-1
 879 1078 l 1,7,-1
 1052 509 l 1,8,-1
 1225 1078 l 1,9,-1
 1115 1102 l 1,10,-1
 1115 1536 l 1,11,-1
 1888 1536 l 1,12,-1
 1888 1102 l 1,13,-1
 1737 1078 l 1,14,-1
 1328 -1 l 1,0,-1
EndSplineSet
Validated: 19457
EndChar

StartChar: W
Encoding: 87 87 26
Width: 3066
Flags: W
HStem: -1 21G<621.419 1347.53 1719.44 2445.58> 1102 434<68 158.795 973.293 1039 1165 1230.71 2070.29 2136 2262 2327.71 2907.8 2998>
LayerCount: 2
Fore
SplineSet
1341 -1 m 1,0,-1
 629 -1 l 1,1,-1
 220 1078 l 1,2,-1
 68 1102 l 1,3,-1
 68 1536 l 1,4,-1
 1039 1536 l 1,5,-1
 1039 1102 l 1,6,-1
 929 1078 l 1,7,-1
 1102 509 l 1,8,-1
 1275 1078 l 1,9,-1
 1165 1102 l 1,10,-1
 1165 1536 l 1,11,-1
 2136 1536 l 1,12,-1
 2136 1102 l 1,13,-1
 2026 1078 l 1,14,-1
 2199 509 l 1,15,-1
 2372 1078 l 1,16,-1
 2262 1102 l 1,17,-1
 2262 1536 l 1,18,-1
 2998 1536 l 1,19,-1
 2998 1102 l 1,20,-1
 2847 1078 l 1,21,-1
 2438 -1 l 1,22,-1
 1726 -1 l 1,23,-1
 1533 587 l 1,24,-1
 1341 -1 l 1,0,-1
EndSplineSet
Validated: 19457
EndChar

StartChar: X
Encoding: 88 88 27
Width: 2116
Flags: W
HStem: 0 434<113 203.197 772.507 886 1012 1077.71 1935.21 2026> 1102 434<92 200.715 1010.29 1076 1202 1315.49 1866.88 1975>
LayerCount: 2
Fore
SplineSet
1495 768 m 1,0,-1
 1874 458 l 1,1,-1
 2026 434 l 1,2,-1
 2026 0 l 1,3,-1
 1012 0 l 1,4,-1
 1012 434 l 1,5,-1
 1122 458 l 1,6,-1
 889 636 l 1,7,-1
 696 458 l 1,8,-1
 886 434 l 1,9,-1
 886 0 l 1,10,-1
 113 0 l 1,11,-1
 113 434 l 1,12,-1
 264 458 l 1,13,-1
 633 788 l 1,14,-1
 274 1078 l 1,15,-1
 92 1102 l 1,16,-1
 92 1536 l 1,17,-1
 1076 1536 l 1,18,-1
 1076 1102 l 1,19,-1
 966 1078 l 1,20,-1
 1219 890 l 1,21,-1
 1392 1078 l 1,22,-1
 1202 1102 l 1,23,-1
 1202 1536 l 1,24,-1
 1975 1536 l 1,25,-1
 1975 1102 l 1,26,-1
 1794 1078 l 1,27,-1
 1495 768 l 1,0,-1
EndSplineSet
Validated: 19457
EndChar

StartChar: comma
Encoding: 44 44 28
Width: 786
Flags: W
VStem: 71 640<0 512>
LayerCount: 2
Fore
SplineSet
71 0 m 1,0,-1
 71 512 l 1,1,-1
 711 512 l 1,2,-1
 711 1 l 2,3,4
 711 -126 711 -126 667 -212.5 c 128,-1,5
 623 -299 623 -299 551 -352.5 c 128,-1,6
 479 -406 479 -406 387 -429 c 128,-1,7
 295 -452 295 -452 199 -452 c 1,8,9
 199 -128 l 1,10,11
 216 -127 216 -127 232 -123 c 128,-1,12
 248 -119 248 -119 262 -112 c 0,13,14
 286 -100 286 -100 306 -74 c 128,-1,15
 326 -48 326 -48 326 0 c 1,16,-1
 71 0 l 1,0,-1
EndSplineSet
Validated: 19457
EndChar

StartChar: one
Encoding: 49 49 29
Width: 1054
Flags: W
HStem: 0 21G<85 981> 1516 20G<656.077 853>
VStem: 213 640<459 1024>
LayerCount: 2
Fore
SplineSet
85 1024 m 1,0,-1
 85 1458 l 1,1,-1
 853 1536 l 1,2,-1
 853 459 l 1,3,-1
 981 434 l 1,4,-1
 981 0 l 1,5,-1
 85 0 l 1,6,-1
 85 434 l 1,7,-1
 213 459 l 1,8,-1
 213 1024 l 1,9,-1
 85 1024 l 1,0,-1
EndSplineSet
Validated: 19457
EndChar

StartChar: zero
Encoding: 48 48 30
Width: 1809
Flags: W
HStem: -40 505<781.84 1026.16> 1102 474<781.877 1027.53>
VStem: 69 640<546.301 1023.59> 1100 640<546.301 1019.97>
LayerCount: 2
Fore
SplineSet
904 -40 m 256,0,1
 730 -40 730 -40 578 6 c 128,-1,2
 426 52 426 52 312.5 152 c 128,-1,3
 199 252 199 252 134 408.5 c 128,-1,4
 69 565 69 565 69 786 c 0,5,6
 69 928 69 928 99 1041.5 c 128,-1,7
 129 1155 129 1155 183 1243 c 128,-1,8
 237 1331 237 1331 313 1394 c 128,-1,9
 389 1457 389 1457 482 1497.5 c 128,-1,10
 575 1538 575 1538 681.5 1557 c 128,-1,11
 788 1576 788 1576 904 1576 c 0,12,13
 1019 1576 1019 1576 1126 1557 c 128,-1,14
 1233 1538 1233 1538 1326 1497.5 c 128,-1,15
 1419 1457 1419 1457 1495 1394 c 128,-1,16
 1571 1331 1571 1331 1625.5 1243 c 128,-1,17
 1680 1155 1680 1155 1710 1041.5 c 128,-1,18
 1740 928 1740 928 1740 786 c 0,19,20
 1740 565 1740 565 1674.5 408.5 c 128,-1,21
 1609 252 1609 252 1495.5 152 c 128,-1,22
 1382 52 1382 52 1230 6 c 128,-1,23
 1078 -40 1078 -40 904 -40 c 256,0,1
904 1102 m 256,24,25
 855 1102 855 1102 821.5 1085.5 c 128,-1,26
 788 1069 788 1069 766.5 1042 c 128,-1,27
 745 1015 745 1015 733.5 981 c 128,-1,28
 722 947 722 947 716.5 912 c 128,-1,29
 711 877 711 877 710 844 c 128,-1,30
 709 811 709 811 709 786 c 256,31,32
 709 761 709 761 710 728 c 128,-1,33
 711 695 711 695 716.5 659.5 c 128,-1,34
 722 624 722 624 733.5 589 c 128,-1,35
 745 554 745 554 766.5 526.5 c 128,-1,36
 788 499 788 499 821.5 482 c 128,-1,37
 855 465 855 465 904 465 c 256,38,39
 953 465 953 465 986.5 482 c 128,-1,40
 1020 499 1020 499 1041.5 526.5 c 128,-1,41
 1063 554 1063 554 1075 589 c 128,-1,42
 1087 624 1087 624 1092.5 659.5 c 128,-1,43
 1098 695 1098 695 1099 728 c 128,-1,44
 1100 761 1100 761 1100 786 c 256,45,46
 1100 811 1100 811 1099 844 c 128,-1,47
 1098 877 1098 877 1092.5 912 c 128,-1,48
 1087 947 1087 947 1075 981 c 128,-1,49
 1063 1015 1063 1015 1041.5 1042 c 128,-1,50
 1020 1069 1020 1069 986.5 1085.5 c 128,-1,51
 953 1102 953 1102 904 1102 c 256,24,25
EndSplineSet
Validated: 19457
EndChar

StartChar: a
Encoding: 97 97 31
Width: 1725
Flags: MW
HStem: 0 464<81 153.303 1572.32 1644> 0 21G<81 620.219 1104.78 1644> 237 316<727 998> 1388 20G<467.985 1256.06> 1388 20G<467.985 1256.06>
LayerCount: 2
Fore
SplineSet
1644 0 m 1,0,-1
 1109 0 l 1,1,-1
 1059 237 l 1,2,-1
 666 237 l 1,3,-1
 616 0 l 1,4,-1
 81 0 l 5,5,-1
 81 464 l 1,6,-1
 197 487 l 1,7,-1
 474 1408 l 1,8,-1
 1250 1408 l 1,9,-1
 1529 487 l 1,10,-1
 1644 464 l 5,11,-1
 1644 0 l 1,0,-1
862 1106 m 1,12,-1
 727 553 l 1,13,-1
 998 553 l 1,14,-1
 862 1106 l 1,12,-1
EndSplineSet
Validated: 8408065
EndChar

StartChar: b
Encoding: 98 98 32
Width: 1773
Flags: MW
HStem: 0 399<94 168.797> 0 342<816 1068.49> 626 196<816 1069.11> 1048 360<94 168.797> 1106 302<816 1071.56>
VStem: 214 602<422 626 822 1025> 1097 602<371.838 577.911> 1097 506<869.899 1150>
LayerCount: 2
Fore
SplineSet
94 1408 m 5,0,-1
 1308 1408 l 1,1,2
 1456 1373 1456 1373 1529.5 1295 c 128,-1,3
 1603 1217 1603 1217 1603 1083 c 0,4,5
 1603 993 1603 993 1583 931 c 128,-1,6
 1563 869 1563 869 1532.5 829 c 128,-1,7
 1502 789 1502 789 1466.5 767.5 c 128,-1,8
 1431 746 1431 746 1400.5 736 c 128,-1,9
 1370 726 1370 726 1350 724 c 0,10,-1
 1329 723 l 1,11,12
 1430 719 1430 719 1514 685 c 0,13,14
 1548 671 1548 671 1581.5 649 c 128,-1,15
 1615 627 1615 627 1641 595.5 c 128,-1,16
 1667 564 1667 564 1683 521 c 128,-1,17
 1699 478 1699 478 1699 422 c 0,18,19
 1699 332 1699 332 1676 254.5 c 128,-1,20
 1653 177 1653 177 1594.5 120.5 c 128,-1,21
 1536 64 1536 64 1437 32 c 128,-1,22
 1338 0 1338 0 1185 0 c 2,23,-1
 94 0 l 1,24,-1
 94 399 l 1,25,-1
 214 422 l 1,26,-1
 214 1025 l 1,27,-1
 94 1048 l 5,28,-1
 94 1408 l 5,0,-1
1097 970 m 0,29,30
 1097 1021 1097 1021 1080.5 1048.5 c 128,-1,31
 1064 1076 1064 1076 1036.5 1089 c 128,-1,32
 1009 1102 1009 1102 974.5 1104 c 128,-1,33
 940 1106 940 1106 904 1106 c 2,34,-1
 816 1106 l 1,35,-1
 816 822 l 1,36,-1
 904 822 l 2,37,38
 940 822 940 822 974.5 824.5 c 128,-1,39
 1009 827 1009 827 1036.5 840.5 c 128,-1,40
 1064 854 1064 854 1080.5 884 c 128,-1,41
 1097 914 1097 914 1097 970 c 0,29,30
1097 491 m 0,42,43
 1097 542 1097 542 1080.5 569 c 128,-1,44
 1064 596 1064 596 1036.5 609 c 128,-1,45
 1009 622 1009 622 974.5 624 c 128,-1,46
 940 626 940 626 904 626 c 2,47,-1
 816 626 l 1,48,-1
 816 342 l 1,49,-1
 904 342 l 2,50,51
 940 342 940 342 974.5 344.5 c 128,-1,52
 1009 347 1009 347 1036.5 361 c 128,-1,53
 1064 375 1064 375 1080.5 405 c 128,-1,54
 1097 435 1097 435 1097 491 c 0,42,43
EndSplineSet
Validated: 19457
EndChar

StartChar: c
Encoding: 99 99 33
Width: 1540
Flags: W
HStem: -37 456<790.596 1254.78> 1024 426<796.415 1085.35>
VStem: 66 603<536.308 890.476>
LayerCount: 2
Fore
SplineSet
669 723 m 0,0,1
 669 564 669 564 750 491.5 c 128,-1,2
 831 419 831 419 980 419 c 0,3,4
 1067 419 1067 419 1188.5 441 c 128,-1,5
 1310 463 1310 463 1454 508 c 1,6,-1
 1454 65 l 1,7,8
 1304 14 1304 14 1159.5 -11.5 c 128,-1,9
 1015 -37 1015 -37 877 -37 c 0,10,11
 705 -37 705 -37 557 9 c 128,-1,12
 409 55 409 55 300 149 c 128,-1,13
 191 243 191 243 128.5 386 c 128,-1,14
 66 529 66 529 66 723 c 0,15,16
 66 912 66 912 123 1049.5 c 128,-1,17
 180 1187 180 1187 285 1276 c 128,-1,18
 390 1365 390 1365 538.5 1407.5 c 128,-1,19
 687 1450 687 1450 870 1450 c 0,20,21
 1008 1450 1008 1450 1115 1432 c 128,-1,22
 1222 1414 1222 1414 1298 1392 c 0,23,24
 1343 1379 1343 1379 1381.5 1364.5 c 128,-1,25
 1420 1350 1420 1350 1454 1334 c 1,26,-1
 1454 895 l 1,27,-1
 1171 895 l 1,28,29
 1123 961 1123 961 1065 992.5 c 128,-1,30
 1007 1024 1007 1024 944 1024 c 0,31,32
 892 1024 892 1024 842.5 1004 c 128,-1,33
 793 984 793 984 754.5 945.5 c 128,-1,34
 716 907 716 907 692.5 851 c 128,-1,35
 669 795 669 795 669 723 c 0,0,1
EndSplineSet
Validated: 19457
EndChar

StartChar: d
Encoding: 100 100 34
Width: 1848
Flags: W
HStem: 0 422<816 1103.36> 1025 383<816 1105.4>
VStem: 214 602<422 1025> 1176 602<491.547 955.466>
LayerCount: 2
Fore
SplineSet
94 1408 m 1,0,-1
 1189 1408 l 1,1,2
 1325 1379 1325 1379 1434 1326 c 128,-1,3
 1543 1273 1543 1273 1619.5 1190.5 c 128,-1,4
 1696 1108 1696 1108 1737 992.5 c 128,-1,5
 1778 877 1778 877 1778 723 c 0,6,7
 1778 588 1778 588 1746.5 481.5 c 128,-1,8
 1715 375 1715 375 1656.5 294.5 c 128,-1,9
 1598 214 1598 214 1513 158 c 128,-1,10
 1428 102 1428 102 1321.5 67 c 128,-1,11
 1215 32 1215 32 1087.5 16 c 128,-1,12
 960 0 960 0 816 0 c 2,13,-1
 94 0 l 1,14,-1
 94 399 l 1,15,-1
 214 422 l 1,16,-1
 214 1025 l 1,17,-1
 94 1048 l 1,18,-1
 94 1408 l 1,0,-1
816 422 m 1,19,-1
 908 422 l 2,20,21
 975 422 975 422 1021 432 c 128,-1,22
 1067 442 1067 442 1096.5 460 c 128,-1,23
 1126 478 1126 478 1142.5 505 c 128,-1,24
 1159 532 1159 532 1166.5 565 c 128,-1,25
 1174 598 1174 598 1175 638 c 128,-1,26
 1176 678 1176 678 1176 723 c 256,27,28
 1176 768 1176 768 1175 808 c 128,-1,29
 1174 848 1174 848 1166.5 881.5 c 128,-1,30
 1159 915 1159 915 1142.5 941.5 c 128,-1,31
 1126 968 1126 968 1096.5 986.5 c 128,-1,32
 1067 1005 1067 1005 1021 1015 c 128,-1,33
 975 1025 975 1025 908 1025 c 2,34,-1
 816 1025 l 1,35,-1
 816 422 l 1,19,-1
EndSplineSet
Validated: 19457
EndChar

StartChar: e
Encoding: 101 101 35
Width: 1480
Flags: MW
HStem: 0 512<1148.23 1358> 0 399<122 196.797 844 1093.22> 896 512<1146.97 1358> 1006 402<122 180.842 844 1098.88>
VStem: 242 602<422 623 789 989>
LayerCount: 2
Fore
SplineSet
844 1006 m 1,0,-1
 844 981 l 1,1,-1
 844 789 l 1,2,-1
 1121 848 l 1,3,-1
 1121 563 l 1,4,-1
 844 623 l 1,5,-1
 844 402 l 1,6,7
 904 402 904 402 960 410.5 c 128,-1,8
 1016 419 1016 419 1064 434 c 128,-1,9
 1112 449 1112 449 1152 469 c 128,-1,10
 1192 489 1192 489 1221 512 c 1,11,-1
 1358 512 l 1,12,-1
 1358 0 l 1,13,-1
 122 0 l 1,14,-1
 122 399 l 1,15,-1
 242 422 l 1,16,-1
 242 989 l 1,17,-1
 122 1012 l 1,18,-1
 122 1408 l 1,19,-1
 1358 1408 l 5,20,-1
 1358 896 l 5,21,-1
 1221 896 l 1,22,23
 1192 918 1192 918 1152 938 c 128,-1,24
 1112 958 1112 958 1064 973 c 128,-1,25
 1016 988 1016 988 960 997 c 128,-1,26
 904 1006 904 1006 844 1006 c 1,0,-1
EndSplineSet
Validated: 19457
EndChar

StartChar: f
Encoding: 102 102 36
Width: 1314
Flags: MW
HStem: 0 399<94 153.144 876.856 936> 0 21G<94 936> 896 512<1036.69 1257> 1006 402<94 152.842 816 1000.26>
LayerCount: 2
Fore
SplineSet
816 1006 m 1,0,1
 816 759 l 1,2,-1
 1072 818 l 1,3,-1
 1072 513 l 1,4,-1
 816 573 l 1,5,-1
 816 422 l 1,6,-1
 936 396 l 1,7,-1
 936 0 l 1,8,-1
 94 0 l 1,9,-1
 94 399 l 1,10,-1
 214 422 l 1,11,-1
 214 989 l 1,12,-1
 94 1012 l 1,13,-1
 94 1408 l 1,14,-1
 1257 1408 l 5,15,-1
 1257 896 l 5,16,-1
 1090 896 l 1,17,18
 1047 941 1047 941 977 973.5 c 128,-1,19
 907 1006 907 1006 816 1006 c 1,0,1
EndSplineSet
Validated: 19457
EndChar

StartChar: g
Encoding: 103 103 37
Width: 1579
Flags: W
HStem: -36 435<767.803 1109.37> 537 246<910 1111> 1024 426<785.191 1096.72>
VStem: 67 603<503.709 905.139> 1111 384<410.955 537>
LayerCount: 2
Fore
SplineSet
67 723 m 0,0,1
 67 912 67 912 124 1049.5 c 128,-1,2
 181 1187 181 1187 286 1276 c 128,-1,3
 391 1365 391 1365 539.5 1407.5 c 128,-1,4
 688 1450 688 1450 871 1450 c 0,5,6
 1009 1450 1009 1450 1116 1432 c 128,-1,7
 1223 1414 1223 1414 1299 1392 c 0,8,9
 1344 1379 1344 1379 1382.5 1364.5 c 128,-1,10
 1421 1350 1421 1350 1455 1334 c 1,11,-1
 1455 895 l 1,12,-1
 1172 895 l 1,13,14
 1149 928 1149 928 1126.5 952.5 c 128,-1,15
 1104 977 1104 977 1078 992.5 c 128,-1,16
 1052 1008 1052 1008 1020 1016 c 128,-1,17
 988 1024 988 1024 945 1024 c 0,18,19
 893 1024 893 1024 843.5 1008.5 c 128,-1,20
 794 993 794 993 755.5 957.5 c 128,-1,21
 717 922 717 922 693.5 864.5 c 128,-1,22
 670 807 670 807 670 723 c 0,23,24
 670 625 670 625 689 562.5 c 128,-1,25
 708 500 708 500 744 463.5 c 128,-1,26
 780 427 780 427 832.5 413 c 128,-1,27
 885 399 885 399 953 399 c 0,28,29
 989 399 989 399 1027.5 404 c 128,-1,30
 1066 409 1066 409 1111 423 c 1,31,-1
 1111 537 l 1,32,-1
 910 537 l 1,33,-1
 910 783 l 1,34,-1
 1495 783 l 1,35,-1
 1495 112 l 1,36,37
 1421 81 1421 81 1338 54 c 128,-1,38
 1255 27 1255 27 1171.5 7 c 128,-1,39
 1088 -13 1088 -13 1008 -24.5 c 128,-1,40
 928 -36 928 -36 860 -36 c 0,41,42
 693 -36 693 -36 548 9.5 c 128,-1,43
 403 55 403 55 296 149 c 128,-1,44
 189 243 189 243 128 386 c 128,-1,45
 67 529 67 529 67 723 c 0,0,1
EndSplineSet
Validated: 19457
EndChar

StartChar: h
Encoding: 104 104 38
Width: 2169
Flags: MW
HStem: 0 399<122 196.797 889.203 964 1205 1279.8 1972.2 2047> 589 235<844 1325> 1012 401<122 196.797 889.203 964 1205 1279.8 1972.2 2047> 1012 396<122 196.797 889.203 964 1205 1279.8 1972.2 2047>
VStem: 122 842<0 399 1012 1408> 1205 842<0 399 1012 1413>
LayerCount: 2
Fore
SplineSet
122 1012 m 1,0,-1
 122 1408 l 1,1,-1
 964 1408 l 1,2,-1
 964 1012 l 1,3,-1
 844 989 l 1,4,-1
 844 824 l 1,5,-1
 1325 824 l 1,6,-1
 1325 989 l 1,7,-1
 1205 1012 l 1,8,-1
 1205 1413 l 1,9,-1
 2047 1413 l 5,10,-1
 2047 1012 l 5,11,-1
 1927 989 l 1,12,-1
 1927 422 l 1,13,-1
 2047 399 l 1,14,-1
 2047 0 l 1,15,-1
 1205 0 l 1,16,-1
 1205 399 l 1,17,-1
 1325 422 l 1,18,-1
 1325 589 l 1,19,-1
 844 589 l 1,20,-1
 844 422 l 1,21,-1
 964 399 l 1,22,-1
 964 0 l 1,23,-1
 122 0 l 1,24,-1
 122 399 l 1,25,-1
 242 422 l 1,26,-1
 242 989 l 1,27,-1
 122 1012 l 1,0,-1
EndSplineSet
Validated: 19457
EndChar

StartChar: i
Encoding: 105 105 39
Width: 1030
Flags: MW
HStem: 0 399<94 168.797 861.203 936> 0 21G<94 936> 1014 394<94 168.797 861.203 936> 1388 20G<94 936> 1388 20G<94 936>
LayerCount: 2
Fore
SplineSet
94 1014 m 1,0,-1
 94 1408 l 1,1,-1
 936 1408 l 1,2,-1
 936 1014 l 1,3,-1
 816 991 l 1,4,-1
 816 422 l 1,5,-1
 936 399 l 1,6,-1
 936 0 l 1,7,-1
 94 0 l 5,8,-1
 94 399 l 5,9,-1
 214 422 l 1,10,-1
 214 991 l 1,11,-1
 94 1014 l 1,0,-1
EndSplineSet
Validated: 19457
EndChar

StartChar: j
Encoding: 106 106 40
Width: 1431
Flags: MW
HStem: -37 426<395.598 597> 79 439<45 149.572> 1014 394<525 600.42 1292.58 1368> 1388 20G<525 1368> 1388 20G<525 1368>
VStem: 646 601<441.652 991>
LayerCount: 2
Fore
SplineSet
1247 991 m 1,0,-1
 1247 589 l 2,1,2
 1247 426 1247 426 1200 308 c 128,-1,3
 1153 190 1153 190 1066 113.5 c 128,-1,4
 979 37 979 37 856.5 0 c 128,-1,5
 734 -37 734 -37 583 -37 c 0,6,7
 454 -37 454 -37 355.5 -19 c 128,-1,8
 257 -1 257 -1 188 21 c 0,9,10
 147 34 147 34 111.5 48.5 c 128,-1,11
 76 63 76 63 45 79 c 5,12,-1
 45 518 l 5,13,-1
 328 518 l 1,14,15
 364 452 364 452 412 420.5 c 128,-1,16
 460 389 460 389 508 389 c 0,17,18
 533 389 533 389 558 402 c 128,-1,19
 583 415 583 415 602.5 440.5 c 128,-1,20
 622 466 622 466 634 503 c 128,-1,21
 646 540 646 540 646 589 c 2,22,-1
 646 991 l 1,23,-1
 525 1014 l 1,24,-1
 525 1408 l 1,25,-1
 1368 1408 l 1,26,-1
 1368 1014 l 1,27,-1
 1247 991 l 1,0,-1
EndSplineSet
Validated: 19457
EndChar

StartChar: k
Encoding: 107 107 41
Width: 1904
Flags: MW
HStem: 0 399<122 196.797> 0 21G<122 844 1100.98 1785> 1014 394<122 196.797> 1388 20G<122 844 1100.53 1758> 1388 20G<122 844 1100.53 1758>
VStem: 122 722<0 399 1014 1408>
LayerCount: 2
Fore
SplineSet
1785 204 m 1,0,1
 1785 0 l 1,2,-1
 1110 0 l 1,3,-1
 844 590 l 1,4,-1
 844 0 l 1,5,-1
 122 0 l 5,6,-1
 122 399 l 5,7,-1
 242 422 l 1,8,-1
 242 991 l 1,9,-1
 122 1014 l 1,10,-1
 122 1408 l 1,11,-1
 844 1408 l 1,12,-1
 844 846 l 1,13,-1
 1110 1408 l 1,14,-1
 1758 1408 l 1,15,-1
 1758 1154 l 1,16,17
 1723 1124 1723 1124 1689 1089.5 c 128,-1,18
 1655 1055 1655 1055 1623.5 1019 c 128,-1,19
 1592 983 1592 983 1563.5 947.5 c 128,-1,20
 1535 912 1535 912 1511 879 c 0,21,22
 1454 802 1454 802 1406 725 c 1,23,24
 1467 627 1467 627 1532 533 c 0,25,26
 1560 493 1560 493 1591 449.5 c 128,-1,27
 1622 406 1622 406 1654.5 362.5 c 128,-1,28
 1687 319 1687 319 1720 278.5 c 128,-1,29
 1753 238 1753 238 1785 204 c 1,0,1
EndSplineSet
Validated: 19457
EndChar

StartChar: l
Encoding: 108 108 42
Width: 1297
Flags: MW
HStem: 0 512<1025.33 1238> 0 399<94 168.797> 0 21G<94 1238> 1014 394<94 168.797 860.58 936> 1388 20G<94 936> 1388 20G<94 936>
VStem: 214 601<422 991>
LayerCount: 2
Fore
SplineSet
815 991 m 1,0,-1
 815 384 l 1,1,2
 857 384 857 384 895 395.5 c 128,-1,3
 933 407 933 407 965.5 425.5 c 128,-1,4
 998 444 998 444 1024.5 466.5 c 128,-1,5
 1051 489 1051 489 1071 512 c 1,6,-1
 1238 512 l 5,7,-1
 1238 0 l 5,8,-1
 94 0 l 1,9,-1
 94 399 l 1,10,-1
 214 422 l 1,11,-1
 214 991 l 1,12,-1
 94 1014 l 1,13,-1
 94 1408 l 1,14,-1
 936 1408 l 1,15,-1
 936 1014 l 1,16,-1
 815 991 l 1,0,-1
EndSplineSet
Validated: 19457
EndChar

StartChar: m
Encoding: 109 109 43
Width: 2233
Flags: MW
HStem: 0 399<94 168.797 2064.2 2139> 0 21G<94 815 1418 2139> 1014 394<94 168.797 2064.2 2139> 1388 20G<94 826.264 1406.85 2139> 1388 20G<94 826.264 1406.85 2139>
LayerCount: 2
Fore
SplineSet
1118 181 m 1,0,-1
 815 689 l 1,1,-1
 815 0 l 1,2,-1
 94 0 l 1,3,-1
 94 399 l 1,4,-1
 214 422 l 1,5,-1
 214 991 l 1,6,-1
 94 1014 l 5,7,-1
 94 1408 l 5,8,-1
 815 1408 l 1,9,-1
 1118 870 l 1,10,-1
 1418 1408 l 1,11,-1
 2139 1408 l 1,12,-1
 2139 1014 l 1,13,-1
 2019 991 l 1,14,-1
 2019 422 l 1,15,-1
 2139 399 l 1,16,-1
 2139 0 l 1,17,-1
 1418 0 l 1,18,-1
 1418 689 l 1,19,-1
 1118 181 l 1,0,-1
EndSplineSet
Validated: 19457
EndChar

StartChar: n
Encoding: 110 110 44
Width: 1928
Flags: W
HStem: 0 399<122 196.797 648.58 724 1731.2 1806> 1014 394<122 196.797 1205 1273.81 1731.2 1806>
VStem: 122 602<0 399> 242 361<422 739> 1205 601<1014 1408> 1325 361<649 989>
LayerCount: 2
Fore
SplineSet
1084 0 m 1,0,-1
 603 739 l 1,1,-1
 603 422 l 1,2,-1
 724 400 l 1,3,-1
 724 0 l 1,4,-1
 122 0 l 1,5,-1
 122 399 l 1,6,-1
 242 422 l 1,7,-1
 242 991 l 1,8,-1
 122 1014 l 1,9,-1
 122 1408 l 1,10,-1
 844 1408 l 1,11,-1
 1325 649 l 1,12,-1
 1325 989 l 1,13,-1
 1205 1014 l 1,14,-1
 1205 1408 l 1,15,-1
 1806 1408 l 1,16,-1
 1806 1014 l 1,17,-1
 1686 991 l 1,18,-1
 1686 422 l 1,19,-1
 1806 399 l 1,20,-1
 1806 0 l 1,21,-1
 1084 0 l 1,0,-1
EndSplineSet
Validated: 19457
EndChar

StartChar: o
Encoding: 111 111 45
Width: 1864
Flags: W
HStem: -37 455<778.199 1084.28> 1024 426<779.502 1085.27>
VStem: 90 602<509.559 935.479> 1173 601<513.697 930.407>
LayerCount: 2
Fore
SplineSet
931 -37 m 256,0,1
 814 -37 814 -37 706 -18.5 c 128,-1,2
 598 0 598 0 504.5 39.5 c 128,-1,3
 411 79 411 79 334.5 140 c 128,-1,4
 258 201 258 201 203.5 285.5 c 128,-1,5
 149 370 149 370 119.5 478.5 c 128,-1,6
 90 587 90 587 90 723 c 0,7,8
 90 919 90 919 155.5 1057.5 c 128,-1,9
 221 1196 221 1196 335 1283 c 128,-1,10
 449 1370 449 1370 602 1410 c 128,-1,11
 755 1450 755 1450 931 1450 c 0,12,13
 1106 1450 1106 1450 1259.5 1410 c 128,-1,14
 1413 1370 1413 1370 1527.5 1283 c 128,-1,15
 1642 1196 1642 1196 1708 1057.5 c 128,-1,16
 1774 919 1774 919 1774 723 c 0,17,18
 1774 588 1774 588 1744 479 c 128,-1,19
 1714 370 1714 370 1659.5 285.5 c 128,-1,20
 1605 201 1605 201 1528.5 140 c 128,-1,21
 1452 79 1452 79 1358 39.5 c 128,-1,22
 1264 0 1264 0 1156 -18.5 c 128,-1,23
 1048 -37 1048 -37 931 -37 c 256,0,1
931 1024 m 256,24,25
 871 1024 871 1024 830 1008 c 128,-1,26
 789 992 789 992 762.5 966.5 c 128,-1,27
 736 941 736 941 721.5 908.5 c 128,-1,28
 707 876 707 876 700.5 842.5 c 128,-1,29
 694 809 694 809 693 777.5 c 128,-1,30
 692 746 692 746 692 723 c 256,31,32
 692 700 692 700 693 668 c 128,-1,33
 694 636 694 636 700.5 602.5 c 128,-1,34
 707 569 707 569 721.5 536 c 128,-1,35
 736 503 736 503 762.5 476.5 c 128,-1,36
 789 450 789 450 830 434 c 128,-1,37
 871 418 871 418 931 418 c 256,38,39
 991 418 991 418 1032.5 434 c 128,-1,40
 1074 450 1074 450 1100.5 476.5 c 128,-1,41
 1127 503 1127 503 1142 536 c 128,-1,42
 1157 569 1157 569 1163.5 602.5 c 128,-1,43
 1170 636 1170 636 1171.5 668 c 128,-1,44
 1173 700 1173 700 1173 723 c 256,45,46
 1173 746 1173 746 1171.5 777.5 c 128,-1,47
 1170 809 1170 809 1163.5 842.5 c 128,-1,48
 1157 876 1157 876 1142 908.5 c 128,-1,49
 1127 941 1127 941 1100.5 966.5 c 128,-1,50
 1074 992 1074 992 1032.5 1008 c 128,-1,51
 991 1024 991 1024 931 1024 c 256,24,25
EndSplineSet
Validated: 19457
EndChar

StartChar: p
Encoding: 112 112 46
Width: 1698
Flags: MW
HStem: 0 399<94 168.797 861.203 936> 0 21G<94 936> 543 253<816 1008.07> 1014 394<94 168.797> 1168 240<816 1011.44>
VStem: 1057 601<844.954 1121.82>
LayerCount: 2
Fore
SplineSet
94 1014 m 1,0,-1
 94 1408 l 1,1,-1
 913 1408 l 2,2,3
 1073 1408 1073 1408 1190.5 1394 c 128,-1,4
 1308 1380 1308 1380 1390.5 1354 c 128,-1,5
 1473 1328 1473 1328 1525.5 1290 c 128,-1,6
 1578 1252 1578 1252 1607.5 1204.5 c 128,-1,7
 1637 1157 1637 1157 1647.5 1100.5 c 128,-1,8
 1658 1044 1658 1044 1658 980 c 0,9,10
 1658 914 1658 914 1645.5 856 c 128,-1,11
 1633 798 1633 798 1599 749.5 c 128,-1,12
 1565 701 1565 701 1505.5 662.5 c 128,-1,13
 1446 624 1446 624 1352.5 597.5 c 128,-1,14
 1259 571 1259 571 1127 557 c 128,-1,15
 995 543 995 543 816 543 c 1,16,-1
 816 422 l 1,17,-1
 936 399 l 1,18,-1
 936 0 l 1,19,-1
 94 0 l 5,20,-1
 94 399 l 5,21,-1
 214 422 l 1,22,-1
 214 991 l 1,23,-1
 94 1014 l 1,0,-1
816 1168 m 1,24,25
 816 796 l 1,26,27
 871 796 871 796 915.5 802 c 128,-1,28
 960 808 960 808 991.5 828 c 128,-1,29
 1023 848 1023 848 1040 886 c 128,-1,30
 1057 924 1057 924 1057 989 c 0,31,32
 1057 1049 1057 1049 1040 1084 c 128,-1,33
 1023 1119 1023 1119 991.5 1138 c 128,-1,34
 960 1157 960 1157 915.5 1162.5 c 128,-1,35
 871 1168 871 1168 816 1168 c 1,24,25
EndSplineSet
Validated: 19457
EndChar

StartChar: q
Encoding: 113 113 47
Width: 1799
Flags: MW
HStem: -9 427<621 893> 1024 426<741.502 1047.27>
VStem: 52 602<509.756 935.479> 1135 601<512.363 930.407>
LayerCount: 2
Fore
SplineSet
1398 -407 m 1,0,-1
 925 -407 l 1,1,2
 893 -380 893 -380 862.5 -351 c 128,-1,3
 832 -322 832 -322 803 -290 c 0,4,5
 778 -263 778 -263 752 -231 c 128,-1,6
 726 -199 726 -199 702 -163.5 c 128,-1,7
 678 -128 678 -128 657 -89 c 128,-1,8
 636 -50 636 -50 621 -9 c 5,9,10
 496 19 496 19 391.5 76 c 128,-1,11
 287 133 287 133 211.5 223 c 128,-1,12
 136 313 136 313 94 437 c 128,-1,13
 52 561 52 561 52 723 c 0,14,15
 52 919 52 919 117.5 1057.5 c 128,-1,16
 183 1196 183 1196 297 1283 c 128,-1,17
 411 1370 411 1370 564 1410 c 128,-1,18
 717 1450 717 1450 893 1450 c 0,19,20
 1068 1450 1068 1450 1221.5 1410 c 128,-1,21
 1375 1370 1375 1370 1489.5 1283 c 128,-1,22
 1604 1196 1604 1196 1670 1057.5 c 128,-1,23
 1736 919 1736 919 1736 723 c 0,24,25
 1736 573 1736 573 1699.5 455.5 c 128,-1,26
 1663 338 1663 338 1597.5 250.5 c 128,-1,27
 1532 163 1532 163 1440.5 103.5 c 128,-1,28
 1349 44 1349 44 1239 10 c 1,29,30
 1281 -42 1281 -42 1324 -91.5 c 128,-1,31
 1367 -141 1367 -141 1398 -176 c 1,32,-1
 1398 -407 l 1,0,-1
893 1024 m 256,33,34
 833 1024 833 1024 792 1008 c 128,-1,35
 751 992 751 992 724.5 966.5 c 128,-1,36
 698 941 698 941 683.5 908.5 c 128,-1,37
 669 876 669 876 662.5 842.5 c 128,-1,38
 656 809 656 809 655 777.5 c 128,-1,39
 654 746 654 746 654 723 c 256,40,41
 654 700 654 700 655 668 c 128,-1,42
 656 636 656 636 662.5 602.5 c 128,-1,43
 669 569 669 569 683.5 536 c 128,-1,44
 698 503 698 503 724.5 476.5 c 128,-1,45
 751 450 751 450 792 434 c 128,-1,46
 833 418 833 418 893 418 c 260,47,48
 953 418 953 418 994.5 434 c 128,-1,49
 1036 450 1036 450 1062.5 476.5 c 128,-1,50
 1089 503 1089 503 1104 536 c 128,-1,51
 1119 569 1119 569 1125.5 602.5 c 128,-1,52
 1132 636 1132 636 1133.5 668 c 128,-1,53
 1135 700 1135 700 1135 723 c 256,54,55
 1135 746 1135 746 1133.5 777.5 c 128,-1,56
 1132 809 1132 809 1125.5 842.5 c 128,-1,57
 1119 876 1119 876 1104 908.5 c 128,-1,58
 1089 941 1089 941 1062.5 966.5 c 128,-1,59
 1036 992 1036 992 994.5 1008 c 128,-1,60
 953 1024 953 1024 893 1024 c 256,33,34
EndSplineSet
Validated: 19457
EndChar

StartChar: r
Encoding: 114 114 48
Width: 1741
Flags: MWO
HStem: 0 505<849 1059> 0 399<94 168.797> 0 231<1657 1657> 0 21G<94 816 1048 1657> 505 271<816 860.509> 1014 394<94 168.797> 1140 268<816 1008.93>
VStem: 94 722<0 399 1014 1140> 1057 600<821.197 1092.27>
LayerCount: 2
Fore
SplineSet
1657 231 m 1,0,1
 1657 0 l 1,2,-1
 1059 0 l 1,3,4
 1037 41 1037 41 1016 82.5 c 128,-1,5
 995 124 995 124 975 167 c 0,6,7
 958 204 958 204 940 245 c 128,-1,8
 922 286 922 286 905 329.5 c 128,-1,9
 888 373 888 373 873.5 417.5 c 128,-1,10
 859 462 859 462 849 505 c 1,11,-1
 816 505 l 5,12,-1
 816 0 l 1,13,-1
 94 0 l 1,14,-1
 94 399 l 1,15,-1
 214 422 l 1,16,-1
 214 991 l 1,17,-1
 94 1014 l 1,18,-1
 94 1408 l 1,19,-1
 913 1408 l 2,20,21
 1076 1408 1076 1408 1194.5 1394 c 128,-1,22
 1313 1380 1313 1380 1395.5 1353 c 128,-1,23
 1478 1326 1478 1326 1529 1287.5 c 128,-1,24
 1580 1249 1580 1249 1608.5 1200.5 c 128,-1,25
 1637 1152 1637 1152 1647 1094 c 128,-1,26
 1657 1036 1657 1036 1657 971 c 0,27,28
 1657 905 1657 905 1644.5 851 c 128,-1,29
 1632 797 1632 797 1600 752 c 128,-1,30
 1568 707 1568 707 1512.5 669.5 c 128,-1,31
 1457 632 1457 632 1371 599 c 1,32,33
 1389 563 1389 563 1424.5 513.5 c 128,-1,34
 1460 464 1460 464 1501.5 412.5 c 128,-1,35
 1543 361 1543 361 1585 313 c 128,-1,36
 1627 265 1627 265 1657 231 c 1,0,1
816 1140 m 1,37,-1
 816 776 l 5,38,39
 871 776 871 776 915.5 781.5 c 128,-1,40
 960 787 960 787 991.5 805.5 c 128,-1,41
 1023 824 1023 824 1040 860 c 128,-1,42
 1057 896 1057 896 1057 957 c 0,43,44
 1057 1017 1057 1017 1040 1053 c 128,-1,45
 1023 1089 1023 1089 991.5 1108.5 c 128,-1,46
 960 1128 960 1128 915.5 1134 c 128,-1,47
 871 1140 871 1140 816 1140 c 1,37,-1
EndSplineSet
Validated: 19457
EndChar

StartChar: s
Encoding: 115 115 49
Width: 1403
Flags: MW
HStem: -36 342<476.588 702.043> 22 412<144.979 430.682> 472 460<663 727> 980 412<947.743 1250.02> 1118 332<696.167 901.823>
VStem: 75 588<932 1087.53> 727 602<327.787 474.648>
LayerCount: 2
Fore
SplineSet
1329 443 m 0,0,1
 1329 348 1329 348 1302.5 275 c 128,-1,2
 1276 202 1276 202 1230.5 149 c 128,-1,3
 1185 96 1185 96 1122.5 60.5 c 128,-1,4
 1060 25 1060 25 988 3.5 c 128,-1,5
 916 -18 916 -18 837.5 -27 c 128,-1,6
 759 -36 759 -36 681 -36 c 0,7,8
 547 -36 547 -36 443.5 -18 c 128,-1,9
 340 0 340 0 267 22 c 0,10,11
 224 35 224 35 186.5 49.5 c 128,-1,12
 149 64 149 64 117 80 c 1,13,-1
 117 434 l 1,14,-1
 400 434 l 1,15,16
 442 368 442 368 496 337 c 128,-1,17
 550 306 550 306 607 306 c 0,18,19
 624 306 624 306 645 309 c 128,-1,20
 666 312 666 312 684 328 c 128,-1,21
 702 344 702 344 714.5 377.5 c 128,-1,22
 727 411 727 411 727 472 c 1,23,24
 646 479 646 479 566.5 492.5 c 128,-1,25
 487 506 487 506 414.5 529 c 128,-1,26
 342 552 342 552 280 587.5 c 128,-1,27
 218 623 218 623 172.5 673.5 c 128,-1,28
 127 724 127 724 101 792.5 c 128,-1,29
 75 861 75 861 75 950 c 4,30,31
 75 1053 75 1053 101 1130.5 c 128,-1,32
 127 1208 127 1208 172 1263.5 c 128,-1,33
 217 1319 217 1319 278.5 1355 c 128,-1,34
 340 1391 340 1391 411 1412 c 128,-1,35
 482 1433 482 1433 559 1441.5 c 128,-1,36
 636 1450 636 1450 713 1450 c 0,37,38
 847 1450 847 1450 951 1432 c 128,-1,39
 1055 1414 1055 1414 1128 1392 c 0,40,41
 1171 1379 1171 1379 1208.5 1364.5 c 128,-1,42
 1246 1350 1246 1350 1278 1334 c 1,43,-1
 1278 980 l 1,44,-1
 975 980 l 1,45,46
 937 1052 937 1052 888 1085 c 128,-1,47
 839 1118 839 1118 788 1118 c 0,48,49
 771 1118 771 1118 749 1112.5 c 128,-1,50
 727 1107 727 1107 708 1088 c 128,-1,51
 689 1069 689 1069 676 1032 c 128,-1,52
 663 995 663 995 663 932 c 5,53,54
 828 926 828 926 952.5 897 c 128,-1,55
 1077 868 1077 868 1161 810.5 c 128,-1,56
 1245 753 1245 753 1287 662.5 c 128,-1,57
 1329 572 1329 572 1329 443 c 0,0,1
EndSplineSet
Validated: 19457
EndChar

StartChar: t
Encoding: 116 116 50
Width: 1498
Flags: MW
HStem: 0 399<328 402.797 1095.2 1170> 0 21G<328 1170> 896 512<67 234 1264 1431> 1036 372<295.062 448 1050 1202.94>
VStem: 67 167<896 978.324> 448 602<422 1036> 1264 167<896 978.324>
CounterMasks: 1 0e
LayerCount: 2
Fore
SplineSet
448 422 m 1,0,-1
 448 1036 l 1,1,2
 396 1036 396 1036 356 1022 c 128,-1,3
 316 1008 316 1008 289 987 c 128,-1,4
 262 966 262 966 248 941.5 c 128,-1,5
 234 917 234 917 234 896 c 1,6,-1
 67 896 l 1,7,-1
 67 1408 l 1,8,-1
 1431 1408 l 1,9,-1
 1431 896 l 1,10,-1
 1264 896 l 1,11,12
 1264 917 1264 917 1250 941.5 c 128,-1,13
 1236 966 1236 966 1209 987 c 128,-1,14
 1182 1008 1182 1008 1142 1022 c 128,-1,15
 1102 1036 1102 1036 1050 1036 c 1,16,-1
 1050 422 l 1,17,-1
 1170 399 l 1,18,-1
 1170 0 l 1,19,-1
 328 0 l 5,20,-1
 328 399 l 5,21,-1
 448 422 l 1,0,-1
EndSplineSet
Validated: 19457
EndChar

StartChar: u
Encoding: 117 117 51
Width: 1849
Flags: W
HStem: -36 464<812.971 1122.08> 1014 394<66 140.797 772.203 847 1088 1162.8 1706.58 1782>
VStem: 186 541<518.614 991> 1208 452<518.614 991>
LayerCount: 2
Fore
SplineSet
1782 1014 m 1,0,-1
 1661 991 l 1,1,2
 1660 961 1660 961 1660 932.5 c 128,-1,3
 1660 904 1660 904 1660 878 c 2,4,-1
 1660 723 l 2,5,6
 1660 520 1660 520 1605 376 c 128,-1,7
 1550 232 1550 232 1456 140.5 c 128,-1,8
 1362 49 1362 49 1235.5 6.5 c 128,-1,9
 1109 -36 1109 -36 967 -36 c 0,10,11
 803 -36 803 -36 661 6.5 c 128,-1,12
 519 49 519 49 413 140.5 c 128,-1,13
 307 232 307 232 246.5 376 c 128,-1,14
 186 520 186 520 186 723 c 2,15,-1
 186 991 l 1,16,-1
 66 1014 l 1,17,-1
 66 1408 l 1,18,-1
 847 1408 l 1,19,-1
 847 1014 l 1,20,-1
 727 991 l 1,21,-1
 727 872 l 2,22,23
 727 849 727 849 727 825.5 c 128,-1,24
 727 802 727 802 727.5 781.5 c 128,-1,25
 728 761 728 761 728 745.5 c 128,-1,26
 728 730 728 730 728 723 c 0,27,28
 728 701 728 701 729 670 c 128,-1,29
 730 639 730 639 736.5 606.5 c 128,-1,30
 743 574 743 574 757.5 542 c 128,-1,31
 772 510 772 510 798.5 484.5 c 128,-1,32
 825 459 825 459 866 443.5 c 128,-1,33
 907 428 907 428 967 428 c 256,34,35
 1027 428 1027 428 1068.5 443.5 c 128,-1,36
 1110 459 1110 459 1136.5 484.5 c 128,-1,37
 1163 510 1163 510 1178 542 c 128,-1,38
 1193 574 1193 574 1199.5 606.5 c 128,-1,39
 1206 639 1206 639 1207.5 669.5 c 128,-1,40
 1209 700 1209 700 1209 723 c 0,41,42
 1209 730 1209 730 1209 745.5 c 128,-1,43
 1209 761 1209 761 1208.5 781.5 c 128,-1,44
 1208 802 1208 802 1208 825.5 c 128,-1,45
 1208 849 1208 849 1208 872 c 2,46,-1
 1208 991 l 1,47,-1
 1088 1014 l 1,48,-1
 1088 1408 l 1,49,-1
 1782 1408 l 1,50,-1
 1782 1014 l 1,0,-1
EndSplineSet
Validated: 19457
EndChar

StartChar: v
Encoding: 118 118 52
Width: 1835
Flags: W
HStem: -1 21G<565.467 1270.53> 1014 394<56 149.184 866.881 934 1052 1119.77 1686.47 1779>
LayerCount: 2
Fore
SplineSet
1263 -1 m 1,0,-1
 573 -1 l 1,1,-1
 199 992 l 1,2,-1
 56 1014 l 1,3,-1
 56 1408 l 1,4,-1
 934 1408 l 1,5,-1
 934 1014 l 1,6,-1
 831 992 l 1,7,-1
 993 448 l 1,8,-1
 1156 992 l 1,9,-1
 1052 1014 l 1,10,-1
 1052 1408 l 1,11,-1
 1779 1408 l 1,12,-1
 1779 1014 l 1,13,-1
 1637 992 l 1,14,-1
 1263 -1 l 1,0,-1
EndSplineSet
Validated: 19457
EndChar

StartChar: w
Encoding: 119 119 53
Width: 2890
Flags: W
HStem: -1 21G<587.266 1271.65 1620.27 2303.73> 1014 394<68 161.184 913.23 981 1099 1166.77 1944.88 2012 2130 2197.77 2729.47 2822>
LayerCount: 2
Fore
SplineSet
1265 -1 m 1,0,-1
 595 -1 l 1,1,-1
 211 992 l 1,2,-1
 68 1014 l 1,3,-1
 68 1408 l 1,4,-1
 981 1408 l 1,5,-1
 981 1014 l 1,6,-1
 877 992 l 1,7,-1
 1040 468 l 1,8,-1
 1203 992 l 1,9,-1
 1099 1014 l 1,10,-1
 1099 1408 l 1,11,-1
 2012 1408 l 1,12,-1
 2012 1014 l 1,13,-1
 1909 992 l 1,14,-1
 2071 468 l 1,15,-1
 2234 992 l 1,16,-1
 2130 1014 l 1,17,-1
 2130 1413 l 1,18,-1
 2822 1413 l 1,19,-1
 2822 1014 l 1,20,-1
 2680 992 l 1,21,-1
 2296 -1 l 1,22,-1
 1627 -1 l 1,23,-1
 1445 540 l 1,24,-1
 1265 -1 l 1,0,-1
EndSplineSet
Validated: 19457
EndChar

StartChar: x
Encoding: 120 120 54
Width: 2000
Flags: W
HStem: 0 399<112 204.532 722.009 838 957 1024.12 1816.82 1910> 1014 394<92 203.43 949.881 1017 1135 1251.64 1751.22 1862>
LayerCount: 2
Fore
SplineSet
1411 707 m 1,0,-1
 1767 421 l 1,1,-1
 1910 399 l 1,2,-1
 1910 0 l 1,3,-1
 957 0 l 1,4,-1
 957 399 l 1,5,-1
 1060 421 l 1,6,-1
 841 585 l 1,7,-1
 660 421 l 1,8,-1
 838 399 l 1,9,-1
 838 0 l 1,10,-1
 112 0 l 1,11,-1
 112 399 l 1,12,-1
 254 421 l 1,13,-1
 601 725 l 1,14,-1
 263 992 l 1,15,-1
 92 1014 l 1,16,-1
 92 1408 l 1,17,-1
 1017 1408 l 1,18,-1
 1017 1014 l 1,19,-1
 914 992 l 1,20,-1
 1151 819 l 1,21,-1
 1314 992 l 1,22,-1
 1135 1014 l 1,23,-1
 1135 1408 l 1,24,-1
 1862 1408 l 1,25,-1
 1862 1014 l 1,26,-1
 1692 992 l 1,27,-1
 1411 707 l 1,0,-1
EndSplineSet
Validated: 19457
EndChar

StartChar: y
Encoding: 121 121 55
Width: 1916
Flags: MW
HStem: 0 397<504 561.344 1356.18 1414> 0 21G<504 1414> 1014 394<59 158.049 800.746 862 1055 1116.25 1758.6 1857>
LayerCount: 2
Fore
SplineSet
1414 0 m 1,0,-1
 504 0 l 5,1,-1
 504 397 l 5,2,-1
 624 427 l 1,3,-1
 211 992 l 1,4,-1
 59 1014 l 1,5,-1
 59 1408 l 1,6,-1
 862 1408 l 1,7,-1
 862 1014 l 1,8,-1
 768 992 l 1,9,-1
 959 703 l 1,10,-1
 1149 992 l 1,11,-1
 1055 1014 l 1,12,-1
 1055 1408 l 1,13,-1
 1857 1408 l 1,14,-1
 1857 1014 l 1,15,-1
 1706 992 l 1,16,-1
 1293 427 l 1,17,-1
 1414 397 l 1,18,-1
 1414 0 l 1,0,-1
EndSplineSet
Validated: 19457
EndChar

StartChar: z
Encoding: 122 122 56
Width: 1324
Flags: MW
HStem: 0 469<1014.31 1230> 0 365<769.688 989.038> 938 470<140 354.468> 1055 353<404.466 604>
LayerCount: 2
Fore
SplineSet
1230 0 m 1,0,-1
 87 0 l 1,1,-1
 87 352 l 1,2,-1
 604 1055 l 1,3,4
 551 1055 551 1055 505 1044.5 c 128,-1,5
 459 1034 459 1034 420 1017 c 128,-1,6
 381 1000 381 1000 349.5 979.5 c 128,-1,7
 318 959 318 959 294 938 c 1,8,-1
 140 938 l 5,9,-1
 140 1408 l 5,10,-1
 1230 1408 l 1,11,-1
 1230 1028 l 1,12,-1
 769 368 l 1,13,14
 791 365 791 365 813 365 c 0,15,16
 856 365 856 365 895 374.5 c 128,-1,17
 934 384 934 384 967 399 c 128,-1,18
 1000 414 1000 414 1027.5 432.5 c 128,-1,19
 1055 451 1055 451 1076 469 c 1,20,-1
 1230 469 l 1,21,-1
 1230 0 l 1,0,-1
EndSplineSet
Validated: 19457
EndChar

StartChar: exclam
Encoding: 33 33 57
Width: 931
Flags: W
HStem: 0 384<146 786> 1516 20G<81 850>
LayerCount: 2
Fore
SplineSet
210 512 m 1,0,-1
 81 1137 l 1,1,-1
 81 1536 l 1,2,-1
 850 1536 l 1,3,-1
 850 1137 l 1,4,-1
 722 512 l 1,5,-1
 210 512 l 1,0,-1
146 0 m 1,6,-1
 146 384 l 1,7,-1
 786 384 l 1,8,-1
 786 0 l 1,9,-1
 146 0 l 1,6,-1
EndSplineSet
Validated: 19457
EndChar

StartChar: semicolon
Encoding: 59 59 58
Width: 806
Flags: W
HStem: 896 512<78 718>
VStem: 82 640<0 512 896 1408>
LayerCount: 2
Fore
SplineSet
78 896 m 1,0,-1
 78 1408 l 1,1,-1
 718 1408 l 1,2,-1
 718 896 l 1,3,-1
 78 896 l 1,0,-1
82 0 m 1,4,-1
 82 512 l 1,5,-1
 722 512 l 1,6,-1
 722 1 l 2,7,8
 722 -126 722 -126 678 -212.5 c 128,-1,9
 634 -299 634 -299 562 -352.5 c 128,-1,10
 490 -406 490 -406 398 -429 c 128,-1,11
 306 -452 306 -452 210 -452 c 1,12,13
 210 -128 l 1,14,15
 227 -127 227 -127 243 -123 c 128,-1,16
 259 -119 259 -119 273 -112 c 0,17,18
 297 -100 297 -100 317 -74 c 128,-1,19
 337 -48 337 -48 337 0 c 1,20,-1
 82 0 l 1,4,-1
EndSplineSet
Validated: 19457
EndChar

StartChar: colon
Encoding: 58 58 59
Width: 837
Flags: W
HStem: 0 512<99 739> 896 512<99 739>
VStem: 99 640<0 512 896 1408>
LayerCount: 2
Fore
SplineSet
99 896 m 1,0,-1
 99 1408 l 1,1,-1
 739 1408 l 1,2,-1
 739 896 l 1,3,-1
 99 896 l 1,0,-1
99 0 m 1,4,-1
 99 512 l 1,5,-1
 739 512 l 1,6,-1
 739 0 l 1,7,-1
 99 0 l 1,4,-1
EndSplineSet
Validated: 19457
EndChar

StartChar: slash
Encoding: 47 47 60
Width: 1109
Flags: W
HStem: 0 21G<43 688> 1516 20G<422 1067>
LayerCount: 2
Fore
SplineSet
43 0 m 1,0,-1
 427 1536 l 1,1,-1
 1067 1536 l 1,2,-1
 683 0 l 1,3,-1
 43 0 l 1,0,-1
EndSplineSet
Validated: 19457
EndChar

StartChar: OE
Encoding: 338 338 61
Width: 2547
Flags: W
HStem: -40 505<810.531 1225.66> 0 465<975.525 1226.12 1867 2353.15> 1075 461<1867 2307.28> 1102 474<809.602 1224.4>
VStem: 75 640<565.939 1004.53> 1227 640<481.533 655 879 1074.89>
LayerCount: 2
Fore
SplineSet
2456 540 m 1,0,1
 2456 0 l 1,2,-1
 1297 0 l 1,3,4
 1147 -40 1147 -40 970 -40 c 0,5,6
 845 -40 845 -40 730 -19.5 c 128,-1,7
 615 1 615 1 515.5 43.5 c 128,-1,8
 416 86 416 86 335 152 c 128,-1,9
 254 218 254 218 196 310 c 128,-1,10
 138 402 138 402 106.5 520.5 c 128,-1,11
 75 639 75 639 75 786 c 0,12,13
 75 928 75 928 106.5 1041.5 c 128,-1,14
 138 1155 138 1155 196 1243 c 128,-1,15
 254 1331 254 1331 335.5 1394 c 128,-1,16
 417 1457 417 1457 516.5 1497.5 c 128,-1,17
 616 1538 616 1538 730.5 1557 c 128,-1,18
 845 1576 845 1576 970 1576 c 0,19,20
 1152 1576 1152 1576 1306 1536 c 1,21,-1
 2462 1536 l 1,22,-1
 2462 984 l 1,23,24
 2400 1009 2400 1009 2312 1029 c 0,25,26
 2237 1046 2237 1046 2126.5 1060.5 c 128,-1,27
 2016 1075 2016 1075 1867 1075 c 1,28,-1
 1867 879 l 1,29,-1
 2161 944 l 1,30,-1
 2161 590 l 1,31,-1
 1867 655 l 1,32,-1
 1867 459 l 1,33,34
 2014 459 2014 459 2123 471.5 c 128,-1,35
 2232 484 2232 484 2307 499 c 0,36,37
 2392 517 2392 517 2456 540 c 1,0,1
970 1102 m 0,38,39
 906 1102 906 1102 862.5 1085.5 c 128,-1,40
 819 1069 819 1069 790.5 1042 c 128,-1,41
 762 1015 762 1015 747 981 c 128,-1,42
 732 947 732 947 724.5 912 c 128,-1,43
 717 877 717 877 716 844 c 128,-1,44
 715 811 715 811 715 786 c 256,45,46
 715 761 715 761 716 728 c 128,-1,47
 717 695 717 695 724.5 659.5 c 128,-1,48
 732 624 732 624 747 589 c 128,-1,49
 762 554 762 554 790.5 526.5 c 128,-1,50
 819 499 819 499 862.5 482 c 128,-1,51
 906 465 906 465 970 465 c 0,52,53
 1036 465 1036 465 1083.5 469 c 128,-1,54
 1131 473 1131 473 1163 478 c 0,55,56
 1199 484 1199 484 1227 492 c 1,57,-1
 1227 1060 l 1,58,59
 1214 1065 1214 1065 1198 1070.5 c 128,-1,60
 1182 1076 1182 1076 1163 1081 c 0,61,62
 1131 1089 1131 1089 1083.5 1095.5 c 128,-1,63
 1036 1102 1036 1102 970 1102 c 0,38,39
EndSplineSet
Validated: 19457
EndChar

StartChar: two
Encoding: 50 50 62
Width: 1458
Flags: W
HStem: 0 429<802 1370> 1113 463<463.78 692.407>
VStem: 739 640<819.023 1067.48>
LayerCount: 2
Fore
SplineSet
90 0 m 1,0,-1
 90 515 l 1,1,2
 123 527 123 527 183.5 545 c 128,-1,3
 244 563 244 563 316.5 589 c 128,-1,4
 389 615 389 615 464 649 c 128,-1,5
 539 683 539 683 600 727 c 128,-1,6
 661 771 661 771 700 825.5 c 128,-1,7
 739 880 739 880 739 946 c 0,8,9
 739 989 739 989 725.5 1020.5 c 128,-1,10
 712 1052 712 1052 689 1072.5 c 128,-1,11
 666 1093 666 1093 635.5 1103 c 128,-1,12
 605 1113 605 1113 571 1113 c 0,13,14
 523 1113 523 1113 473.5 1076.5 c 128,-1,15
 424 1040 424 1040 391 973 c 1,16,-1
 90 973 l 1,17,-1
 90 1450 l 1,18,19
 156 1485 156 1485 239 1513 c 1,20,21
 311 1536 311 1536 414.5 1556 c 128,-1,22
 518 1576 518 1576 652 1576 c 0,23,24
 812 1576 812 1576 945.5 1543.5 c 128,-1,25
 1079 1511 1079 1511 1175.5 1443.5 c 128,-1,26
 1272 1376 1272 1376 1325.5 1271.5 c 128,-1,27
 1379 1167 1379 1167 1379 1024 c 0,28,29
 1379 935 1379 935 1354 863 c 128,-1,30
 1329 791 1329 791 1288.5 732.5 c 128,-1,31
 1248 674 1248 674 1196 629 c 128,-1,32
 1144 584 1144 584 1090 550 c 0,33,34
 964 471 964 471 802 429 c 1,35,-1
 1370 429 l 1,36,-1
 1370 0 l 1,37,-1
 90 0 l 1,0,-1
EndSplineSet
Validated: 19457
EndChar

StartChar: three
Encoding: 51 51 63
Width: 1565
Flags: W
HStem: -40 401<491.974 800.224> 22 479<125.312 423.906> 619 296<467 826.936> 1033 480<129.573 423.906> 1173 403<491.974 800.224>
LayerCount: 2
Fore
SplineSet
656 361 m 0,0,1
 704 361 704 361 740 373 c 128,-1,2
 776 385 776 385 801 405.5 c 128,-1,3
 826 426 826 426 838.5 451.5 c 128,-1,4
 851 477 851 477 851 504 c 0,5,6
 851 525 851 525 843 546 c 128,-1,7
 835 567 835 567 819 583 c 128,-1,8
 803 599 803 599 779.5 609 c 128,-1,9
 756 619 756 619 726 619 c 2,10,-1
 467 619 l 1,11,-1
 467 915 l 1,12,-1
 726 915 l 2,13,14
 756 915 756 915 779.5 925 c 128,-1,15
 803 935 803 935 819 951 c 128,-1,16
 835 967 835 967 843 988 c 128,-1,17
 851 1009 851 1009 851 1030 c 0,18,19
 851 1057 851 1057 838.5 1082.5 c 128,-1,20
 826 1108 826 1108 801 1128.5 c 128,-1,21
 776 1149 776 1149 740 1161 c 128,-1,22
 704 1173 704 1173 656 1173 c 0,23,24
 581 1173 581 1173 511 1139 c 128,-1,25
 441 1105 441 1105 384 1033 c 1,26,-1
 83 1033 l 1,27,-1
 83 1450 l 1,28,29
 162 1484 162 1484 268 1513 c 1,30,31
 359 1536 359 1536 484.5 1556 c 128,-1,32
 610 1576 610 1576 771 1576 c 0,33,34
 955 1576 955 1576 1090.5 1532.5 c 128,-1,35
 1226 1489 1226 1489 1315 1418 c 128,-1,36
 1404 1347 1404 1347 1447.5 1255.5 c 128,-1,37
 1491 1164 1491 1164 1491 1067 c 0,38,39
 1491 1022 1491 1022 1483 985 c 128,-1,40
 1475 948 1475 948 1462 919 c 128,-1,41
 1449 890 1449 890 1432 867 c 128,-1,42
 1415 844 1415 844 1398 827 c 0,43,44
 1357 786 1357 786 1306 767 c 1,45,46
 1357 745 1357 745 1398 704 c 0,47,48
 1415 687 1415 687 1432 664 c 128,-1,49
 1449 641 1449 641 1462 611.5 c 128,-1,50
 1475 582 1475 582 1483 546 c 128,-1,51
 1491 510 1491 510 1491 467 c 0,52,53
 1491 370 1491 370 1447.5 279 c 128,-1,54
 1404 188 1404 188 1315 117 c 128,-1,55
 1226 46 1226 46 1090.5 3 c 128,-1,56
 955 -40 955 -40 771 -40 c 0,57,58
 610 -40 610 -40 484.5 -20.5 c 128,-1,59
 359 -1 359 -1 268 22 c 0,60,61
 165 49 165 49 83 84 c 1,62,-1
 83 501 l 1,63,-1
 384 501 l 1,64,65
 441 429 441 429 511 395 c 128,-1,66
 581 361 581 361 656 361 c 0,0,1
EndSplineSet
Validated: 19457
EndChar

StartChar: question
Encoding: 63 63 64
Width: 1392
Flags: W
HStem: -1 384<256 896> 1104 409<103.607 405.632> 1214 362<435.206 678.607>
VStem: 256 640<-1 383 512 639.503> 707 641<1010.86 1185.39>
LayerCount: 2
Fore
SplineSet
707 1087 m 0,0,1
 707 1118 707 1118 696.5 1141.5 c 128,-1,2
 686 1165 686 1165 668.5 1181 c 128,-1,3
 651 1197 651 1197 627.5 1205.5 c 128,-1,4
 604 1214 604 1214 579 1214 c 0,5,6
 522 1214 522 1214 466 1187.5 c 128,-1,7
 410 1161 410 1161 367 1104 c 1,8,-1
 66 1104 l 1,9,-1
 66 1450 l 1,10,11
 134 1485 134 1485 223 1513 c 1,12,13
 301 1536 301 1536 409 1556 c 128,-1,14
 517 1576 517 1576 658 1576 c 0,15,16
 815 1576 815 1576 942.5 1547.5 c 128,-1,17
 1070 1519 1070 1519 1160 1459 c 128,-1,18
 1250 1399 1250 1399 1299 1306.5 c 128,-1,19
 1348 1214 1348 1214 1348 1087 c 0,20,21
 1348 977 1348 977 1312.5 899.5 c 128,-1,22
 1277 822 1277 822 1215.5 769 c 128,-1,23
 1154 716 1154 716 1072 683 c 128,-1,24
 990 650 990 650 896 629 c 1,25,-1
 896 512 l 1,26,-1
 259 512 l 1,27,28
 258 511 258 511 256 511 c 1,29,-1
 256 856 l 1,30,31
 272 863 272 863 311.5 873.5 c 128,-1,32
 351 884 351 884 401 898 c 128,-1,33
 451 912 451 912 505.5 930.5 c 128,-1,34
 560 949 560 949 604.5 972 c 128,-1,35
 649 995 649 995 678 1023.5 c 128,-1,36
 707 1052 707 1052 707 1087 c 0,0,1
256 -1 m 1,37,-1
 256 383 l 1,38,-1
 896 383 l 1,39,-1
 896 -1 l 1,40,-1
 256 -1 l 1,37,-1
EndSplineSet
Validated: 19457
EndChar

StartChar: yen
Encoding: 165 165 65
Width: 2051
Flags: W
HStem: 0 21G<670 1382> 128 256<258 670 1382 1794> 512 256<258 472 1579 1794> 1102 434<69 165.768 863.267 923 1129 1188.73 1885.83 1982>
LayerCount: 2
Fore
SplineSet
258 512 m 1,0,-1
 258 768 l 1,1,-1
 472 768 l 1,2,-1
 231 1078 l 1,3,-1
 69 1102 l 1,4,-1
 69 1536 l 1,5,-1
 923 1536 l 1,6,-1
 923 1102 l 1,7,-1
 823 1078 l 1,8,-1
 1026 768 l 1,9,-1
 1229 1078 l 1,10,-1
 1129 1102 l 1,11,-1
 1129 1536 l 1,12,-1
 1982 1536 l 1,13,-1
 1982 1102 l 1,14,-1
 1821 1078 l 1,15,-1
 1579 768 l 1,16,-1
 1794 768 l 1,17,-1
 1794 512 l 1,18,-1
 1382 512 l 1,19,-1
 1382 384 l 1,20,-1
 1794 384 l 1,21,-1
 1794 128 l 1,22,-1
 1382 128 l 1,23,-1
 1382 0 l 1,24,-1
 670 0 l 1,25,-1
 670 128 l 1,26,-1
 258 128 l 1,27,-1
 258 384 l 1,28,-1
 670 384 l 1,29,-1
 670 512 l 1,30,-1
 258 512 l 1,0,-1
EndSplineSet
Validated: 19457
EndChar

StartChar: hyphen
Encoding: 45 45 66
Width: 699
Flags: W
HStem: 640 256<94 606>
VStem: 94 512<640 896>
LayerCount: 2
Fore
SplineSet
94 896 m 1,0,-1
 606 896 l 1,1,-1
 606 640 l 1,2,-1
 94 640 l 1,3,-1
 94 896 l 1,0,-1
EndSplineSet
Validated: 19457
EndChar

StartChar: Z
Encoding: 90 90 67
Width: 1429
Flags: W
HStem: 0 399<831.781 1065.62> 1152 384<443.597 651>
LayerCount: 2
Fore
SplineSet
1335 0 m 1,0,-1
 87 0 l 1,1,-1
 87 384 l 1,2,-1
 651 1152 l 1,3,4
 594 1152 594 1152 544 1140.5 c 128,-1,5
 494 1129 494 1129 451.5 1110.5 c 128,-1,6
 409 1092 409 1092 374 1069 c 128,-1,7
 339 1046 339 1046 313 1024 c 1,8,-1
 145 1024 l 1,9,-1
 145 1536 l 1,10,-1
 1335 1536 l 1,11,-1
 1335 1122 l 1,12,-1
 831 402 l 1,13,14
 856 399 856 399 880 399 c 0,15,16
 927 399 927 399 969.5 409 c 128,-1,17
 1012 419 1012 419 1048 435.5 c 128,-1,18
 1084 452 1084 452 1114 472 c 128,-1,19
 1144 492 1144 492 1167 512 c 1,20,-1
 1335 512 l 1,21,-1
 1335 0 l 1,0,-1
EndSplineSet
Validated: 19457
EndChar

StartChar: oe
Encoding: 339 339 68
Width: 2405
Flags: W
HStem: -37 465<766.25 1156.84> 0 402<1761 2025.32> 1006 402<1761 2022.43> 1014 436<764.505 1157.12>
VStem: 79 602<516.609 925.307> 1159 602<446.188 623 789 996.906>
LayerCount: 2
Fore
SplineSet
1761 1006 m 1,0,1
 1761 789 l 1,2,-1
 2037 848 l 1,3,-1
 2037 563 l 1,4,-1
 1761 623 l 1,5,-1
 1761 402 l 1,6,7
 1823 402 1823 402 1880 410.5 c 128,-1,8
 1937 419 1937 419 1986.5 434 c 128,-1,9
 2036 449 2036 449 2077 469 c 128,-1,10
 2118 489 2118 489 2148 512 c 1,11,-1
 2315 512 l 1,12,-1
 2315 0 l 1,13,-1
 1228 0 l 1,14,15
 1086 -37 1086 -37 920 -37 c 0,16,17
 803 -37 803 -37 695 -18.5 c 128,-1,18
 587 0 587 0 493.5 39.5 c 128,-1,19
 400 79 400 79 323.5 140 c 128,-1,20
 247 201 247 201 192.5 285.5 c 128,-1,21
 138 370 138 370 108.5 478.5 c 128,-1,22
 79 587 79 587 79 723 c 0,23,24
 79 919 79 919 144.5 1057.5 c 128,-1,25
 210 1196 210 1196 324 1283 c 128,-1,26
 438 1370 438 1370 591 1410 c 128,-1,27
 744 1450 744 1450 920 1450 c 0,28,29
 1100 1450 1100 1450 1255 1408 c 1,30,-1
 2315 1408 l 1,31,-1
 2315 896 l 1,32,-1
 2148 896 l 1,33,34
 2118 918 2118 918 2077 938 c 128,-1,35
 2036 958 2036 958 1986.5 973 c 128,-1,36
 1937 988 1937 988 1880 997 c 128,-1,37
 1823 1006 1823 1006 1761 1006 c 1,0,1
920 1014 m 0,38,39
 860 1014 860 1014 819 999 c 128,-1,40
 778 984 778 984 751.5 959 c 128,-1,41
 725 934 725 934 710.5 902.5 c 128,-1,42
 696 871 696 871 689.5 839 c 128,-1,43
 683 807 683 807 682 776.5 c 128,-1,44
 681 746 681 746 681 723 c 0,45,46
 681 701 681 701 682 670 c 128,-1,47
 683 639 683 639 689.5 606.5 c 128,-1,48
 696 574 696 574 710.5 542 c 128,-1,49
 725 510 725 510 751.5 484.5 c 128,-1,50
 778 459 778 459 819 443.5 c 128,-1,51
 860 428 860 428 920 428 c 0,52,53
 978 428 978 428 1022 432.5 c 128,-1,54
 1066 437 1066 437 1097 443 c 0,55,56
 1133 449 1133 449 1159 458 c 1,57,-1
 1159 987 l 1,58,59
 1145 991 1145 991 1129.5 994 c 128,-1,60
 1114 997 1114 997 1097 1000 c 0,61,62
 1066 1005 1066 1005 1022 1009.5 c 128,-1,63
 978 1014 978 1014 920 1014 c 0,38,39
EndSplineSet
Validated: 19457
EndChar

StartChar: bullet
Encoding: 8226 8226 69
Width: 909
Flags: W
HStem: 286 707<256.54 648.493>
VStem: 70 769<463.305 817.038>
LayerCount: 2
Fore
SplineSet
839 641 m 0,0,1
 839 552 839 552 806 485.5 c 128,-1,2
 773 419 773 419 718.5 375 c 128,-1,3
 664 331 664 331 594.5 308.5 c 128,-1,4
 525 286 525 286 453 286 c 256,5,6
 381 286 381 286 312 308 c 128,-1,7
 243 330 243 330 189.5 374.5 c 128,-1,8
 136 419 136 419 103 485.5 c 128,-1,9
 70 552 70 552 70 641 c 0,10,11
 70 729 70 729 103 795 c 128,-1,12
 136 861 136 861 189.5 905 c 128,-1,13
 243 949 243 949 312 971 c 128,-1,14
 381 993 381 993 453 993 c 256,15,16
 525 993 525 993 594.5 971 c 128,-1,17
 664 949 664 949 718.5 905 c 128,-1,18
 773 861 773 861 806 795 c 128,-1,19
 839 729 839 729 839 641 c 0,0,1
EndSplineSet
Validated: 19457
EndChar

StartChar: plus
Encoding: 43 43 70
Width: 1072
Flags: W
HStem: 640 256<24 408 664 1048>
VStem: 408 256<256 640 896 1280>
LayerCount: 2
Fore
SplineSet
24 640 m 1,0,-1
 24 896 l 1,1,-1
 408 896 l 1,2,-1
 408 1280 l 1,3,-1
 664 1280 l 1,4,-1
 664 896 l 1,5,-1
 1048 896 l 1,6,-1
 1048 640 l 1,7,-1
 664 640 l 1,8,-1
 664 256 l 1,9,-1
 408 256 l 1,10,-1
 408 640 l 1,11,-1
 24 640 l 1,0,-1
EndSplineSet
Validated: 19457
EndChar

StartChar: dagger
Encoding: 8224 8224 71
Width: 972
Flags: W
HStem: 960 320<38 294 678 934> 1516 20G<294 678>
VStem: 294 384<320 960 1280 1536>
LayerCount: 2
Fore
SplineSet
38 960 m 1,0,-1
 38 1280 l 1,1,-1
 294 1280 l 1,2,-1
 294 1536 l 1,3,-1
 678 1536 l 1,4,-1
 678 1280 l 1,5,-1
 934 1280 l 1,6,-1
 934 960 l 1,7,-1
 678 960 l 1,8,-1
 678 320 l 1,9,-1
 294 320 l 1,10,-1
 294 960 l 1,11,-1
 38 960 l 1,0,-1
EndSplineSet
Validated: 19457
EndChar

StartChar: daggerdbl
Encoding: 8225 8225 72
Width: 1018
Flags: W
HStem: 448 320<61 317 701 957> 960 320<61 317 701 957> 1516 20G<317 701>
VStem: 317 384<320 448 768 960 1280 1536>
LayerCount: 2
Fore
SplineSet
61 960 m 1,0,-1
 61 1280 l 1,1,-1
 317 1280 l 1,2,-1
 317 1536 l 1,3,-1
 701 1536 l 1,4,-1
 701 1280 l 1,5,-1
 957 1280 l 1,6,-1
 957 960 l 1,7,-1
 701 960 l 1,8,-1
 701 768 l 1,9,-1
 957 768 l 1,10,-1
 957 448 l 1,11,-1
 701 448 l 1,12,-1
 701 320 l 1,13,-1
 317 320 l 1,14,-1
 317 448 l 1,15,-1
 61 448 l 1,16,-1
 61 768 l 1,17,-1
 317 768 l 1,18,-1
 317 960 l 1,19,-1
 61 960 l 1,0,-1
EndSplineSet
Validated: 19457
EndChar

StartChar: six
Encoding: 54 54 73
Width: 1691
Flags: W
HStem: -40 401<776.795 1022.05> 642 321<719.143 1030.7> 1033 480<1140.34 1440.41> 1173 403<787.899 1071.08>
VStem: 1052 570<389.091 619.591>
LayerCount: 2
Fore
SplineSet
907 1173 m 0,0,1
 857 1173 857 1173 823.5 1156 c 128,-1,2
 790 1139 790 1139 768 1108.5 c 128,-1,3
 746 1078 746 1078 734.5 1034.5 c 128,-1,4
 723 991 723 991 718 938 c 1,5,6
 781 951 781 951 844.5 957 c 128,-1,7
 908 963 908 963 971 963 c 0,8,9
 1097 963 1097 963 1214.5 937 c 128,-1,10
 1332 911 1332 911 1422.5 856 c 128,-1,11
 1513 801 1513 801 1567.5 717 c 128,-1,12
 1622 633 1622 633 1622 516 c 0,13,14
 1622 372 1622 372 1575.5 267.5 c 128,-1,15
 1529 163 1529 163 1434 94.5 c 128,-1,16
 1339 26 1339 26 1194 -7 c 128,-1,17
 1049 -40 1049 -40 852 -40 c 0,18,19
 652 -40 652 -40 505 7.5 c 128,-1,20
 358 55 358 55 262 154 c 128,-1,21
 166 253 166 253 119 405.5 c 128,-1,22
 72 558 72 558 72 767 c 256,23,24
 72 976 72 976 121.5 1128.5 c 128,-1,25
 171 1281 171 1281 272.5 1380.5 c 128,-1,26
 374 1480 374 1480 528 1528 c 128,-1,27
 682 1576 682 1576 892 1576 c 0,28,29
 1030 1576 1030 1576 1137 1556 c 128,-1,30
 1244 1536 1244 1536 1322 1513 c 1,31,32
 1413 1484 1413 1484 1480 1450 c 1,33,-1
 1480 1033 l 1,34,-1
 1179 1033 l 1,35,36
 1122 1105 1122 1105 1052 1139 c 128,-1,37
 982 1173 982 1173 907 1173 c 0,0,1
887 642 m 0,38,39
 790 642 790 642 716 626 c 1,40,41
 722 545 722 545 735.5 493.5 c 128,-1,42
 749 442 749 442 769.5 412.5 c 128,-1,43
 790 383 790 383 817 372 c 128,-1,44
 844 361 844 361 877 361 c 0,45,46
 919 361 919 361 952 366.5 c 128,-1,47
 985 372 985 372 1007 388.5 c 128,-1,48
 1029 405 1029 405 1040.5 435.5 c 128,-1,49
 1052 466 1052 466 1052 516 c 0,50,51
 1052 556 1052 556 1041 581 c 128,-1,52
 1030 606 1030 606 1009 619.5 c 128,-1,53
 988 633 988 633 957 637.5 c 128,-1,54
 926 642 926 642 887 642 c 0,38,39
EndSplineSet
Validated: 19457
EndChar

StartChar: nine
Encoding: 57 57 74
Width: 1691
Flags: W
HStem: -40 403<619.917 903.069> 23 480<248.287 550.663> 573 321<660.074 971.857> 1175 401<668.953 914.205>
VStem: 69 570<916.409 1146.91>
LayerCount: 2
Fore
SplineSet
784 363 m 0,0,1
 833 363 833 363 867 380 c 128,-1,2
 901 397 901 397 923 427.5 c 128,-1,3
 945 458 945 458 956.5 501.5 c 128,-1,4
 968 545 968 545 973 598 c 1,5,6
 910 585 910 585 846.5 579 c 128,-1,7
 783 573 783 573 720 573 c 0,8,9
 594 573 594 573 476.5 599 c 128,-1,10
 359 625 359 625 268.5 680 c 128,-1,11
 178 735 178 735 123.5 819 c 128,-1,12
 69 903 69 903 69 1020 c 0,13,14
 69 1164 69 1164 115.5 1268.5 c 128,-1,15
 162 1373 162 1373 257 1441.5 c 128,-1,16
 352 1510 352 1510 497 1543 c 128,-1,17
 642 1576 642 1576 839 1576 c 0,18,19
 1039 1576 1039 1576 1186 1528.5 c 128,-1,20
 1333 1481 1333 1481 1429 1382 c 128,-1,21
 1525 1283 1525 1283 1572 1130.5 c 128,-1,22
 1619 978 1619 978 1619 769 c 256,23,24
 1619 560 1619 560 1569.5 407.5 c 128,-1,25
 1520 255 1520 255 1418.5 155.5 c 128,-1,26
 1317 56 1317 56 1163 8 c 128,-1,27
 1009 -40 1009 -40 799 -40 c 0,28,29
 661 -40 661 -40 554 -20.5 c 128,-1,30
 447 -1 447 -1 369 23 c 0,31,32
 278 50 278 50 211 86 c 1,33,-1
 211 503 l 1,34,-1
 512 503 l 1,35,36
 569 431 569 431 639 397 c 128,-1,37
 709 363 709 363 784 363 c 0,0,1
804 894 m 0,38,39
 901 894 901 894 975 910 c 1,40,41
 969 991 969 991 955.5 1042.5 c 128,-1,42
 942 1094 942 1094 921.5 1123.5 c 128,-1,43
 901 1153 901 1153 874 1164 c 128,-1,44
 847 1175 847 1175 814 1175 c 0,45,46
 772 1175 772 1175 739 1169.5 c 128,-1,47
 706 1164 706 1164 684 1147.5 c 128,-1,48
 662 1131 662 1131 650.5 1100.5 c 128,-1,49
 639 1070 639 1070 639 1020 c 0,50,51
 639 979 639 979 650 954.5 c 128,-1,52
 661 930 661 930 682 916.5 c 128,-1,53
 703 903 703 903 734 898.5 c 128,-1,54
 765 894 765 894 804 894 c 0,38,39
EndSplineSet
Validated: 19457
EndChar

StartChar: seven
Encoding: 55 55 75
Width: 1284
Flags: W
HStem: -1 21G<187 860.5> 1152 384<386.445 611>
LayerCount: 2
Fore
SplineSet
846 -1 m 1,0,1
 187 -1 l 1,2,3
 253 286 253 286 327 503.5 c 128,-1,4
 401 721 401 721 465 864 c 0,5,6
 502 949 502 949 538.5 1020.5 c 128,-1,7
 575 1092 575 1092 611 1152 c 1,8,9
 549 1152 549 1152 495 1140.5 c 128,-1,10
 441 1129 441 1129 395 1110.5 c 128,-1,11
 349 1092 349 1092 311 1069 c 128,-1,12
 273 1046 273 1046 244 1024 c 1,13,-1
 77 1024 l 1,14,-1
 77 1536 l 1,15,-1
 1229 1536 l 1,16,-1
 1229 1152 l 1,17,18
 1196 1075 1196 1075 1163 991.5 c 128,-1,19
 1130 908 1130 908 1096 816 c 0,20,21
 1067 738 1067 738 1035 645.5 c 128,-1,22
 1003 553 1003 553 971 449.5 c 128,-1,23
 939 346 939 346 907 232.5 c 128,-1,24
 875 119 875 119 846 -1 c 1,0,1
EndSplineSet
Validated: 19457
EndChar

StartChar: Euro
Encoding: 8364 8364 76
Width: 1692
Flags: W
HStem: -40 475<909.238 1356.01> 571 166<67 184 821 1067> 835 166<67 184 829 1067> 1143 433<923.058 1195.21>
LayerCount: 2
Fore
SplineSet
67 1001 m 1,0,-1
 202 1001 l 1,1,2
 230 1150 230 1150 297 1258.5 c 128,-1,3
 364 1367 364 1367 465.5 1437.5 c 128,-1,4
 567 1508 567 1508 699 1542 c 128,-1,5
 831 1576 831 1576 988 1576 c 0,6,7
 1126 1576 1126 1576 1231.5 1556 c 128,-1,8
 1337 1536 1337 1536 1414 1513 c 0,9,10
 1507 1485 1507 1485 1580 1450 c 1,11,-1
 1580 973 l 1,12,-1
 1299 973 l 1,13,14
 1251 1061 1251 1061 1190.5 1102 c 128,-1,15
 1130 1143 1130 1143 1067 1143 c 0,16,17
 998 1143 998 1143 934.5 1106.5 c 128,-1,18
 871 1070 871 1070 829 1001 c 1,19,-1
 1067 1001 l 1,20,-1
 1067 835 l 1,21,-1
 776 835 l 1,22,23
 775 823 775 823 774.5 811 c 128,-1,24
 774 799 774 799 774 786 c 256,25,26
 774 773 774 773 774.5 760.5 c 128,-1,27
 775 748 775 748 776 737 c 1,28,-1
 1067 737 l 1,29,-1
 1067 571 l 1,30,-1
 821 571 l 1,31,32
 861 500 861 500 932.5 467.5 c 128,-1,33
 1004 435 1004 435 1105 435 c 0,34,35
 1193 435 1193 435 1314.5 464 c 128,-1,36
 1436 493 1436 493 1580 552 c 1,37,-1
 1580 71 l 1,38,39
 1428 17 1428 17 1281.5 -11.5 c 128,-1,40
 1135 -40 1135 -40 996 -40 c 0,41,42
 848 -40 848 -40 717 -3 c 128,-1,43
 586 34 586 34 481.5 110 c 128,-1,44
 377 186 377 186 304.5 300.5 c 128,-1,45
 232 415 232 415 202 571 c 1,46,-1
 67 571 l 1,47,-1
 67 737 l 1,48,-1
 184 737 l 1,49,50
 183 749 183 749 183 761 c 128,-1,51
 183 773 183 773 183 786 c 0,52,53
 183 798 183 798 183 810.5 c 128,-1,54
 183 823 183 823 184 835 c 1,55,-1
 67 835 l 1,56,-1
 67 1001 l 1,0,-1
EndSplineSet
Validated: 19457
EndChar

StartChar: dotlessi
Encoding: 305 305 77
Width: 1034
Flags: W
HStem: 0 21G<96 938> 1388 20G<96 938> 1388 20G<96 938>
VStem: 96 842<0 399 1014 1408> 216 602<422 991>
LayerCount: 2
Fore
SplineSet
96 1014 m 1,0,-1
 96 1408 l 1,1,-1
 938 1408 l 1,2,-1
 938 1014 l 1,3,-1
 818 991 l 1,4,-1
 818 422 l 1,5,-1
 938 399 l 1,6,-1
 938 0 l 1,7,-1
 96 0 l 1,8,-1
 96 399 l 1,9,-1
 216 422 l 1,10,-1
 216 991 l 1,11,-1
 96 1014 l 1,0,-1
EndSplineSet
Validated: 19457
EndChar

StartChar: sterling
Encoding: 163 163 78
Width: 1503
Flags: W
HStem: 0 344<745 1036.21> 606 226<107 246 805 1131> 1113 463<793.11 1030.66>
VStem: 114 636<963.586 1162.15>
LayerCount: 2
Fore
SplineSet
107 606 m 1,0,-1
 107 832 l 1,1,-1
 254 832 l 1,2,3
 114 1008 114 1008 114 1164 c 0,4,5
 114 1253 114 1253 161 1328.5 c 128,-1,6
 208 1404 208 1404 303 1459 c 128,-1,7
 398 1514 398 1514 541 1545 c 128,-1,8
 684 1576 684 1576 876 1576 c 0,9,10
 997 1576 997 1576 1091.5 1556 c 128,-1,11
 1186 1536 1186 1536 1252 1513 c 1,12,13
 1328 1484 1328 1484 1387 1450 c 1,14,-1
 1387 973 l 1,15,-1
 1087 973 l 1,16,17
 1078 1011 1078 1011 1059 1037.5 c 128,-1,18
 1040 1064 1040 1064 1015 1081 c 128,-1,19
 990 1098 990 1098 960 1105.5 c 128,-1,20
 930 1113 930 1113 899 1113 c 0,21,22
 872 1113 872 1113 845 1102 c 128,-1,23
 818 1091 818 1091 797 1073 c 128,-1,24
 776 1055 776 1055 763 1031 c 128,-1,25
 750 1007 750 1007 750 980 c 0,26,27
 750 945 750 945 765 907.5 c 128,-1,28
 780 870 780 870 807 832 c 1,29,-1
 1131 832 l 1,30,-1
 1131 606 l 1,31,-1
 805 606 l 1,32,-1
 745 344 l 1,33,34
 821 344 821 344 891.5 355.5 c 128,-1,35
 962 367 962 367 1023 385 c 128,-1,36
 1084 403 1084 403 1134 426 c 128,-1,37
 1184 449 1184 449 1220 472 c 1,38,-1
 1387 472 l 1,39,-1
 1387 0 l 1,40,-1
 107 0 l 1,41,-1
 107 434 l 1,42,43
 114 445 114 445 128.5 464 c 128,-1,44
 143 483 143 483 162 506 c 128,-1,45
 181 529 181 529 202.5 554.5 c 128,-1,46
 224 580 224 580 246 606 c 1,47,-1
 107 606 l 1,0,-1
EndSplineSet
Validated: 19457
EndChar

StartChar: dollar
Encoding: 36 36 79
Width: 1424
Flags: W
HStem: 33 461<76.4775 378.085> 1043 455<1062.79 1338.68> 1183 737<700.033 899.031>
VStem: 581 320<-385 -32.8955 1563.71 1920>
LayerCount: 2
Fore
SplineSet
581 -385 m 1,0,-1
 581 -36 l 1,1,2
 455 -28 455 -28 360 -8 c 128,-1,3
 265 12 265 12 196 33 c 1,4,5
 118 58 118 58 57 87 c 1,6,-1
 57 494 l 1,7,-1
 358 494 l 1,8,9
 410 422 410 422 475.5 388 c 128,-1,10
 541 354 541 354 610 354 c 0,11,12
 628 354 628 354 650 357 c 128,-1,13
 672 360 672 360 691.5 374 c 128,-1,14
 711 388 711 388 724.5 418 c 128,-1,15
 738 448 738 448 738 502 c 1,16,17
 652 510 652 510 567.5 525 c 128,-1,18
 483 540 483 540 406 566 c 128,-1,19
 329 592 329 592 262.5 631.5 c 128,-1,20
 196 671 196 671 147.5 727 c 128,-1,21
 99 783 99 783 71.5 858.5 c 128,-1,22
 44 934 44 934 44 1033 c 0,23,24
 44 1177 44 1177 88.5 1274.5 c 128,-1,25
 133 1372 133 1372 207.5 1434 c 128,-1,26
 282 1496 282 1496 379 1527 c 128,-1,27
 476 1558 476 1558 581 1569 c 1,28,-1
 581 1920 l 1,29,-1
 901 1920 l 1,30,-1
 901 1567 l 1,31,32
 1007 1556 1007 1556 1089 1537 c 128,-1,33
 1171 1518 1171 1518 1228 1498 c 0,34,35
 1295 1475 1295 1475 1345 1450 c 1,36,-1
 1345 1043 l 1,37,-1
 1044 1043 l 1,38,39
 993 1115 993 1115 930.5 1149 c 128,-1,40
 868 1183 868 1183 802 1183 c 0,41,42
 784 1183 784 1183 761 1178.5 c 128,-1,43
 738 1174 738 1174 718 1157.5 c 128,-1,44
 698 1141 698 1141 684 1109.5 c 128,-1,45
 670 1078 670 1078 670 1024 c 1,46,47
 845 1018 845 1018 978 986 c 128,-1,48
 1111 954 1111 954 1199.5 889.5 c 128,-1,49
 1288 825 1288 825 1333 724.5 c 128,-1,50
 1378 624 1378 624 1378 482 c 0,51,52
 1378 359 1378 359 1339.5 271 c 128,-1,53
 1301 183 1301 183 1235.5 123 c 128,-1,54
 1170 63 1170 63 1083.5 28.5 c 128,-1,55
 997 -6 997 -6 901 -22 c 1,56,-1
 901 -385 l 1,57,-1
 581 -385 l 1,0,-1
EndSplineSet
Validated: 19457
EndChar

StartChar: fraction
Encoding: 8260 8260 80
Width: 1111
Flags: W
HStem: 0 21G<44 689> 1516 20G<423 1068>
LayerCount: 2
Fore
SplineSet
44 0 m 1,0,-1
 428 1536 l 1,1,-1
 1068 1536 l 1,2,-1
 684 0 l 1,3,-1
 44 0 l 1,0,-1
EndSplineSet
Validated: 19457
EndChar

StartChar: five
Encoding: 53 53 81
Width: 1490
Flags: W
HStem: -39 382<492.959 816.238> 32.5 449.5<111.409 416.158> 659 313<567.688 805.32> 1042 494<958.637 1312> 1151 385<581 926.48>
VStem: 850 570<376.97 613.979>
LayerCount: 2
Fore
SplineSet
651 343 m 0,0,1
 698 343 698 343 735 348.5 c 128,-1,2
 772 354 772 354 797.5 371 c 128,-1,3
 823 388 823 388 836.5 420.5 c 128,-1,4
 850 453 850 453 850 506 c 0,5,6
 850 549 850 549 834 578.5 c 128,-1,7
 818 608 818 608 789.5 626 c 128,-1,8
 761 644 761 644 722 651.5 c 128,-1,9
 683 659 683 659 637 659 c 0,10,11
 589 659 589 659 536 654 c 128,-1,12
 483 649 483 649 428 640 c 128,-1,13
 373 631 373 631 319 619 c 128,-1,14
 265 607 265 607 216 594 c 1,15,-1
 90 738 l 1,16,-1
 90 1536 l 1,17,-1
 1312 1536 l 1,18,-1
 1312 1042 l 1,19,-1
 1011 1042 l 1,20,21
 954 1099 954 1099 884 1125.5 c 128,-1,22
 814 1152 814 1152 739 1152 c 0,23,24
 715 1152 715 1152 687 1151.5 c 128,-1,25
 659 1151 659 1151 636 1151 c 1,26,27
 622 1150 622 1150 608.5 1150 c 128,-1,28
 595 1150 595 1150 581 1150 c 1,29,-1
 566 927 l 1,30,31
 620 950 620 950 677.5 961 c 128,-1,32
 735 972 735 972 789 972 c 0,33,34
 870 972 870 972 948.5 960.5 c 128,-1,35
 1027 949 1027 949 1097.5 924.5 c 128,-1,36
 1168 900 1168 900 1227 863 c 128,-1,37
 1286 826 1286 826 1329 775.5 c 128,-1,38
 1372 725 1372 725 1396 660 c 128,-1,39
 1420 595 1420 595 1420 516 c 0,40,41
 1420 416 1420 416 1393 336 c 128,-1,42
 1366 256 1366 256 1317.5 194.5 c 128,-1,43
 1269 133 1269 133 1202 89 c 128,-1,44
 1135 45 1135 45 1055 16.5 c 128,-1,45
 975 -12 975 -12 884.5 -25.5 c 128,-1,46
 794 -39 794 -39 699 -39 c 0,47,48
 622 -39 622 -39 542.5 -30.5 c 128,-1,49
 463 -22 463 -22 385 -6.5 c 128,-1,50
 307 9 307 9 232.5 32.5 c 128,-1,51
 158 56 158 56 90 86 c 1,52,-1
 90 482 l 1,53,-1
 389 482 l 1,54,55
 446 410 446 410 511 376.5 c 128,-1,56
 576 343 576 343 651 343 c 0,0,1
EndSplineSet
Validated: 19457
EndChar

StartChar: quoteright
Encoding: 8217 8217 82
Width: 788
Flags: W
HStem: 1516 20G<72 712>
VStem: 72 640<1024 1536>
LayerCount: 2
Fore
SplineSet
72 1024 m 1,0,-1
 72 1536 l 1,1,-1
 712 1536 l 1,2,-1
 712 1025 l 2,3,4
 712 898 712 898 668 811.5 c 128,-1,5
 624 725 624 725 552 671.5 c 128,-1,6
 480 618 480 618 388 595 c 128,-1,7
 296 572 296 572 200 572 c 1,8,9
 200 896 l 1,10,11
 217 897 217 897 233 901 c 128,-1,12
 249 905 249 905 263 912 c 0,13,14
 287 924 287 924 307 950 c 128,-1,15
 327 976 327 976 327 1024 c 1,16,-1
 72 1024 l 1,0,-1
EndSplineSet
Validated: 19457
EndChar

StartChar: quoteleft
Encoding: 8216 8216 83
Width: 791
Flags: W
HStem: 1556 20G<542 590>
VStem: 78 640<640 1152>
LayerCount: 2
Fore
SplineSet
718 1152 m 1,0,-1
 718 640 l 1,1,-1
 78 640 l 1,2,-1
 78 1151 l 2,3,4
 78 1269 78 1269 122 1350.5 c 128,-1,5
 166 1432 166 1432 238 1482 c 128,-1,6
 310 1532 310 1532 402 1554 c 128,-1,7
 494 1576 494 1576 590 1576 c 1,8,9
 590 1280 l 1,10,11
 572 1279 572 1279 556 1275 c 128,-1,12
 540 1271 540 1271 526 1264 c 0,13,14
 502 1252 502 1252 482.5 1226 c 128,-1,15
 463 1200 463 1200 463 1152 c 1,16,-1
 718 1152 l 1,0,-1
EndSplineSet
Validated: 19457
EndChar

StartChar: quotedblleft
Encoding: 8220 8220 84
Width: 1581
Flags: W
HStem: 640 512<473 728 1241 1496> 1280 296<502.063 600 1270.06 1368>
VStem: 88 640<640 1152> 856 640<640 1152>
LayerCount: 2
Fore
SplineSet
1496 1152 m 1,0,-1
 1496 640 l 1,1,-1
 856 640 l 1,2,-1
 856 1151 l 2,3,4
 856 1269 856 1269 900 1350.5 c 128,-1,5
 944 1432 944 1432 1016 1482 c 128,-1,6
 1088 1532 1088 1532 1180 1554 c 128,-1,7
 1272 1576 1272 1576 1368 1576 c 1,8,9
 1368 1280 l 1,10,11
 1350 1279 1350 1279 1334 1275 c 128,-1,12
 1318 1271 1318 1271 1304 1264 c 0,13,14
 1280 1252 1280 1252 1260.5 1226 c 128,-1,15
 1241 1200 1241 1200 1241 1152 c 1,16,-1
 1496 1152 l 1,0,-1
728 1152 m 1,17,-1
 728 640 l 1,18,-1
 88 640 l 1,19,-1
 88 1151 l 2,20,21
 88 1269 88 1269 132 1350.5 c 128,-1,22
 176 1432 176 1432 248 1482 c 128,-1,23
 320 1532 320 1532 412 1554 c 128,-1,24
 504 1576 504 1576 600 1576 c 1,25,-1
 600 1280 l 1,26,27
 582 1279 582 1279 566 1275 c 128,-1,28
 550 1271 550 1271 536 1264 c 0,29,30
 512 1252 512 1252 492.5 1226 c 128,-1,31
 473 1200 473 1200 473 1152 c 1,32,-1
 728 1152 l 1,17,-1
EndSplineSet
Validated: 19457
EndChar

StartChar: quotedblright
Encoding: 8221 8221 85
Width: 1578
Flags: W
HStem: 572 324<212 309.937 980 1077.94> 1024 512<84 339 852 1107>
VStem: 84 640<1024 1536> 852 640<1024 1536>
LayerCount: 2
Fore
SplineSet
852 1024 m 1,0,-1
 852 1536 l 1,1,-1
 1492 1536 l 1,2,-1
 1492 1025 l 2,3,4
 1492 898 1492 898 1448 811.5 c 128,-1,5
 1404 725 1404 725 1332 671.5 c 128,-1,6
 1260 618 1260 618 1168 595 c 128,-1,7
 1076 572 1076 572 980 572 c 1,8,9
 980 896 l 1,10,11
 997 897 997 897 1013 901 c 128,-1,12
 1029 905 1029 905 1043 912 c 0,13,14
 1067 924 1067 924 1087 950 c 128,-1,15
 1107 976 1107 976 1107 1024 c 1,16,-1
 852 1024 l 1,0,-1
84 1024 m 1,17,-1
 84 1536 l 1,18,-1
 724 1536 l 1,19,-1
 724 1025 l 2,20,21
 724 898 724 898 680 811.5 c 128,-1,22
 636 725 636 725 564 671.5 c 128,-1,23
 492 618 492 618 400 595 c 128,-1,24
 308 572 308 572 212 572 c 1,25,-1
 212 896 l 1,26,27
 229 897 229 897 245 901 c 128,-1,28
 261 905 261 905 275 912 c 0,29,30
 299 924 299 924 319 950 c 128,-1,31
 339 976 339 976 339 1024 c 1,32,-1
 84 1024 l 1,17,-1
EndSplineSet
Validated: 19457
EndChar

StartChar: bar
Encoding: 124 124 86
Width: 702
Flags: W
VStem: 95 513<-128 1664>
LayerCount: 2
Fore
SplineSet
95 -128 m 1,0,-1
 95 1664 l 1,1,-1
 608 1664 l 1,2,-1
 608 -128 l 1,3,-1
 95 -128 l 1,0,-1
EndSplineSet
Validated: 19457
EndChar

StartChar: brokenbar
Encoding: 166 166 87
Width: 702
Flags: W
VStem: 95 513<-128 704 896 1664>
LayerCount: 2
Fore
SplineSet
95 896 m 1,0,-1
 95 1664 l 1,1,-1
 608 1664 l 1,2,-1
 608 896 l 1,3,-1
 95 896 l 1,0,-1
95 -128 m 1,4,-1
 95 704 l 1,5,-1
 608 704 l 1,6,-1
 608 -128 l 1,7,-1
 95 -128 l 1,4,-1
EndSplineSet
Validated: 19457
EndChar

StartChar: cent
Encoding: 162 162 88
Width: 1491
Flags: W
HStem: -258 677<766.691 1043.93> 1024 640<773.75 1042.99>
VStem: 44 603<535.789 891.321> 659 385<-258 -19.2476 1432.49 1664>
LayerCount: 2
Fore
SplineSet
659 -258 m 1,0,-1
 659 -21 l 1,1,2
 524 2 524 2 411.5 59 c 128,-1,3
 299 116 299 116 217 208.5 c 128,-1,4
 135 301 135 301 89.5 429.5 c 128,-1,5
 44 558 44 558 44 723 c 0,6,7
 44 887 44 887 87 1011.5 c 128,-1,8
 130 1136 130 1136 209.5 1224 c 128,-1,9
 289 1312 289 1312 403 1364.5 c 128,-1,10
 517 1417 517 1417 659 1437 c 1,11,-1
 659 1664 l 1,12,-1
 1044 1664 l 1,13,-1
 1044 1438 l 1,14,15
 1137 1427 1137 1427 1208 1409.5 c 128,-1,16
 1279 1392 1279 1392 1330 1375 c 0,17,18
 1359 1365 1359 1365 1384.5 1355 c 128,-1,19
 1410 1345 1410 1345 1432 1334 c 1,20,-1
 1432 895 l 1,21,-1
 1149 895 l 1,22,23
 1101 961 1101 961 1043 992.5 c 128,-1,24
 985 1024 985 1024 922 1024 c 0,25,26
 870 1024 870 1024 820.5 1004 c 128,-1,27
 771 984 771 984 732.5 945.5 c 128,-1,28
 694 907 694 907 670.5 851 c 128,-1,29
 647 795 647 795 647 723 c 0,30,31
 647 564 647 564 728 491.5 c 128,-1,32
 809 419 809 419 958 419 c 0,33,34
 1045 419 1045 419 1166.5 441 c 128,-1,35
 1288 463 1288 463 1432 508 c 1,36,-1
 1432 65 l 1,37,38
 1234 -1 1234 -1 1044 -25 c 1,39,-1
 1044 -258 l 1,40,-1
 659 -258 l 1,0,-1
EndSplineSet
Validated: 19457
EndChar

StartChar: paragraph
Encoding: 182 182 89
Width: 1683
Flags: W
HStem: 0 21G<452 956 1084 1588> 1388 20G<692.5 1588> 1388 20G<692.5 1588>
VStem: 452 504<0 399> 1084 504<0 399> 1084 384<422 896>
LayerCount: 2
Fore
SplineSet
1588 1408 m 1,0,-1
 1588 1014 l 1,1,-1
 1468 991 l 1,2,-1
 1468 422 l 1,3,-1
 1588 399 l 1,4,-1
 1588 0 l 1,5,-1
 1084 0 l 1,6,-1
 1084 896 l 1,7,-1
 956 896 l 1,8,-1
 956 0 l 1,9,-1
 452 0 l 1,10,-1
 452 399 l 1,11,-1
 572 422 l 1,12,-1
 572 543 l 1,13,14
 461 543 461 543 380 557 c 128,-1,15
 299 571 299 571 242 597.5 c 128,-1,16
 185 624 185 624 149 662.5 c 128,-1,17
 113 701 113 701 93 749.5 c 128,-1,18
 73 798 73 798 66 856 c 128,-1,19
 59 914 59 914 59 980 c 0,20,21
 59 1044 59 1044 69 1100.5 c 128,-1,22
 79 1157 79 1157 107 1204.5 c 128,-1,23
 135 1252 135 1252 184.5 1290 c 128,-1,24
 234 1328 234 1328 312.5 1354 c 128,-1,25
 391 1380 391 1380 503.5 1394 c 128,-1,26
 616 1408 616 1408 769 1408 c 2,27,-1
 1588 1408 l 1,0,-1
EndSplineSet
Validated: 19457
EndChar

StartChar: mu
Encoding: 181 181 90
Width: 1851
Flags: W
HStem: -38 466<826.495 1140.14> 1014 394<84 158.797 790.203 865 1106 1180.8 1724.58 1800>
VStem: 204 542<497.312 991> 1226 452<518.464 991>
LayerCount: 2
Fore
SplineSet
204 -255 m 1,0,-1
 204 991 l 1,1,-1
 84 1014 l 1,2,-1
 84 1408 l 1,3,-1
 865 1408 l 1,4,-1
 865 1014 l 1,5,-1
 745 991 l 1,6,-1
 746 541 l 1,7,8
 771 510 771 510 808 484 c 0,9,10
 838 463 838 463 882.5 445.5 c 128,-1,11
 927 428 927 428 985 428 c 0,12,13
 1045 428 1045 428 1086.5 443.5 c 128,-1,14
 1128 459 1128 459 1154.5 484.5 c 128,-1,15
 1181 510 1181 510 1196 542 c 128,-1,16
 1211 574 1211 574 1217.5 606.5 c 128,-1,17
 1224 639 1224 639 1225.5 669.5 c 128,-1,18
 1227 700 1227 700 1227 723 c 0,19,20
 1227 730 1227 730 1227 745.5 c 128,-1,21
 1227 761 1227 761 1226.5 781.5 c 128,-1,22
 1226 802 1226 802 1226 825.5 c 128,-1,23
 1226 849 1226 849 1226 872 c 2,24,-1
 1226 991 l 1,25,-1
 1106 1014 l 1,26,-1
 1106 1408 l 1,27,-1
 1800 1408 l 1,28,-1
 1800 1014 l 1,29,-1
 1679 991 l 1,30,31
 1678 961 1678 961 1678 932.5 c 128,-1,32
 1678 904 1678 904 1678 878 c 2,33,-1
 1678 723 l 2,34,35
 1678 520 1678 520 1626.5 375.5 c 128,-1,36
 1575 231 1575 231 1486 139 c 128,-1,37
 1397 47 1397 47 1278.5 4.5 c 128,-1,38
 1160 -38 1160 -38 1025 -38 c 0,39,40
 940 -38 940 -38 864.5 -17.5 c 128,-1,41
 789 3 789 3 717 46 c 1,42,-1
 717 -255 l 1,43,-1
 204 -255 l 1,0,-1
EndSplineSet
Validated: 19457
EndChar

StartChar: bracketleft
Encoding: 91 91 91
Width: 1215
Flags: W
HStem: 0 316<735 1042.82> 1219 317<735 1042.82>
VStem: 95 640<316 1219>
LayerCount: 2
Fore
SplineSet
95 0 m 1,0,-1
 95 1536 l 1,1,-1
 1120 1536 l 1,2,-1
 1120 1151 l 1,3,4
 1091 1161 1091 1161 1061.5 1169 c 128,-1,5
 1032 1177 1032 1177 1000 1185 c 0,6,7
 946 1198 946 1198 876.5 1208.5 c 128,-1,8
 807 1219 807 1219 735 1219 c 1,9,10
 735 316 l 1,11,12
 807 316 807 316 876.5 326.5 c 128,-1,13
 946 337 946 337 1000 350 c 0,14,15
 1032 358 1032 358 1061.5 366 c 128,-1,16
 1091 374 1091 374 1120 384 c 1,17,-1
 1120 0 l 1,18,-1
 95 0 l 1,0,-1
EndSplineSet
Validated: 19457
EndChar

StartChar: bracketright
Encoding: 93 93 92
Width: 1215
Flags: W
HStem: 0 316<172.182 480> 1219 317<172.182 480>
VStem: 480 640<316 1219>
LayerCount: 2
Fore
SplineSet
1120 1536 m 1,0,-1
 1120 0 l 1,1,-1
 95 0 l 1,2,-1
 95 384 l 1,3,4
 124 374 124 374 153.5 366 c 128,-1,5
 183 358 183 358 215 350 c 0,6,7
 269 337 269 337 338 326.5 c 128,-1,8
 407 316 407 316 480 316 c 1,9,10
 480 1219 l 1,11,12
 407 1219 407 1219 338 1208.5 c 128,-1,13
 269 1198 269 1198 215 1185 c 0,14,15
 183 1177 183 1177 153.5 1169 c 128,-1,16
 124 1161 124 1161 95 1151 c 1,17,-1
 95 1536 l 1,18,-1
 1120 1536 l 1,0,-1
EndSplineSet
Validated: 19457
EndChar

StartChar: backslash
Encoding: 92 92 93
Width: 1110
Flags: W
HStem: 0 21G<422 1067> 1516 20G<43 688>
LayerCount: 2
Fore
SplineSet
683 1536 m 1,0,-1
 1067 0 l 1,1,-1
 427 0 l 1,2,-1
 43 1536 l 1,3,-1
 683 1536 l 1,0,-1
EndSplineSet
Validated: 19457
EndChar

StartChar: numbersign
Encoding: 35 35 94
Width: 1540
Flags: W
HStem: 0 21G<134 521.281 774 1161.28> 256 384<70 176 624 816 1264 1417> 896 384<125 283 731 923 1371 1469> 1516 20G<386.641 774 1026.64 1414>
LayerCount: 2
Fore
SplineSet
774 0 m 1,0,-1
 816 256 l 1,1,-1
 560 256 l 1,2,-1
 518 0 l 1,3,-1
 134 0 l 1,4,-1
 176 256 l 1,5,-1
 70 256 l 1,6,-1
 70 640 l 1,7,-1
 240 640 l 1,8,-1
 283 896 l 1,9,-1
 125 896 l 1,10,-1
 125 1280 l 1,11,-1
 347 1280 l 1,12,-1
 390 1536 l 1,13,-1
 774 1536 l 1,14,-1
 731 1280 l 1,15,-1
 987 1280 l 1,16,-1
 1030 1536 l 1,17,-1
 1414 1536 l 1,18,-1
 1371 1280 l 1,19,-1
 1469 1280 l 1,20,-1
 1469 896 l 1,21,-1
 1307 896 l 1,22,-1
 1264 640 l 1,23,-1
 1417 640 l 1,24,-1
 1417 256 l 1,25,-1
 1200 256 l 1,26,-1
 1158 0 l 1,27,-1
 774 0 l 1,0,-1
667 896 m 1,28,-1
 624 640 l 1,29,-1
 880 640 l 1,30,-1
 923 896 l 1,31,-1
 667 896 l 1,28,-1
EndSplineSet
Validated: 19457
EndChar

StartChar: parenleft
Encoding: 40 40 95
Width: 1086
Flags: W
HStem: -41 372<828.805 991.314> 1205 372<830.213 991.314>
VStem: 52 608<528.328 1007.59>
LayerCount: 2
Fore
SplineSet
52 768 m 256,0,1
 52 869 52 869 72.5 968 c 128,-1,2
 93 1067 93 1067 134.5 1157 c 128,-1,3
 176 1247 176 1247 238 1324 c 128,-1,4
 300 1401 300 1401 382.5 1457 c 128,-1,5
 465 1513 465 1513 568 1545 c 128,-1,6
 671 1577 671 1577 795 1577 c 0,7,8
 843 1577 843 1577 891 1572.5 c 128,-1,9
 939 1568 939 1568 993 1557 c 1,10,-1
 993 1205 l 1,11,12
 924 1203 924 1203 872.5 1181.5 c 128,-1,13
 821 1160 821 1160 784 1125 c 128,-1,14
 747 1090 747 1090 723 1045.5 c 128,-1,15
 699 1001 699 1001 685 953 c 128,-1,16
 671 905 671 905 665.5 857 c 128,-1,17
 660 809 660 809 660 768 c 256,18,19
 660 727 660 727 665.5 679 c 128,-1,20
 671 631 671 631 685 583 c 128,-1,21
 699 535 699 535 723 490 c 128,-1,22
 747 445 747 445 784 410 c 128,-1,23
 821 375 821 375 872.5 353.5 c 128,-1,24
 924 332 924 332 993 331 c 1,25,-1
 993 -21 l 1,26,27
 939 -32 939 -32 891 -36.5 c 128,-1,28
 843 -41 843 -41 795 -41 c 0,29,30
 671 -41 671 -41 568 -9 c 128,-1,31
 465 23 465 23 382.5 79 c 128,-1,32
 300 135 300 135 238 212 c 128,-1,33
 176 289 176 289 134.5 379 c 128,-1,34
 93 469 93 469 72.5 568 c 128,-1,35
 52 667 52 667 52 768 c 256,0,1
EndSplineSet
Validated: 19457
EndChar

StartChar: parenright
Encoding: 41 41 96
Width: 1086
Flags: W
HStem: -41 372<94.686 255.787> 1205 372<94.686 255.787>
VStem: 426 608<528.411 1007.59>
LayerCount: 2
Fore
SplineSet
1034 768 m 256,0,1
 1034 667 1034 667 1013.5 568 c 128,-1,2
 993 469 993 469 951.5 379 c 128,-1,3
 910 289 910 289 848 212 c 128,-1,4
 786 135 786 135 703.5 79 c 128,-1,5
 621 23 621 23 518 -9 c 128,-1,6
 415 -41 415 -41 291 -41 c 0,7,8
 243 -41 243 -41 195 -36.5 c 128,-1,9
 147 -32 147 -32 93 -21 c 1,10,-1
 93 331 l 1,11,12
 162 333 162 333 213.5 354.5 c 128,-1,13
 265 376 265 376 302 411 c 128,-1,14
 339 446 339 446 363 490.5 c 128,-1,15
 387 535 387 535 401 583 c 128,-1,16
 415 631 415 631 420.5 678.5 c 128,-1,17
 426 726 426 726 426 768 c 256,18,19
 426 810 426 810 420.5 857.5 c 128,-1,20
 415 905 415 905 401 953 c 128,-1,21
 387 1001 387 1001 363 1045.5 c 128,-1,22
 339 1090 339 1090 302 1125 c 128,-1,23
 265 1160 265 1160 213.5 1181.5 c 128,-1,24
 162 1203 162 1203 93 1205 c 1,25,-1
 93 1557 l 1,26,27
 147 1568 147 1568 195 1572.5 c 128,-1,28
 243 1577 243 1577 291 1577 c 0,29,30
 415 1577 415 1577 518 1545 c 128,-1,31
 621 1513 621 1513 703.5 1457 c 128,-1,32
 786 1401 786 1401 848 1324 c 128,-1,33
 910 1247 910 1247 951.5 1157 c 128,-1,34
 993 1067 993 1067 1013.5 968 c 128,-1,35
 1034 869 1034 869 1034 768 c 256,0,1
EndSplineSet
Validated: 19457
EndChar

StartChar: exclamdown
Encoding: 161 161 97
Width: 934
Flags: W
HStem: 0 21G<83 852> 1152 384<148 788>
LayerCount: 2
Fore
SplineSet
148 1152 m 1,0,-1
 148 1536 l 1,1,-1
 788 1536 l 1,2,-1
 788 1152 l 1,3,-1
 148 1152 l 1,0,-1
83 399 m 1,4,-1
 212 1024 l 1,5,-1
 724 1024 l 1,6,-1
 852 399 l 1,7,-1
 852 0 l 1,8,-1
 83 0 l 1,9,-1
 83 399 l 1,4,-1
EndSplineSet
Validated: 19457
EndChar

StartChar: percent
Encoding: 37 37 98
Width: 3467
Flags: W
HStem: -42 375<2680.09 2919.91> 0 21G<1208 1853> 378 375<546.085 785.915> 804 351<2677.94 2921.75> 1224 351<543.939 787.748> 1516 20G<1587 2232>
VStem: 59 434<807.949 1169.34> 840 434<807.949 1169.34> 2193 434<387.949 749.336> 2974 434<387.949 749.336>
LayerCount: 2
Fore
SplineSet
666 378 m 256,0,1
 540 378 540 378 429.5 412.5 c 128,-1,2
 319 447 319 447 236.5 520.5 c 128,-1,3
 154 594 154 594 106.5 710 c 128,-1,4
 59 826 59 826 59 990 c 0,5,6
 59 1148 59 1148 106.5 1259.5 c 128,-1,7
 154 1371 154 1371 236.5 1441 c 128,-1,8
 319 1511 319 1511 429.5 1543 c 128,-1,9
 540 1575 540 1575 666 1575 c 0,10,11
 791 1575 791 1575 902 1543 c 128,-1,12
 1013 1511 1013 1511 1095.5 1441 c 128,-1,13
 1178 1371 1178 1371 1226 1259.5 c 128,-1,14
 1274 1148 1274 1148 1274 990 c 0,15,16
 1274 826 1274 826 1226 710 c 128,-1,17
 1178 594 1178 594 1095.5 520.5 c 128,-1,18
 1013 447 1013 447 902.5 412.5 c 128,-1,19
 792 378 792 378 666 378 c 256,0,1
1208 0 m 1,20,-1
 1592 1536 l 1,21,-1
 2232 1536 l 1,22,-1
 1848 0 l 1,23,-1
 1208 0 l 1,20,-1
666 1224 m 256,24,25
 623 1224 623 1224 593 1211.5 c 128,-1,26
 563 1199 563 1199 544 1179.5 c 128,-1,27
 525 1160 525 1160 514.5 1134.5 c 128,-1,28
 504 1109 504 1109 499.5 1083 c 128,-1,29
 495 1057 495 1057 494 1032.5 c 128,-1,30
 493 1008 493 1008 493 990 c 256,31,32
 493 972 493 972 494 947.5 c 128,-1,33
 495 923 495 923 499.5 896.5 c 128,-1,34
 504 870 504 870 514.5 844.5 c 128,-1,35
 525 819 525 819 544 798.5 c 128,-1,36
 563 778 563 778 593 765.5 c 128,-1,37
 623 753 623 753 666 753 c 256,38,39
 709 753 709 753 739 765.5 c 128,-1,40
 769 778 769 778 788 798.5 c 128,-1,41
 807 819 807 819 817.5 844.5 c 128,-1,42
 828 870 828 870 833 896.5 c 128,-1,43
 838 923 838 923 839 947.5 c 128,-1,44
 840 972 840 972 840 990 c 256,45,46
 840 1008 840 1008 839 1032.5 c 128,-1,47
 838 1057 838 1057 833 1083 c 128,-1,48
 828 1109 828 1109 817.5 1134.5 c 128,-1,49
 807 1160 807 1160 788 1179.5 c 128,-1,50
 769 1199 769 1199 739 1211.5 c 128,-1,51
 709 1224 709 1224 666 1224 c 256,24,25
2800 -42 m 256,52,53
 2674 -42 2674 -42 2563.5 -7.5 c 128,-1,54
 2453 27 2453 27 2370.5 100.5 c 128,-1,55
 2288 174 2288 174 2240.5 290 c 128,-1,56
 2193 406 2193 406 2193 570 c 0,57,58
 2193 728 2193 728 2240.5 839.5 c 128,-1,59
 2288 951 2288 951 2370.5 1021 c 128,-1,60
 2453 1091 2453 1091 2563.5 1123 c 128,-1,61
 2674 1155 2674 1155 2800 1155 c 0,62,63
 2925 1155 2925 1155 3036 1123 c 128,-1,64
 3147 1091 3147 1091 3229.5 1021 c 128,-1,65
 3312 951 3312 951 3360 839.5 c 128,-1,66
 3408 728 3408 728 3408 570 c 0,67,68
 3408 406 3408 406 3360 290 c 128,-1,69
 3312 174 3312 174 3229.5 100.5 c 128,-1,70
 3147 27 3147 27 3036.5 -7.5 c 128,-1,71
 2926 -42 2926 -42 2800 -42 c 256,52,53
2800 804 m 256,72,73
 2757 804 2757 804 2727 791.5 c 128,-1,74
 2697 779 2697 779 2678 759.5 c 128,-1,75
 2659 740 2659 740 2648.5 714.5 c 128,-1,76
 2638 689 2638 689 2633.5 663 c 128,-1,77
 2629 637 2629 637 2628 612.5 c 128,-1,78
 2627 588 2627 588 2627 570 c 256,79,80
 2627 552 2627 552 2628 527.5 c 128,-1,81
 2629 503 2629 503 2633.5 476.5 c 128,-1,82
 2638 450 2638 450 2648.5 424.5 c 128,-1,83
 2659 399 2659 399 2678 378.5 c 128,-1,84
 2697 358 2697 358 2727 345.5 c 128,-1,85
 2757 333 2757 333 2800 333 c 256,86,87
 2843 333 2843 333 2873 345.5 c 128,-1,88
 2903 358 2903 358 2922 378.5 c 128,-1,89
 2941 399 2941 399 2951.5 424.5 c 128,-1,90
 2962 450 2962 450 2967 476.5 c 128,-1,91
 2972 503 2972 503 2973 527.5 c 128,-1,92
 2974 552 2974 552 2974 570 c 256,93,94
 2974 588 2974 588 2973 612.5 c 128,-1,95
 2972 637 2972 637 2967 663 c 128,-1,96
 2962 689 2962 689 2951.5 714.5 c 128,-1,97
 2941 740 2941 740 2922 759.5 c 128,-1,98
 2903 779 2903 779 2873 791.5 c 128,-1,99
 2843 804 2843 804 2800 804 c 256,72,73
EndSplineSet
Validated: 19457
EndChar

StartChar: ordmasculine
Encoding: 186 186 99
Width: 1381
Flags: W
HStem: 479 343<563.996 816.094> 1254 321<563.369 819.019>
VStem: 70 443<872.581 1203.45> 868 443<872.581 1203.45>
LayerCount: 2
Fore
SplineSet
690 479 m 0,0,1
 560 479 560 479 447 510.5 c 128,-1,2
 334 542 334 542 250 609.5 c 128,-1,3
 166 677 166 677 118 783 c 128,-1,4
 70 889 70 889 70 1039 c 0,5,6
 70 1184 70 1184 118.5 1286 c 128,-1,7
 167 1388 167 1388 251 1452 c 128,-1,8
 335 1516 335 1516 448 1545.5 c 128,-1,9
 561 1575 561 1575 690 1575 c 256,10,11
 819 1575 819 1575 932 1545.5 c 128,-1,12
 1045 1516 1045 1516 1129 1452 c 128,-1,13
 1213 1388 1213 1388 1262 1286 c 128,-1,14
 1311 1184 1311 1184 1311 1039 c 0,15,16
 1311 889 1311 889 1262.5 783 c 128,-1,17
 1214 677 1214 677 1130 609.5 c 128,-1,18
 1046 542 1046 542 932.5 510.5 c 128,-1,19
 819 479 819 479 690 479 c 0,0,1
690 1254 m 256,20,21
 646 1254 646 1254 616 1243 c 128,-1,22
 586 1232 586 1232 566 1213.5 c 128,-1,23
 546 1195 546 1195 535.5 1172 c 128,-1,24
 525 1149 525 1149 520 1125 c 128,-1,25
 515 1101 515 1101 514 1078.5 c 128,-1,26
 513 1056 513 1056 513 1039 c 0,27,28
 513 1014 513 1014 516 977 c 128,-1,29
 519 940 519 940 535.5 905.5 c 128,-1,30
 552 871 552 871 588 846.5 c 128,-1,31
 624 822 624 822 690 822 c 256,32,33
 756 822 756 822 792.5 846.5 c 128,-1,34
 829 871 829 871 845.5 905.5 c 128,-1,35
 862 940 862 940 865 977 c 128,-1,36
 868 1014 868 1014 868 1039 c 0,37,38
 868 1056 868 1056 867 1078.5 c 128,-1,39
 866 1101 866 1101 861 1125 c 128,-1,40
 856 1149 856 1149 845.5 1172 c 128,-1,41
 835 1195 835 1195 815 1213.5 c 128,-1,42
 795 1232 795 1232 764.5 1243 c 128,-1,43
 734 1254 734 1254 690 1254 c 256,20,21
EndSplineSet
Validated: 19457
EndChar

StartChar: circumflex
Encoding: 710 710 100
Width: 1275
Flags: W
HStem: 1664 639<393 478 797 883>
LayerCount: 2
Fore
SplineSet
478 1664 m 1,0,-1
 53 1664 l 1,1,-1
 393 2303 l 1,2,-1
 883 2303 l 1,3,-1
 1222 1664 l 1,4,-1
 797 1664 l 1,5,-1
 638 2047 l 1,6,-1
 478 1664 l 1,0,-1
EndSplineSet
Validated: 19457
EndChar

StartChar: asciicircum
Encoding: 94 94 101
Width: 1514
Flags: W
LayerCount: 2
Fore
SplineSet
565 201 m 1,0,-1
 53 201 l 1,1,-1
 462 1280 l 1,2,-1
 1052 1280 l 1,3,-1
 1461 201 l 1,4,-1
 949 201 l 1,5,-1
 757 841 l 1,6,-1
 565 201 l 1,0,-1
EndSplineSet
Validated: 3073
EndChar

StartChar: perthousand
Encoding: 8240 8240 104
Width: 4841
Flags: W
HStem: -42 375<2690.09 2929.91 4062.09 4301.91> 0 21G<1218 1863> 378 375<556.085 795.915> 804 351<2687.94 2931.75 4059.94 4303.75> 1224 351<553.939 797.748> 1516 20G<1597 2242>
VStem: 69 434<807.949 1169.34> 850 434<807.949 1169.34> 2203 434<387.949 749.336> 2984 434<387.949 749.336> 3575 434<387.949 749.336> 4356 434<387.949 749.336>
LayerCount: 2
Fore
SplineSet
676 378 m 256,0,1
 550 378 550 378 439.5 412.5 c 128,-1,2
 329 447 329 447 246.5 520.5 c 128,-1,3
 164 594 164 594 116.5 710 c 128,-1,4
 69 826 69 826 69 990 c 0,5,6
 69 1148 69 1148 116.5 1259.5 c 128,-1,7
 164 1371 164 1371 246.5 1441 c 128,-1,8
 329 1511 329 1511 439.5 1543 c 128,-1,9
 550 1575 550 1575 676 1575 c 0,10,11
 801 1575 801 1575 912 1543 c 128,-1,12
 1023 1511 1023 1511 1105.5 1441 c 128,-1,13
 1188 1371 1188 1371 1236 1259.5 c 128,-1,14
 1284 1148 1284 1148 1284 990 c 0,15,16
 1284 826 1284 826 1236 710 c 128,-1,17
 1188 594 1188 594 1105.5 520.5 c 128,-1,18
 1023 447 1023 447 912.5 412.5 c 128,-1,19
 802 378 802 378 676 378 c 256,0,1
1218 0 m 1,20,-1
 1602 1536 l 1,21,-1
 2242 1536 l 1,22,-1
 1858 0 l 1,23,-1
 1218 0 l 1,20,-1
676 1224 m 256,24,25
 633 1224 633 1224 603 1211.5 c 128,-1,26
 573 1199 573 1199 554 1179.5 c 128,-1,27
 535 1160 535 1160 524.5 1134.5 c 128,-1,28
 514 1109 514 1109 509.5 1083 c 128,-1,29
 505 1057 505 1057 504 1032.5 c 128,-1,30
 503 1008 503 1008 503 990 c 256,31,32
 503 972 503 972 504 947.5 c 128,-1,33
 505 923 505 923 509.5 896.5 c 128,-1,34
 514 870 514 870 524.5 844.5 c 128,-1,35
 535 819 535 819 554 798.5 c 128,-1,36
 573 778 573 778 603 765.5 c 128,-1,37
 633 753 633 753 676 753 c 256,38,39
 719 753 719 753 749 765.5 c 128,-1,40
 779 778 779 778 798 798.5 c 128,-1,41
 817 819 817 819 827.5 844.5 c 128,-1,42
 838 870 838 870 843 896.5 c 128,-1,43
 848 923 848 923 849 947.5 c 128,-1,44
 850 972 850 972 850 990 c 256,45,46
 850 1008 850 1008 849 1032.5 c 128,-1,47
 848 1057 848 1057 843 1083 c 128,-1,48
 838 1109 838 1109 827.5 1134.5 c 128,-1,49
 817 1160 817 1160 798 1179.5 c 128,-1,50
 779 1199 779 1199 749 1211.5 c 128,-1,51
 719 1224 719 1224 676 1224 c 256,24,25
4182 -42 m 256,52,53
 4056 -42 4056 -42 3945.5 -7.5 c 128,-1,54
 3835 27 3835 27 3752.5 100.5 c 128,-1,55
 3670 174 3670 174 3622.5 290 c 128,-1,56
 3575 406 3575 406 3575 570 c 0,57,58
 3575 728 3575 728 3622.5 839.5 c 128,-1,59
 3670 951 3670 951 3752.5 1021 c 128,-1,60
 3835 1091 3835 1091 3945.5 1123 c 128,-1,61
 4056 1155 4056 1155 4182 1155 c 0,62,63
 4307 1155 4307 1155 4418 1123 c 128,-1,64
 4529 1091 4529 1091 4611.5 1021 c 128,-1,65
 4694 951 4694 951 4742 839.5 c 128,-1,66
 4790 728 4790 728 4790 570 c 0,67,68
 4790 406 4790 406 4742 290 c 128,-1,69
 4694 174 4694 174 4611.5 100.5 c 128,-1,70
 4529 27 4529 27 4418.5 -7.5 c 128,-1,71
 4308 -42 4308 -42 4182 -42 c 256,52,53
2810 -42 m 256,72,73
 2684 -42 2684 -42 2573.5 -7.5 c 128,-1,74
 2463 27 2463 27 2380.5 100.5 c 128,-1,75
 2298 174 2298 174 2250.5 290 c 128,-1,76
 2203 406 2203 406 2203 570 c 0,77,78
 2203 728 2203 728 2250.5 839.5 c 128,-1,79
 2298 951 2298 951 2380.5 1021 c 128,-1,80
 2463 1091 2463 1091 2573.5 1123 c 128,-1,81
 2684 1155 2684 1155 2810 1155 c 0,82,83
 2935 1155 2935 1155 3046 1123 c 128,-1,84
 3157 1091 3157 1091 3239.5 1021 c 128,-1,85
 3322 951 3322 951 3370 839.5 c 128,-1,86
 3418 728 3418 728 3418 570 c 0,87,88
 3418 406 3418 406 3370 290 c 128,-1,89
 3322 174 3322 174 3239.5 100.5 c 128,-1,90
 3157 27 3157 27 3046.5 -7.5 c 128,-1,91
 2936 -42 2936 -42 2810 -42 c 256,72,73
4182 804 m 256,92,93
 4139 804 4139 804 4109 791.5 c 128,-1,94
 4079 779 4079 779 4060 759.5 c 128,-1,95
 4041 740 4041 740 4030.5 714.5 c 128,-1,96
 4020 689 4020 689 4015.5 663 c 128,-1,97
 4011 637 4011 637 4010 612.5 c 128,-1,98
 4009 588 4009 588 4009 570 c 256,99,100
 4009 552 4009 552 4010 527.5 c 128,-1,101
 4011 503 4011 503 4015.5 476.5 c 128,-1,102
 4020 450 4020 450 4030.5 424.5 c 128,-1,103
 4041 399 4041 399 4060 378.5 c 128,-1,104
 4079 358 4079 358 4109 345.5 c 128,-1,105
 4139 333 4139 333 4182 333 c 256,106,107
 4225 333 4225 333 4255 345.5 c 128,-1,108
 4285 358 4285 358 4304 378.5 c 128,-1,109
 4323 399 4323 399 4333.5 424.5 c 128,-1,110
 4344 450 4344 450 4349 476.5 c 128,-1,111
 4354 503 4354 503 4355 527.5 c 128,-1,112
 4356 552 4356 552 4356 570 c 256,113,114
 4356 588 4356 588 4355 612.5 c 128,-1,115
 4354 637 4354 637 4349 663 c 128,-1,116
 4344 689 4344 689 4333.5 714.5 c 128,-1,117
 4323 740 4323 740 4304 759.5 c 128,-1,118
 4285 779 4285 779 4255 791.5 c 128,-1,119
 4225 804 4225 804 4182 804 c 256,92,93
2810 804 m 256,120,121
 2767 804 2767 804 2737 791.5 c 128,-1,122
 2707 779 2707 779 2688 759.5 c 128,-1,123
 2669 740 2669 740 2658.5 714.5 c 128,-1,124
 2648 689 2648 689 2643.5 663 c 128,-1,125
 2639 637 2639 637 2638 612.5 c 128,-1,126
 2637 588 2637 588 2637 570 c 256,127,128
 2637 552 2637 552 2638 527.5 c 128,-1,129
 2639 503 2639 503 2643.5 476.5 c 128,-1,130
 2648 450 2648 450 2658.5 424.5 c 128,-1,131
 2669 399 2669 399 2688 378.5 c 128,-1,132
 2707 358 2707 358 2737 345.5 c 128,-1,133
 2767 333 2767 333 2810 333 c 256,134,135
 2853 333 2853 333 2883 345.5 c 128,-1,136
 2913 358 2913 358 2932 378.5 c 128,-1,137
 2951 399 2951 399 2961.5 424.5 c 128,-1,138
 2972 450 2972 450 2977 476.5 c 128,-1,139
 2982 503 2982 503 2983 527.5 c 128,-1,140
 2984 552 2984 552 2984 570 c 256,141,142
 2984 588 2984 588 2983 612.5 c 128,-1,143
 2982 637 2982 637 2977 663 c 128,-1,144
 2972 689 2972 689 2961.5 714.5 c 128,-1,145
 2951 740 2951 740 2932 759.5 c 128,-1,146
 2913 779 2913 779 2883 791.5 c 128,-1,147
 2853 804 2853 804 2810 804 c 256,120,121
EndSplineSet
Validated: 19457
EndChar

StartChar: dieresis
Encoding: 168 168 105
Width: 1359
Flags: W
HStem: 1664 384<95 520 839 1264>
VStem: 95 425<1664 2048> 839 425<1664 2048>
LayerCount: 2
Fore
SplineSet
839 1664 m 1,0,-1
 839 2048 l 1,1,-1
 1264 2048 l 1,2,-1
 1264 1664 l 1,3,-1
 839 1664 l 1,0,-1
95 2048 m 1,4,-1
 520 2048 l 1,5,-1
 520 1664 l 1,6,-1
 95 1664 l 1,7,-1
 95 2048 l 1,4,-1
EndSplineSet
Validated: 19457
EndChar

StartChar: ellipsis
Encoding: 8230 8230 107
Width: 2604
Flags: W
HStem: 0 512<95 735 982 1622 1869 2509>
VStem: 95 640<0 512> 982 640<0 512> 1869 640<0 512>
CounterMasks: 1 70
LayerCount: 2
Fore
SplineSet
1869 0 m 1,0,-1
 1869 512 l 1,1,-1
 2509 512 l 1,2,-1
 2509 0 l 1,3,-1
 1869 0 l 1,0,-1
982 0 m 1,4,-1
 982 512 l 1,5,-1
 1622 512 l 1,6,-1
 1622 0 l 1,7,-1
 982 0 l 1,4,-1
95 0 m 1,8,-1
 95 512 l 1,9,-1
 735 512 l 1,10,-1
 735 0 l 1,11,-1
 95 0 l 1,8,-1
EndSplineSet
Validated: 19457
EndChar

StartChar: quotedblbase
Encoding: 8222 8222 108
Width: 1578
Flags: W
HStem: -452 324<212 309.937 980 1077.94> 0 512<84 339 852 1107>
VStem: 84 640<0 512> 852 640<0 512>
LayerCount: 2
Fore
SplineSet
852 0 m 1,0,-1
 852 512 l 1,1,-1
 1492 512 l 1,2,-1
 1492 1 l 2,3,4
 1492 -126 1492 -126 1448 -212.5 c 128,-1,5
 1404 -299 1404 -299 1332 -352.5 c 128,-1,6
 1260 -406 1260 -406 1168 -429 c 128,-1,7
 1076 -452 1076 -452 980 -452 c 1,8,9
 980 -128 l 1,10,11
 997 -127 997 -127 1013 -123 c 128,-1,12
 1029 -119 1029 -119 1043 -112 c 0,13,14
 1067 -100 1067 -100 1087 -74 c 128,-1,15
 1107 -48 1107 -48 1107 0 c 1,16,-1
 852 0 l 1,0,-1
84 0 m 1,17,-1
 84 512 l 1,18,-1
 724 512 l 1,19,-1
 724 1 l 2,20,21
 724 -126 724 -126 680 -212.5 c 128,-1,22
 636 -299 636 -299 564 -352.5 c 128,-1,23
 492 -406 492 -406 400 -429 c 128,-1,24
 308 -452 308 -452 212 -452 c 1,25,-1
 212 -128 l 1,26,27
 229 -127 229 -127 245 -123 c 128,-1,28
 261 -119 261 -119 275 -112 c 0,29,30
 299 -100 299 -100 319 -74 c 128,-1,31
 339 -48 339 -48 339 0 c 1,32,-1
 84 0 l 1,17,-1
EndSplineSet
Validated: 19457
EndChar

StartChar: quotesinglbase
Encoding: 8218 8218 109
Width: 787
Flags: W
VStem: 72 640<0 512>
LayerCount: 2
Fore
SplineSet
72 0 m 1,0,-1
 72 512 l 1,1,-1
 712 512 l 1,2,-1
 712 1 l 2,3,4
 712 -126 712 -126 668 -212.5 c 128,-1,5
 624 -299 624 -299 552 -352.5 c 128,-1,6
 480 -406 480 -406 388 -429 c 128,-1,7
 296 -452 296 -452 200 -452 c 1,8,9
 200 -128 l 1,10,11
 217 -127 217 -127 233 -123 c 128,-1,12
 249 -119 249 -119 263 -112 c 0,13,14
 287 -100 287 -100 307 -74 c 128,-1,15
 327 -48 327 -48 327 0 c 1,16,-1
 72 0 l 1,0,-1
EndSplineSet
Validated: 19457
EndChar

StartChar: grave
Encoding: 96 96 110
Width: 900
Flags: W
HStem: 1664 640<435 521>
LayerCount: 2
Fore
SplineSet
435 1664 m 1,0,-1
 31 2304 l 1,1,-1
 521 2304 l 1,2,-1
 860 1664 l 1,3,-1
 435 1664 l 1,0,-1
EndSplineSet
Validated: 19457
EndChar

StartChar: acute
Encoding: 180 180 111
Width: 900
Flags: W
HStem: 1664 640<379 465>
LayerCount: 2
Fore
SplineSet
869 2304 m 1,0,-1
 465 1664 l 1,1,-1
 40 1664 l 1,2,-1
 379 2304 l 1,3,-1
 869 2304 l 1,0,-1
EndSplineSet
Validated: 19457
EndChar

StartChar: braceleft
Encoding: 123 123 112
Width: 1026
Flags: W
HStem: -41 21G<630 708> 1348 372<780.595 929.845>
LayerCount: 2
Fore
SplineSet
27 655 m 1,0,1
 27 1024 l 1,2,3
 95 1024 95 1024 141.5 1043.5 c 128,-1,4
 188 1063 188 1063 219 1096.5 c 128,-1,5
 250 1130 250 1130 269.5 1174.5 c 128,-1,6
 289 1219 289 1219 302.5 1269 c 128,-1,7
 316 1319 316 1319 327.5 1372 c 128,-1,8
 339 1425 339 1425 354.5 1475 c 128,-1,9
 370 1525 370 1525 393.5 1569.5 c 128,-1,10
 417 1614 417 1614 454 1647.5 c 128,-1,11
 491 1681 491 1681 546 1700.5 c 128,-1,12
 601 1720 601 1720 679 1720 c 0,13,14
 737 1720 737 1720 800 1715.5 c 128,-1,15
 863 1711 863 1711 932 1700 c 1,16,-1
 932 1348 l 1,17,18
 863 1348 863 1348 821 1328.5 c 128,-1,19
 779 1309 779 1309 755.5 1277 c 128,-1,20
 732 1245 732 1245 722 1203.5 c 128,-1,21
 712 1162 712 1162 706.5 1117 c 128,-1,22
 701 1072 701 1072 696.5 1027.5 c 128,-1,23
 692 983 692 983 678.5 945 c 128,-1,24
 665 907 665 907 638.5 879 c 128,-1,25
 612 851 612 851 563 839 c 1,26,27
 612 827 612 827 638.5 799 c 128,-1,28
 665 771 665 771 678.5 733 c 128,-1,29
 692 695 692 695 697 650.5 c 128,-1,30
 702 606 702 606 707 561 c 128,-1,31
 712 516 712 516 722 474.5 c 128,-1,32
 732 433 732 433 755.5 401 c 128,-1,33
 779 369 779 369 821 350 c 128,-1,34
 863 331 863 331 932 331 c 1,35,-1
 932 -21 l 1,36,37
 863 -32 863 -32 800 -36.5 c 128,-1,38
 737 -41 737 -41 679 -41 c 0,39,40
 581 -41 581 -41 519.5 -11 c 128,-1,41
 458 19 458 19 420.5 68 c 128,-1,42
 383 117 383 117 363 179.5 c 128,-1,43
 343 242 343 242 327.5 307 c 128,-1,44
 312 372 312 372 295 434.5 c 128,-1,45
 278 497 278 497 247 546 c 128,-1,46
 216 595 216 595 164 625 c 128,-1,47
 112 655 112 655 27 655 c 1,0,1
EndSplineSet
Validated: 19457
EndChar

StartChar: braceright
Encoding: 125 125 113
Width: 1026
Flags: W
HStem: -41 372<96.1548 246.396>
LayerCount: 2
Fore
SplineSet
999 1024 m 1,0,1
 999 655 l 1,2,3
 914 655 914 655 862 625 c 128,-1,4
 810 595 810 595 779 546 c 128,-1,5
 748 497 748 497 731 434.5 c 128,-1,6
 714 372 714 372 698.5 307 c 128,-1,7
 683 242 683 242 663 179.5 c 128,-1,8
 643 117 643 117 605.5 68 c 128,-1,9
 568 19 568 19 506.5 -11 c 128,-1,10
 445 -41 445 -41 347 -41 c 0,11,12
 289 -41 289 -41 226 -36.5 c 128,-1,13
 163 -32 163 -32 94 -21 c 1,14,-1
 94 331 l 1,15,16
 163 331 163 331 205 350 c 128,-1,17
 247 369 247 369 270.5 401 c 128,-1,18
 294 433 294 433 304 474.5 c 128,-1,19
 314 516 314 516 319 561 c 128,-1,20
 324 606 324 606 329 650.5 c 128,-1,21
 334 695 334 695 347.5 733 c 128,-1,22
 361 771 361 771 387.5 799 c 128,-1,23
 414 827 414 827 463 839 c 1,24,25
 414 851 414 851 387.5 879 c 128,-1,26
 361 907 361 907 347.5 945 c 128,-1,27
 334 983 334 983 329.5 1027.5 c 128,-1,28
 325 1072 325 1072 319.5 1117 c 128,-1,29
 314 1162 314 1162 304 1203.5 c 128,-1,30
 294 1245 294 1245 270.5 1277 c 128,-1,31
 247 1309 247 1309 205 1328.5 c 128,-1,32
 163 1348 163 1348 94 1348 c 1,33,-1
 94 1700 l 1,34,35
 163 1711 163 1711 226 1715.5 c 128,-1,36
 289 1720 289 1720 347 1720 c 0,37,38
 425 1720 425 1720 480 1700.5 c 128,-1,39
 535 1681 535 1681 572 1647.5 c 128,-1,40
 609 1614 609 1614 632.5 1569.5 c 128,-1,41
 656 1525 656 1525 671.5 1475 c 128,-1,42
 687 1425 687 1425 698.5 1372 c 128,-1,43
 710 1319 710 1319 723.5 1269 c 128,-1,44
 737 1219 737 1219 756.5 1174.5 c 128,-1,45
 776 1130 776 1130 807 1096.5 c 128,-1,46
 838 1063 838 1063 884.5 1043.5 c 128,-1,47
 931 1024 931 1024 999 1024 c 1,0,1
EndSplineSet
Validated: 19457
EndChar

StartChar: caron
Encoding: 711 711 114
Width: 1275
Flags: W
HStem: 1664 639<393 478 797 883>
LayerCount: 2
Fore
SplineSet
53 2303 m 1,0,-1
 478 2303 l 1,1,-1
 638 1920 l 1,2,-1
 797 2303 l 1,3,-1
 1222 2303 l 1,4,-1
 883 1664 l 1,5,-1
 393 1664 l 1,6,-1
 53 2303 l 1,0,-1
EndSplineSet
Validated: 19457
EndChar

StartChar: hungarumlaut
Encoding: 733 733 115
Width: 1740
Flags: W
HStem: 1664 640<403 559 1197 1227>
LayerCount: 2
Fore
SplineSet
1687 2304 m 1,0,-1
 1227 1664 l 1,1,-1
 792 1664 l 1,2,-1
 1197 2304 l 1,3,-1
 1687 2304 l 1,0,-1
893 2304 m 1,4,-1
 559 1664 l 1,5,-1
 154 1664 l 1,6,-1
 403 2304 l 1,7,-1
 893 2304 l 1,4,-1
EndSplineSet
Validated: 19457
EndChar

StartChar: registered
Encoding: 174 174 116
Width: 1746
Flags: W
HStem: -41 146<632.308 1113.1> 1028 186<863 990.486> 1429 146<632.401 1113.1>
VStem: 65 146<526.405 1007.6> 441 422<371 609 976 1028> 1535 146<526.312 1007.6>
LayerCount: 2
Fore
SplineSet
65 767 m 256,0,1
 65 879 65 879 94 982 c 128,-1,2
 123 1085 123 1085 175.5 1175 c 128,-1,3
 228 1265 228 1265 301.5 1338.5 c 128,-1,4
 375 1412 375 1412 465 1464.5 c 128,-1,5
 555 1517 555 1517 658 1546 c 128,-1,6
 761 1575 761 1575 873 1575 c 0,7,8
 984 1575 984 1575 1087 1546 c 128,-1,9
 1190 1517 1190 1517 1280 1464.5 c 128,-1,10
 1370 1412 1370 1412 1444 1338.5 c 128,-1,11
 1518 1265 1518 1265 1570.5 1175 c 128,-1,12
 1623 1085 1623 1085 1652 982 c 128,-1,13
 1681 879 1681 879 1681 767 c 256,14,15
 1681 655 1681 655 1652 552 c 128,-1,16
 1623 449 1623 449 1570.5 359.5 c 128,-1,17
 1518 270 1518 270 1444 196 c 128,-1,18
 1370 122 1370 122 1280 69.5 c 128,-1,19
 1190 17 1190 17 1087 -12 c 128,-1,20
 984 -41 984 -41 873 -41 c 0,21,22
 761 -41 761 -41 658 -12 c 128,-1,23
 555 17 555 17 465 69.5 c 128,-1,24
 375 122 375 122 301.5 196 c 128,-1,25
 228 270 228 270 175.5 359.5 c 128,-1,26
 123 449 123 449 94 552 c 128,-1,27
 65 655 65 655 65 767 c 256,0,1
211 767 m 256,28,29
 211 676 211 676 234.5 591 c 128,-1,30
 258 506 258 506 301 432.5 c 128,-1,31
 344 359 344 359 404.5 298.5 c 128,-1,32
 465 238 465 238 538.5 195 c 128,-1,33
 612 152 612 152 696.5 128.5 c 128,-1,34
 781 105 781 105 873 105 c 0,35,36
 964 105 964 105 1049 128.5 c 128,-1,37
 1134 152 1134 152 1207.5 195 c 128,-1,38
 1281 238 1281 238 1341.5 298.5 c 128,-1,39
 1402 359 1402 359 1445 432.5 c 128,-1,40
 1488 506 1488 506 1511.5 590.5 c 128,-1,41
 1535 675 1535 675 1535 767 c 0,42,43
 1535 858 1535 858 1511.5 943 c 128,-1,44
 1488 1028 1488 1028 1445 1101.5 c 128,-1,45
 1402 1175 1402 1175 1341.5 1235.5 c 128,-1,46
 1281 1296 1281 1296 1207.5 1339 c 128,-1,47
 1134 1382 1134 1382 1049 1405.5 c 128,-1,48
 964 1429 964 1429 873 1429 c 256,49,50
 782 1429 782 1429 697 1405.5 c 128,-1,51
 612 1382 612 1382 538.5 1339 c 128,-1,52
 465 1296 465 1296 404.5 1235.5 c 128,-1,53
 344 1175 344 1175 301 1101.5 c 128,-1,54
 258 1028 258 1028 234.5 943 c 128,-1,55
 211 858 211 858 211 767 c 256,28,29
1354 508 m 1,56,57
 1354 371 l 1,58,-1
 1005 371 l 1,59,60
 992 396 992 396 979.5 420.5 c 128,-1,61
 967 445 967 445 955 471 c 0,62,63
 935 516 935 516 914 568.5 c 128,-1,64
 893 621 893 621 881 672 c 1,65,-1
 863 672 l 1,66,-1
 863 371 l 1,67,-1
 441 371 l 1,68,-1
 441 609 l 1,69,-1
 512 623 l 1,70,-1
 512 962 l 1,71,-1
 441 976 l 1,72,-1
 441 1214 l 1,73,-1
 919 1214 l 2,74,75
 1061 1214 1061 1214 1147 1195 c 128,-1,76
 1233 1176 1233 1176 1279 1141 c 128,-1,77
 1325 1106 1325 1106 1339.5 1057.5 c 128,-1,78
 1354 1009 1354 1009 1354 950 c 0,79,80
 1354 911 1354 911 1346.5 878.5 c 128,-1,81
 1339 846 1339 846 1320.5 819 c 128,-1,82
 1302 792 1302 792 1269.5 770 c 128,-1,83
 1237 748 1237 748 1187 729 c 1,84,85
 1197 707 1197 707 1217.5 677.5 c 128,-1,86
 1238 648 1238 648 1262.5 617.5 c 128,-1,87
 1287 587 1287 587 1311.5 558 c 128,-1,88
 1336 529 1336 529 1354 508 c 1,56,57
863 1028 m 1,89,-1
 863 834 l 1,90,91
 895 834 895 834 921 837 c 128,-1,92
 947 840 947 840 965 849.5 c 128,-1,93
 983 859 983 859 993 878 c 128,-1,94
 1003 897 1003 897 1003 930 c 0,95,96
 1003 961 1003 961 993 980.5 c 128,-1,97
 983 1000 983 1000 965 1010.5 c 128,-1,98
 947 1021 947 1021 921 1024.5 c 128,-1,99
 895 1028 895 1028 863 1028 c 1,89,-1
EndSplineSet
Validated: 19457
EndChar

StartChar: copyright
Encoding: 169 169 117
Width: 1746
Flags: W
HStem: -41 146<632.308 1113.1> 318 270<812.426 1181.6> 378 263<1055.09 1231> 870 261<1094.99 1231> 947 253<818.287 1035.09> 1429 146<632.401 1113.1>
VStem: 65 146<526.405 1007.6> 407 358<633.256 894.064> 1535 146<526.312 1007.6>
LayerCount: 2
Fore
SplineSet
65 767 m 256,0,1
 65 879 65 879 94 982 c 128,-1,2
 123 1085 123 1085 175.5 1175 c 128,-1,3
 228 1265 228 1265 301.5 1338.5 c 128,-1,4
 375 1412 375 1412 465 1464.5 c 128,-1,5
 555 1517 555 1517 658 1546 c 128,-1,6
 761 1575 761 1575 873 1575 c 0,7,8
 984 1575 984 1575 1087 1546 c 128,-1,9
 1190 1517 1190 1517 1280 1464.5 c 128,-1,10
 1370 1412 1370 1412 1444 1338.5 c 128,-1,11
 1518 1265 1518 1265 1570.5 1175 c 128,-1,12
 1623 1085 1623 1085 1652 982 c 128,-1,13
 1681 879 1681 879 1681 767 c 256,14,15
 1681 655 1681 655 1652 552 c 128,-1,16
 1623 449 1623 449 1570.5 359.5 c 128,-1,17
 1518 270 1518 270 1444 196 c 128,-1,18
 1370 122 1370 122 1280 69.5 c 128,-1,19
 1190 17 1190 17 1087 -12 c 128,-1,20
 984 -41 984 -41 873 -41 c 0,21,22
 761 -41 761 -41 658 -12 c 128,-1,23
 555 17 555 17 465 69.5 c 128,-1,24
 375 122 375 122 301.5 196 c 128,-1,25
 228 270 228 270 175.5 359.5 c 128,-1,26
 123 449 123 449 94 552 c 128,-1,27
 65 655 65 655 65 767 c 256,0,1
211 767 m 256,28,29
 211 676 211 676 234.5 591 c 128,-1,30
 258 506 258 506 301 432.5 c 128,-1,31
 344 359 344 359 404.5 298.5 c 128,-1,32
 465 238 465 238 538.5 195 c 128,-1,33
 612 152 612 152 696.5 128.5 c 128,-1,34
 781 105 781 105 873 105 c 0,35,36
 964 105 964 105 1049 128.5 c 128,-1,37
 1134 152 1134 152 1207.5 195 c 128,-1,38
 1281 238 1281 238 1341.5 298.5 c 128,-1,39
 1402 359 1402 359 1445 432.5 c 128,-1,40
 1488 506 1488 506 1511.5 590.5 c 128,-1,41
 1535 675 1535 675 1535 767 c 0,42,43
 1535 858 1535 858 1511.5 943 c 128,-1,44
 1488 1028 1488 1028 1445 1101.5 c 128,-1,45
 1402 1175 1402 1175 1341.5 1235.5 c 128,-1,46
 1281 1296 1281 1296 1207.5 1339 c 128,-1,47
 1134 1382 1134 1382 1049 1405.5 c 128,-1,48
 964 1429 964 1429 873 1429 c 256,49,50
 782 1429 782 1429 697 1405.5 c 128,-1,51
 612 1382 612 1382 538.5 1339 c 128,-1,52
 465 1296 465 1296 404.5 1235.5 c 128,-1,53
 344 1175 344 1175 301 1101.5 c 128,-1,54
 258 1028 258 1028 234.5 943 c 128,-1,55
 211 858 211 858 211 767 c 256,28,29
765 769 m 0,56,57
 765 673 765 673 812 630.5 c 128,-1,58
 859 588 859 588 949 588 c 0,59,60
 1000 588 1000 588 1073 601.5 c 128,-1,61
 1146 615 1146 615 1231 641 c 1,62,-1
 1231 378 l 1,63,64
 1143 349 1143 349 1056.5 333.5 c 128,-1,65
 970 318 970 318 889 318 c 0,66,67
 787 318 787 318 698.5 345 c 128,-1,68
 610 372 610 372 545.5 428 c 128,-1,69
 481 484 481 484 444 568.5 c 128,-1,70
 407 653 407 653 407 769 c 0,71,72
 407 881 407 881 441 962.5 c 128,-1,73
 475 1044 475 1044 537 1096.5 c 128,-1,74
 599 1149 599 1149 687.5 1174.5 c 128,-1,75
 776 1200 776 1200 884 1200 c 0,76,77
 965 1200 965 1200 1029 1189 c 128,-1,78
 1093 1178 1093 1178 1138 1165 c 0,79,80
 1164 1157 1164 1157 1187.5 1149 c 128,-1,81
 1211 1141 1211 1141 1231 1131 c 1,82,-1
 1231 870 l 1,83,-1
 1063 870 l 1,84,85
 1035 910 1035 910 1000 928.5 c 128,-1,86
 965 947 965 947 928 947 c 0,87,88
 897 947 897 947 868 935 c 128,-1,89
 839 923 839 923 816 900.5 c 128,-1,90
 793 878 793 878 779 844.5 c 128,-1,91
 765 811 765 811 765 769 c 0,56,57
EndSplineSet
Validated: 19457
EndChar

StartChar: onesuperior
Encoding: 185 185 118
Width: 756
Flags: W
HStem: 512 289<86 157.68 610.477 683> 1516 20G<400.462 597>
VStem: 171 426<818 1195>
LayerCount: 2
Fore
SplineSet
86 1195 m 1,0,-1
 86 1484 l 1,1,-1
 597 1536 l 1,2,-1
 597 818 l 1,3,-1
 683 801 l 1,4,-1
 683 512 l 1,5,-1
 86 512 l 1,6,-1
 86 801 l 1,7,-1
 171 818 l 1,8,-1
 171 1195 l 1,9,-1
 86 1195 l 1,0,-1
EndSplineSet
Validated: 19457
EndChar

StartChar: twosuperior
Encoding: 178 178 119
Width: 1042
Flags: W
HStem: 512 290<573 956> 1263 313<329.522 511.383>
VStem: 530 432<1046.81 1244.44>
LayerCount: 2
Fore
SplineSet
91 512 m 1,0,-1
 91 860 l 1,1,2
 113 868 113 868 154.5 880 c 128,-1,3
 196 892 196 892 244.5 909.5 c 128,-1,4
 293 927 293 927 344 950 c 128,-1,5
 395 973 395 973 436 1002.5 c 128,-1,6
 477 1032 477 1032 503.5 1069 c 128,-1,7
 530 1106 530 1106 530 1151 c 0,8,9
 530 1180 530 1180 521 1201 c 128,-1,10
 512 1222 512 1222 496.5 1236 c 128,-1,11
 481 1250 481 1250 460 1256.5 c 128,-1,12
 439 1263 439 1263 416 1263 c 0,13,14
 384 1263 384 1263 351 1238.5 c 128,-1,15
 318 1214 318 1214 295 1169 c 1,16,-1
 91 1169 l 1,17,-1
 91 1491 l 1,18,19
 134 1515 134 1515 192 1533 c 0,20,21
 241 1549 241 1549 310.5 1562.5 c 128,-1,22
 380 1576 380 1576 471 1576 c 0,23,24
 579 1576 579 1576 669.5 1554 c 128,-1,25
 760 1532 760 1532 825 1486 c 128,-1,26
 890 1440 890 1440 926 1370 c 128,-1,27
 962 1300 962 1300 962 1203 c 0,28,29
 962 1143 962 1143 945 1094.5 c 128,-1,30
 928 1046 928 1046 900.5 1007 c 128,-1,31
 873 968 873 968 838 937.5 c 128,-1,32
 803 907 803 907 767 884 c 0,33,34
 682 830 682 830 573 802 c 1,35,-1
 956 802 l 1,36,-1
 956 512 l 1,37,-1
 91 512 l 1,0,-1
EndSplineSet
Validated: 19457
EndChar

StartChar: threesuperior
Encoding: 179 179 120
Width: 1124
Flags: W
HStem: 469 274<340.246 590.13> 511 328<85.6921 329.862> 554 285<84 218.727> 920 203<347 602.244> 1204 285<84 216.776> 1300 276<342.259 590.13>
VStem: 610 439<766.459 910.717 1132.08 1276.58>
LayerCount: 2
Fore
SplineSet
476 743 m 0,0,1
 509 743 509 743 534 751.5 c 128,-1,2
 559 760 559 760 576 773.5 c 128,-1,3
 593 787 593 787 601.5 805 c 128,-1,4
 610 823 610 823 610 841 c 0,5,6
 610 856 610 856 604.5 870 c 128,-1,7
 599 884 599 884 588 895 c 128,-1,8
 577 906 577 906 561 913 c 128,-1,9
 545 920 545 920 524 920 c 2,10,-1
 347 920 l 1,11,-1
 347 1123 l 1,12,-1
 524 1123 l 2,13,14
 545 1123 545 1123 561 1130 c 128,-1,15
 577 1137 577 1137 588 1148 c 128,-1,16
 599 1159 599 1159 604.5 1173 c 128,-1,17
 610 1187 610 1187 610 1202 c 0,18,19
 610 1220 610 1220 601.5 1238 c 128,-1,20
 593 1256 593 1256 576 1269.5 c 128,-1,21
 559 1283 559 1283 534 1291.5 c 128,-1,22
 509 1300 509 1300 476 1300 c 0,23,24
 425 1300 425 1300 376.5 1276.5 c 128,-1,25
 328 1253 328 1253 290 1204 c 1,26,-1
 84 1204 l 1,27,-1
 84 1489 l 1,28,29
 137 1512 137 1512 211 1532 c 0,30,31
 272 1549 272 1549 359 1562.5 c 128,-1,32
 446 1576 446 1576 555 1576 c 0,33,34
 681 1576 681 1576 774 1546.5 c 128,-1,35
 867 1517 867 1517 928 1468 c 128,-1,36
 989 1419 989 1419 1019 1356 c 128,-1,37
 1049 1293 1049 1293 1049 1227 c 0,38,39
 1049 1164 1049 1164 1029 1124.5 c 128,-1,40
 1009 1085 1009 1085 985 1062 c 0,41,42
 956 1034 956 1034 922 1021 c 1,43,44
 958 1004 958 1004 985 978 c 0,45,46
 1009 955 1009 955 1029 915.5 c 128,-1,47
 1049 876 1049 876 1049 816 c 0,48,49
 1049 750 1049 750 1019 687.5 c 128,-1,50
 989 625 989 625 928 576.5 c 128,-1,51
 867 528 867 528 774 498.5 c 128,-1,52
 681 469 681 469 555 469 c 0,53,54
 446 469 446 469 359 482 c 128,-1,55
 272 495 272 495 211 511 c 0,56,57
 138 529 138 529 84 554 c 1,58,-1
 84 839 l 1,59,-1
 290 839 l 1,60,61
 328 788 328 788 376.5 765.5 c 128,-1,62
 425 743 425 743 476 743 c 0,0,1
EndSplineSet
Validated: 19457
EndChar

StartChar: onequarter
Encoding: 188 188 121
Width: 2678
Flags: W
HStem: 0 293<1892 1965.37 2424.63 2498> 400 173<1795 1979 2411 2627> 512 289<70 141.68 594.477 667> 1516 20G<384.462 581 1009 1654>
VStem: 155 426<818 1195> 1979 432<310 400 573 789>
LayerCount: 2
Fore
SplineSet
630 0 m 1,0,-1
 1014 1536 l 1,1,-1
 1654 1536 l 1,2,-1
 1270 0 l 1,3,-1
 630 0 l 1,0,-1
70 1195 m 1,4,-1
 70 1484 l 1,5,-1
 581 1536 l 1,6,-1
 581 818 l 1,7,-1
 667 801 l 1,8,-1
 667 512 l 1,9,-1
 70 512 l 1,10,-1
 70 801 l 1,11,-1
 155 818 l 1,12,-1
 155 1195 l 1,13,-1
 70 1195 l 1,4,-1
1546 400 m 1,14,-1
 1546 573 l 1,15,-1
 1979 1037 l 1,16,-1
 2411 1064 l 1,17,-1
 2411 573 l 1,18,-1
 2627 573 l 1,19,-1
 2627 400 l 1,20,-1
 2411 400 l 1,21,-1
 2411 310 l 1,22,-1
 2498 293 l 1,23,-1
 2498 0 l 1,24,-1
 1892 0 l 1,25,-1
 1892 293 l 1,26,-1
 1979 310 l 1,27,-1
 1979 400 l 1,28,-1
 1546 400 l 1,14,-1
1979 789 m 1,29,-1
 1795 573 l 1,30,-1
 1979 573 l 1,31,-1
 1979 789 l 1,29,-1
EndSplineSet
Validated: 19457
EndChar

StartChar: foursuperior
Encoding: 8308 8308 122
Width: 1170
Flags: W
HStem: 512 293<380 453.367 912.633 986> 912 173<283 467 899 1115> 1556 20G<579 899>
VStem: 467 432<822 912 1085 1301>
LayerCount: 2
Fore
SplineSet
34 912 m 1,0,-1
 34 1085 l 1,1,-1
 467 1549 l 1,2,-1
 899 1576 l 1,3,-1
 899 1085 l 1,4,-1
 1115 1085 l 1,5,-1
 1115 912 l 1,6,-1
 899 912 l 1,7,-1
 899 822 l 1,8,-1
 986 805 l 1,9,-1
 986 512 l 1,10,-1
 380 512 l 1,11,-1
 380 805 l 1,12,-1
 467 822 l 1,13,-1
 467 912 l 1,14,-1
 34 912 l 1,0,-1
467 1301 m 1,15,-1
 283 1085 l 1,16,-1
 467 1085 l 1,17,-1
 467 1301 l 1,15,-1
EndSplineSet
Validated: 19457
EndChar

StartChar: onehalf
Encoding: 189 189 123
Width: 2550
Flags: W
HStem: -1 290<2101 2484> 512 289<69 140.68 593.477 666> 750 313<1857.52 2039.38> 1516 20G<383.462 580 1008 1653>
VStem: 154 426<818 1195> 2058 432<533.809 731.442>
LayerCount: 2
Fore
SplineSet
629 0 m 1,0,-1
 1013 1536 l 1,1,-1
 1653 1536 l 1,2,-1
 1269 0 l 1,3,-1
 629 0 l 1,0,-1
69 1195 m 1,4,-1
 69 1484 l 1,5,-1
 580 1536 l 1,6,-1
 580 818 l 1,7,-1
 666 801 l 1,8,-1
 666 512 l 1,9,-1
 69 512 l 1,10,-1
 69 801 l 1,11,-1
 154 818 l 1,12,-1
 154 1195 l 1,13,-1
 69 1195 l 1,4,-1
1619 -1 m 1,14,-1
 1619 347 l 1,15,16
 1641 355 1641 355 1682.5 367 c 128,-1,17
 1724 379 1724 379 1772.5 396.5 c 128,-1,18
 1821 414 1821 414 1872 437 c 128,-1,19
 1923 460 1923 460 1964 489.5 c 128,-1,20
 2005 519 2005 519 2031.5 556 c 128,-1,21
 2058 593 2058 593 2058 638 c 0,22,23
 2058 667 2058 667 2049 688 c 128,-1,24
 2040 709 2040 709 2024.5 723 c 128,-1,25
 2009 737 2009 737 1988 743.5 c 128,-1,26
 1967 750 1967 750 1944 750 c 0,27,28
 1912 750 1912 750 1879 725.5 c 128,-1,29
 1846 701 1846 701 1823 656 c 1,30,-1
 1619 656 l 1,31,-1
 1619 978 l 1,32,33
 1662 1002 1662 1002 1720 1020 c 0,34,35
 1769 1036 1769 1036 1838.5 1049.5 c 128,-1,36
 1908 1063 1908 1063 1999 1063 c 0,37,38
 2107 1063 2107 1063 2197.5 1041 c 128,-1,39
 2288 1019 2288 1019 2353 973 c 128,-1,40
 2418 927 2418 927 2454 857 c 128,-1,41
 2490 787 2490 787 2490 690 c 0,42,43
 2490 630 2490 630 2473 581.5 c 128,-1,44
 2456 533 2456 533 2428.5 494 c 128,-1,45
 2401 455 2401 455 2366 424.5 c 128,-1,46
 2331 394 2331 394 2295 371 c 0,47,48
 2210 317 2210 317 2101 289 c 1,49,-1
 2484 289 l 1,50,-1
 2484 -1 l 1,51,-1
 1619 -1 l 1,14,-1
EndSplineSet
Validated: 19457
EndChar

StartChar: cedilla
Encoding: 184 184 124
Width: 724
Flags: W
HStem: -769 196<94.9998 395.899> -311 182<314 404.453>
VStem: 93 221<-129 128> 432 260<-545.012 -339.262>
LayerCount: 2
Fore
SplineSet
432 -442 m 0,0,1
 432 -411 432 -411 422 -386.5 c 128,-1,2
 412 -362 412 -362 395 -345.5 c 128,-1,3
 378 -329 378 -329 356.5 -320 c 128,-1,4
 335 -311 335 -311 313 -311 c 0,5,6
 286 -311 286 -311 260.5 -325 c 128,-1,7
 235 -339 235 -339 215 -368 c 1,8,-1
 93 -368 l 1,9,-1
 93 128 l 1,10,-1
 313 128 l 1,11,-1
 314 -129 l 1,12,-1
 325 -129 l 2,13,14
 330 -129 330 -129 335 -128.5 c 128,-1,15
 340 -128 340 -128 345 -128 c 0,16,17
 424 -128 424 -128 488 -146.5 c 128,-1,18
 552 -165 552 -165 597.5 -203 c 128,-1,19
 643 -241 643 -241 667.5 -300.5 c 128,-1,20
 692 -360 692 -360 692 -442 c 0,21,22
 692 -526 692 -526 665 -587.5 c 128,-1,23
 638 -649 638 -649 591 -689.5 c 128,-1,24
 544 -730 544 -730 480 -749.5 c 128,-1,25
 416 -769 416 -769 341 -769 c 0,26,27
 283 -769 283 -769 220 -758 c 128,-1,28
 157 -747 157 -747 93 -725 c 1,29,-1
 93 -535 l 1,30,31
 156 -554 156 -554 208.5 -563.5 c 128,-1,32
 261 -573 261 -573 296 -573 c 0,33,34
 362 -573 362 -573 397 -542 c 128,-1,35
 432 -511 432 -511 432 -442 c 0,0,1
EndSplineSet
Validated: 19457
EndChar

StartChar: ogonek
Encoding: 731 731 127
Width: 767
Flags: W
HStem: -876 323<416.101 696.999>
VStem: 60 320<-521.022 -285.782>
LayerCount: 2
Fore
SplineSet
380 -422 m 0,0,1
 380 -491 380 -491 415 -522 c 128,-1,2
 450 -553 450 -553 516 -553 c 0,3,4
 548 -553 548 -553 595 -543.5 c 128,-1,5
 642 -534 642 -534 699 -515 c 1,6,-1
 699 -832 l 1,7,8
 635 -853 635 -853 568 -864.5 c 128,-1,9
 501 -876 501 -876 443 -876 c 0,10,11
 359 -876 359 -876 289 -853.5 c 128,-1,12
 219 -831 219 -831 168 -783.5 c 128,-1,13
 117 -736 117 -736 88.5 -663.5 c 128,-1,14
 60 -591 60 -591 60 -492 c 0,15,16
 60 -442 60 -442 71 -393 c 128,-1,17
 82 -344 82 -344 99.5 -298.5 c 128,-1,18
 117 -253 117 -253 140 -211.5 c 128,-1,19
 163 -170 163 -170 187 -135 c 0,20,21
 242 -53 242 -53 315 20 c 1,22,-1
 649 20 l 1,23,24
 611 -17 611 -17 577 -55 c 128,-1,25
 543 -93 543 -93 514 -131 c 0,26,27
 489 -164 489 -164 465 -200.5 c 128,-1,28
 441 -237 441 -237 422 -274.5 c 128,-1,29
 403 -312 403 -312 391.5 -349.5 c 128,-1,30
 380 -387 380 -387 380 -422 c 0,0,1
EndSplineSet
Validated: 19457
EndChar

StartChar: ring
Encoding: 730 730 128
Width: 938
Flags: W
HStem: 1536 188<354.738 582.881> 2116 196<354.207 582.114>
VStem: 67 229<1783.44 2056.92> 642 229<1784.83 2055.19>
LayerCount: 2
Fore
SplineSet
871 1926 m 0,0,1
 871 1828 871 1828 836.5 1755 c 128,-1,2
 802 1682 802 1682 745.5 1633.5 c 128,-1,3
 689 1585 689 1585 616.5 1560.5 c 128,-1,4
 544 1536 544 1536 468 1536 c 0,5,6
 393 1536 393 1536 321 1560.5 c 128,-1,7
 249 1585 249 1585 192.5 1633.5 c 128,-1,8
 136 1682 136 1682 101.5 1755 c 128,-1,9
 67 1828 67 1828 67 1926 c 0,10,11
 67 2022 67 2022 101.5 2094.5 c 128,-1,12
 136 2167 136 2167 192 2215.5 c 128,-1,13
 248 2264 248 2264 320.5 2288 c 128,-1,14
 393 2312 393 2312 468 2312 c 256,15,16
 543 2312 543 2312 615.5 2288 c 128,-1,17
 688 2264 688 2264 745 2215.5 c 128,-1,18
 802 2167 802 2167 836.5 2094.5 c 128,-1,19
 871 2022 871 2022 871 1926 c 0,0,1
642 1921 m 0,20,21
 642 1969 642 1969 627 2005.5 c 128,-1,22
 612 2042 612 2042 587.5 2066.5 c 128,-1,23
 563 2091 563 2091 532 2103.5 c 128,-1,24
 501 2116 501 2116 468 2116 c 0,25,26
 436 2116 436 2116 405 2104 c 128,-1,27
 374 2092 374 2092 350 2067.5 c 128,-1,28
 326 2043 326 2043 311 2006.5 c 128,-1,29
 296 1970 296 1970 296 1921 c 0,30,31
 296 1871 296 1871 311 1834.5 c 128,-1,32
 326 1798 326 1798 350 1773 c 128,-1,33
 374 1748 374 1748 405 1736 c 128,-1,34
 436 1724 436 1724 469 1724 c 256,35,36
 502 1724 502 1724 533 1736.5 c 128,-1,37
 564 1749 564 1749 588 1773.5 c 128,-1,38
 612 1798 612 1798 627 1835 c 128,-1,39
 642 1872 642 1872 642 1921 c 0,20,21
EndSplineSet
Validated: 19457
EndChar

StartChar: questiondown
Encoding: 191 191 131
Width: 1393
Flags: W
HStem: -40 362<714.333 957.794> 23 409<987.368 1289.39> 1153 384<497 1137>
VStem: 45 641<350.331 524.995> 497 640<896.497 1024 1153 1537>
LayerCount: 2
Fore
SplineSet
1137 1537 m 1,0,-1
 1137 1153 l 1,1,-1
 497 1153 l 1,2,-1
 497 1537 l 1,3,-1
 1137 1537 l 1,0,-1
686 449 m 0,4,5
 686 418 686 418 696.5 394.5 c 128,-1,6
 707 371 707 371 724.5 355 c 128,-1,7
 742 339 742 339 765 330.5 c 128,-1,8
 788 322 788 322 814 322 c 0,9,10
 871 322 871 322 927 348.5 c 128,-1,11
 983 375 983 375 1026 432 c 1,12,-1
 1327 432 l 1,13,-1
 1327 86 l 1,14,15
 1259 50 1259 50 1170 23 c 0,16,17
 1092 -1 1092 -1 984 -20.5 c 128,-1,18
 876 -40 876 -40 735 -40 c 0,19,20
 577 -40 577 -40 449.5 -11.5 c 128,-1,21
 322 17 322 17 232 77 c 128,-1,22
 142 137 142 137 93.5 229 c 128,-1,23
 45 321 45 321 45 449 c 0,24,25
 45 559 45 559 80.5 636.5 c 128,-1,26
 116 714 116 714 177.5 767 c 128,-1,27
 239 820 239 820 321 853 c 128,-1,28
 403 886 403 886 497 907 c 1,29,-1
 497 1024 l 1,30,-1
 1134 1024 l 1,31,32
 1135 1025 1135 1025 1137 1025 c 1,33,-1
 1137 680 l 1,34,35
 1121 673 1121 673 1081.5 662.5 c 128,-1,36
 1042 652 1042 652 992 638 c 128,-1,37
 942 624 942 624 887.5 605.5 c 128,-1,38
 833 587 833 587 788.5 564 c 128,-1,39
 744 541 744 541 715 512 c 128,-1,40
 686 483 686 483 686 449 c 0,4,5
EndSplineSet
Validated: 19457
EndChar

StartChar: tilde
Encoding: 732 732 141
Width: 1053
Flags: W
HStem: 1538 377<568.871 871.28> 1634 396<172.684 471.466>
LayerCount: 2
Fore
SplineSet
975 2036 m 1,0,1
 915 1619 l 1,2,3
 883 1574 883 1574 841 1556 c 128,-1,4
 799 1538 799 1538 754 1538 c 0,5,6
 708 1538 708 1538 659 1553 c 128,-1,7
 610 1568 610 1568 560 1586 c 128,-1,8
 510 1604 510 1604 460 1619 c 128,-1,9
 410 1634 410 1634 362 1634 c 0,10,11
 293 1634 293 1634 223 1611 c 128,-1,12
 153 1588 153 1588 79 1529 c 1,13,-1
 141 1955 l 1,14,15
 178 1997 178 1997 220.5 2013.5 c 128,-1,16
 263 2030 263 2030 311 2030 c 0,17,18
 356 2030 356 2030 404 2012 c 128,-1,19
 452 1994 452 1994 501 1972.5 c 128,-1,20
 550 1951 550 1951 599 1933 c 128,-1,21
 648 1915 648 1915 696 1915 c 0,22,23
 764 1915 764 1915 832.5 1941.5 c 128,-1,24
 901 1968 901 1968 975 2036 c 1,0,1
EndSplineSet
Validated: 19457
EndChar

StartChar: AE
Encoding: 198 198 183
Width: 2424
Flags: W
HStem: 0 384<1740 2000.48> 258 343<930 1161> 1152 384<1740 2001.63>
LayerCount: 2
Fore
SplineSet
1740 655 m 1,0,-1
 1740 384 l 1,1,2
 1810 384 1810 384 1873 395.5 c 128,-1,3
 1936 407 1936 407 1989 425 c 128,-1,4
 2042 443 2042 443 2085.5 466 c 128,-1,5
 2129 489 2129 489 2162 512 c 1,6,-1
 2329 512 l 1,7,-1
 2329 0 l 1,8,-1
 1140 0 l 1,9,-1
 1161 258 l 1,10,-1
 743 258 l 1,11,-1
 615 0 l 1,12,-1
 46 0 l 1,13,-1
 193 504 l 1,14,-1
 323 529 l 1,15,-1
 914 1536 l 1,16,-1
 2329 1536 l 1,17,-1
 2329 1024 l 1,18,-1
 2168 1024 l 1,19,20
 2135 1046 2135 1046 2090.5 1069 c 128,-1,21
 2046 1092 2046 1092 1991.5 1110.5 c 128,-1,22
 1937 1129 1937 1129 1873.5 1140.5 c 128,-1,23
 1810 1152 1810 1152 1740 1152 c 1,24,-1
 1740 879 l 1,25,-1
 2040 944 l 1,26,-1
 2040 590 l 1,27,-1
 1740 655 l 1,0,-1
1222 1180 m 1,28,-1
 930 601 l 1,29,-1
 1176 601 l 1,30,-1
 1222 1180 l 1,28,-1
EndSplineSet
Validated: 19457
EndChar

StartChar: ae
Encoding: 230 230 184
Width: 2382
Flags: W
HStem: 0 402<1733 1997.32> 237 316<858 1095> 1006 402<1733 1994.43>
LayerCount: 2
Fore
SplineSet
1733 1006 m 1,0,1
 1733 789 l 1,2,-1
 2010 848 l 1,3,-1
 2010 563 l 1,4,-1
 1733 623 l 1,5,-1
 1733 402 l 1,6,7
 1795 402 1795 402 1852 410.5 c 128,-1,8
 1909 419 1909 419 1958.5 434 c 128,-1,9
 2008 449 2008 449 2049 469 c 128,-1,10
 2090 489 2090 489 2120 512 c 1,11,-1
 2287 512 l 1,12,-1
 2287 0 l 1,13,-1
 1073 0 l 1,14,-1
 1095 237 l 1,15,-1
 702 237 l 1,16,-1
 580 0 l 1,17,-1
 48 0 l 1,18,-1
 185 464 l 1,19,-1
 307 487 l 1,20,-1
 863 1408 l 1,21,-1
 2287 1408 l 1,22,-1
 2287 896 l 1,23,-1
 2120 896 l 1,24,25
 2090 918 2090 918 2049 938 c 128,-1,26
 2008 958 2008 958 1958.5 973 c 128,-1,27
 1909 988 1909 988 1852 997 c 128,-1,28
 1795 1006 1795 1006 1733 1006 c 1,0,1
1159 1106 m 1,29,-1
 858 553 l 1,30,-1
 1129 553 l 1,31,-1
 1159 1106 l 1,29,-1
EndSplineSet
Validated: 19457
EndChar

StartChar: oslash
Encoding: 248 248 185
Width: 1794
Flags: W
HStem: -37 465<875.521 1050.16> 1014 436<742.222 927.547>
VStem: 56 602<528.542 925.307> 1139 601<517.992 907.115>
LayerCount: 2
Fore
SplineSet
897 -37 m 0,0,1
 834 -37 834 -37 777 -32 c 128,-1,2
 720 -27 720 -27 663 -17 c 1,3,-1
 572 -208 l 1,4,-1
 380 -128 l 1,5,-1
 462 43 l 1,6,7
 370 83 370 83 295 144 c 128,-1,8
 220 205 220 205 167 288.5 c 128,-1,9
 114 372 114 372 85 480 c 128,-1,10
 56 588 56 588 56 723 c 0,11,12
 56 919 56 919 121.5 1057.5 c 128,-1,13
 187 1196 187 1196 301 1283 c 128,-1,14
 415 1370 415 1370 568 1410 c 128,-1,15
 721 1450 721 1450 897 1450 c 0,16,17
 1020 1450 1020 1450 1130 1431 c 1,18,-1
 1212 1600 l 1,19,-1
 1404 1536 l 1,20,-1
 1327 1376 l 1,21,22
 1420 1338 1420 1338 1496 1280 c 128,-1,23
 1572 1222 1572 1222 1626 1142 c 128,-1,24
 1680 1062 1680 1062 1710 957.5 c 128,-1,25
 1740 853 1740 853 1740 723 c 0,26,27
 1740 588 1740 588 1710 479 c 128,-1,28
 1680 370 1680 370 1625.5 285.5 c 128,-1,29
 1571 201 1571 201 1494.5 140 c 128,-1,30
 1418 79 1418 79 1324 39.5 c 128,-1,31
 1230 0 1230 0 1122 -18.5 c 128,-1,32
 1014 -37 1014 -37 897 -37 c 0,0,1
897 1014 m 0,33,34
 837 1014 837 1014 796 999 c 128,-1,35
 755 984 755 984 728.5 959 c 128,-1,36
 702 934 702 934 687.5 902.5 c 128,-1,37
 673 871 673 871 666.5 839 c 128,-1,38
 660 807 660 807 659 776.5 c 128,-1,39
 658 746 658 746 658 723 c 0,40,41
 658 705 658 705 658.5 681 c 128,-1,42
 659 657 659 657 662.5 631 c 128,-1,43
 666 605 666 605 673.5 578 c 128,-1,44
 681 551 681 551 695 527 c 1,45,-1
 929 1012 l 1,46,47
 921 1013 921 1013 913 1013.5 c 128,-1,48
 905 1014 905 1014 897 1014 c 0,33,34
1139 723 m 0,49,50
 1139 740 1139 740 1138.5 762.5 c 128,-1,51
 1138 785 1138 785 1134.5 809.5 c 128,-1,52
 1131 834 1131 834 1124 859.5 c 128,-1,53
 1117 885 1117 885 1104 908 c 1,54,-1
 875 428 l 1,55,-1
 897 428 l 2,56,57
 957 428 957 428 998.5 443.5 c 128,-1,58
 1040 459 1040 459 1066.5 484.5 c 128,-1,59
 1093 510 1093 510 1108 542 c 128,-1,60
 1123 574 1123 574 1129.5 606.5 c 128,-1,61
 1136 639 1136 639 1137.5 669.5 c 128,-1,62
 1139 700 1139 700 1139 723 c 0,49,50
EndSplineSet
Validated: 19457
EndChar

StartChar: Oslash
Encoding: 216 216 186
Width: 1905
Flags: W
HStem: -40 505<930.992 1111.13> 1102 474<791.602 1003.11>
VStem: 57 640<565.939 1004.53> 1209 640<569.391 980.531>
LayerCount: 2
Fore
SplineSet
952 -40 m 0,0,1
 817 -40 817 -40 696 -16 c 1,2,-1
 605 -208 l 1,3,-1
 413 -128 l 1,4,-1
 496 44 l 1,5,6
 397 87 397 87 316 153 c 128,-1,7
 235 219 235 219 177.5 310.5 c 128,-1,8
 120 402 120 402 88.5 520.5 c 128,-1,9
 57 639 57 639 57 786 c 0,10,11
 57 928 57 928 88.5 1041.5 c 128,-1,12
 120 1155 120 1155 178 1243 c 128,-1,13
 236 1331 236 1331 317.5 1394 c 128,-1,14
 399 1457 399 1457 498.5 1497.5 c 128,-1,15
 598 1538 598 1538 712.5 1557 c 128,-1,16
 827 1576 827 1576 952 1576 c 0,17,18
 1098 1576 1098 1576 1223 1551 c 1,19,-1
 1309 1728 l 1,20,-1
 1501 1664 l 1,21,-1
 1418 1492 l 1,22,23
 1515 1451 1515 1451 1594.5 1388 c 128,-1,24
 1674 1325 1674 1325 1730.5 1238 c 128,-1,25
 1787 1151 1787 1151 1818 1038.5 c 128,-1,26
 1849 926 1849 926 1849 786 c 0,27,28
 1849 565 1849 565 1779 408.5 c 128,-1,29
 1709 252 1709 252 1587.5 152 c 128,-1,30
 1466 52 1466 52 1302.5 6 c 128,-1,31
 1139 -40 1139 -40 952 -40 c 0,0,1
952 1102 m 0,32,33
 888 1102 888 1102 844.5 1085.5 c 128,-1,34
 801 1069 801 1069 772.5 1042 c 128,-1,35
 744 1015 744 1015 729 981 c 128,-1,36
 714 947 714 947 706.5 912 c 128,-1,37
 699 877 699 877 698 844 c 128,-1,38
 697 811 697 811 697 786 c 0,39,40
 697 765 697 765 697.5 737 c 128,-1,41
 698 709 698 709 702.5 679 c 128,-1,42
 707 649 707 649 717 618 c 128,-1,43
 727 587 727 587 745 560 c 1,44,-1
 1005 1098 l 1,45,46
 994 1100 994 1100 980.5 1101 c 128,-1,47
 967 1102 967 1102 952 1102 c 0,32,33
1209 786 m 0,48,49
 1209 805 1209 805 1208 828.5 c 128,-1,50
 1207 852 1207 852 1204 878 c 128,-1,51
 1201 904 1201 904 1194 930.5 c 128,-1,52
 1187 957 1187 957 1175 983 c 1,53,-1
 927 466 l 1,54,55
 933 465 933 465 939 465 c 128,-1,56
 945 465 945 465 952 465 c 0,57,58
 1016 465 1016 465 1059.5 482 c 128,-1,59
 1103 499 1103 499 1132 526.5 c 128,-1,60
 1161 554 1161 554 1176.5 589 c 128,-1,61
 1192 624 1192 624 1199 659.5 c 128,-1,62
 1206 695 1206 695 1207.5 728 c 128,-1,63
 1209 761 1209 761 1209 786 c 0,48,49
EndSplineSet
Validated: 19457
EndChar

StartChar: degree
Encoding: 176 176 187
Width: 938
Flags: W
HStem: 800 188<354.738 582.881> 1380 196<354.207 582.114>
VStem: 67 229<1047.44 1320.92> 642 229<1048.83 1319.19>
LayerCount: 2
Fore
SplineSet
871 1190 m 0,0,1
 871 1092 871 1092 836.5 1019 c 128,-1,2
 802 946 802 946 745.5 897.5 c 128,-1,3
 689 849 689 849 616.5 824.5 c 128,-1,4
 544 800 544 800 468 800 c 0,5,6
 393 800 393 800 321 824.5 c 128,-1,7
 249 849 249 849 192.5 897.5 c 128,-1,8
 136 946 136 946 101.5 1019 c 128,-1,9
 67 1092 67 1092 67 1190 c 0,10,11
 67 1286 67 1286 101.5 1358.5 c 128,-1,12
 136 1431 136 1431 192 1479.5 c 128,-1,13
 248 1528 248 1528 320.5 1552 c 128,-1,14
 393 1576 393 1576 468 1576 c 256,15,16
 543 1576 543 1576 615.5 1552 c 128,-1,17
 688 1528 688 1528 745 1479.5 c 128,-1,18
 802 1431 802 1431 836.5 1358.5 c 128,-1,19
 871 1286 871 1286 871 1190 c 0,0,1
642 1185 m 0,20,21
 642 1233 642 1233 627 1269.5 c 128,-1,22
 612 1306 612 1306 587.5 1330.5 c 128,-1,23
 563 1355 563 1355 532 1367.5 c 128,-1,24
 501 1380 501 1380 468 1380 c 0,25,26
 436 1380 436 1380 405 1368 c 128,-1,27
 374 1356 374 1356 350 1331.5 c 128,-1,28
 326 1307 326 1307 311 1270.5 c 128,-1,29
 296 1234 296 1234 296 1185 c 0,30,31
 296 1135 296 1135 311 1098.5 c 128,-1,32
 326 1062 326 1062 350 1037 c 128,-1,33
 374 1012 374 1012 405 1000 c 128,-1,34
 436 988 436 988 469 988 c 256,35,36
 502 988 502 988 533 1000.5 c 128,-1,37
 564 1013 564 1013 588 1037.5 c 128,-1,38
 612 1062 612 1062 627 1099 c 128,-1,39
 642 1136 642 1136 642 1185 c 0,20,21
EndSplineSet
Validated: 19457
EndChar

StartChar: multiply
Encoding: 215 215 189
Width: 1040
Flags: W
LayerCount: 2
Fore
SplineSet
248 315 m 1,0,-1
 67 496 l 1,1,-1
 339 768 l 1,2,-1
 67 1040 l 1,3,-1
 248 1221 l 1,4,-1
 520 949 l 1,5,-1
 792 1221 l 1,6,-1
 973 1040 l 1,7,-1
 701 768 l 1,8,-1
 973 496 l 1,9,-1
 792 315 l 1,10,-1
 520 587 l 1,11,-1
 248 315 l 1,0,-1
EndSplineSet
Validated: 3073
EndChar

StartChar: ordfeminine
Encoding: 170 170 190
Width: 1314
Flags: W
HStem: 512 284<473 782> 1310 225<598.925 780.857>
VStem: 72 469<856.916 1232.07> 782 442<544 640 796 1309.17>
LayerCount: 2
Fore
SplineSet
782 544 m 1,0,-1
 782 640 l 1,1,2
 691 571 691 571 613.5 541.5 c 128,-1,3
 536 512 536 512 473 512 c 0,4,5
 404 512 404 512 347.5 533.5 c 128,-1,6
 291 555 291 555 246.5 590.5 c 128,-1,7
 202 626 202 626 169 673.5 c 128,-1,8
 136 721 136 721 114.5 773 c 128,-1,9
 93 825 93 825 82.5 878.5 c 128,-1,10
 72 932 72 932 72 980 c 0,11,12
 72 1121 72 1121 114 1225.5 c 128,-1,13
 156 1330 156 1330 231.5 1398.5 c 128,-1,14
 307 1467 307 1467 412 1501 c 128,-1,15
 517 1535 517 1535 643 1535 c 0,16,17
 771 1535 771 1535 920.5 1508 c 128,-1,18
 1070 1481 1070 1481 1224 1430 c 1,19,-1
 1224 544 l 1,20,-1
 782 544 l 1,0,-1
782 796 m 1,21,22
 782 1303 l 1,23,24
 750 1310 750 1310 713 1310 c 0,25,26
 623 1310 623 1310 582 1245 c 128,-1,27
 541 1180 541 1180 541 1039 c 0,28,29
 541 958 541 958 558 909.5 c 128,-1,30
 575 861 575 861 606.5 836 c 128,-1,31
 638 811 638 811 682.5 803.5 c 128,-1,32
 727 796 727 796 782 796 c 1,21,22
EndSplineSet
Validated: 19457
EndChar

StartChar: Thorn
Encoding: 222 222 191
Width: 1790
Flags: W
HStem: 0 21G<95 991> 543 275<863 1066.14> 1190 299<863 1068.92>
VStem: 223 640<459 543 818 1158> 1119 640<868.3 1140>
LayerCount: 2
Fore
SplineSet
95 1183 m 1,0,-1
 95 1664 l 1,1,-1
 863 1664 l 1,2,-1
 863 1489 l 1,3,-1
 966 1489 l 2,4,5
 1136 1489 1136 1489 1261 1475.5 c 128,-1,6
 1386 1462 1386 1462 1474 1435 c 128,-1,7
 1562 1408 1562 1408 1617.5 1367.5 c 128,-1,8
 1673 1327 1673 1327 1704.5 1273 c 128,-1,9
 1736 1219 1736 1219 1747.5 1152 c 128,-1,10
 1759 1085 1759 1085 1759 1005 c 0,11,12
 1759 942 1759 942 1745.5 883 c 128,-1,13
 1732 824 1732 824 1696 772.5 c 128,-1,14
 1660 721 1660 721 1596.5 678.5 c 128,-1,15
 1533 636 1533 636 1433.5 606 c 128,-1,16
 1334 576 1334 576 1193.5 559.5 c 128,-1,17
 1053 543 1053 543 863 543 c 1,18,-1
 863 459 l 1,19,-1
 991 434 l 1,20,-1
 991 0 l 1,21,-1
 95 0 l 1,22,-1
 95 434 l 1,23,-1
 223 459 l 1,24,-1
 223 1158 l 1,25,-1
 95 1183 l 1,0,-1
863 1190 m 1,26,27
 863 818 l 1,28,29
 921 818 921 818 968.5 824 c 128,-1,30
 1016 830 1016 830 1049.5 849.5 c 128,-1,31
 1083 869 1083 869 1101 906 c 128,-1,32
 1119 943 1119 943 1119 1006 c 0,33,34
 1119 1067 1119 1067 1101 1103.5 c 128,-1,35
 1083 1140 1083 1140 1049.5 1159 c 128,-1,36
 1016 1178 1016 1178 968.5 1184 c 128,-1,37
 921 1190 921 1190 863 1190 c 1,26,27
EndSplineSet
Validated: 19457
EndChar

StartChar: thorn
Encoding: 254 254 192
Width: 1688
Flags: W
HStem: 0 21G<95 937> 473 253<817 1009.07> 1098 240<817 1012.44> 1516 20G<95 817>
VStem: 215 602<422 473 726 1098> 1058 601<774.954 1051.82>
LayerCount: 2
Fore
SplineSet
95 1142 m 1,0,-1
 95 1536 l 1,1,-1
 817 1536 l 1,2,-1
 817 1338 l 1,3,-1
 914 1338 l 2,4,5
 1074 1338 1074 1338 1191.5 1324 c 128,-1,6
 1309 1310 1309 1310 1391.5 1284 c 128,-1,7
 1474 1258 1474 1258 1526.5 1220 c 128,-1,8
 1579 1182 1579 1182 1608.5 1134.5 c 128,-1,9
 1638 1087 1638 1087 1648.5 1030.5 c 128,-1,10
 1659 974 1659 974 1659 910 c 0,11,12
 1659 844 1659 844 1646.5 786 c 128,-1,13
 1634 728 1634 728 1600 679.5 c 128,-1,14
 1566 631 1566 631 1506.5 592.5 c 128,-1,15
 1447 554 1447 554 1353.5 527.5 c 128,-1,16
 1260 501 1260 501 1128 487 c 128,-1,17
 996 473 996 473 817 473 c 1,18,-1
 817 422 l 1,19,-1
 937 399 l 1,20,-1
 937 0 l 1,21,-1
 95 0 l 1,22,-1
 95 399 l 1,23,-1
 215 422 l 1,24,-1
 215 1119 l 1,25,-1
 95 1142 l 1,0,-1
817 1098 m 1,26,27
 817 726 l 1,28,29
 872 726 872 726 916.5 732 c 128,-1,30
 961 738 961 738 992.5 758 c 128,-1,31
 1024 778 1024 778 1041 816 c 128,-1,32
 1058 854 1058 854 1058 919 c 0,33,34
 1058 979 1058 979 1041 1014 c 128,-1,35
 1024 1049 1024 1049 992.5 1068 c 128,-1,36
 961 1087 961 1087 916.5 1092.5 c 128,-1,37
 872 1098 872 1098 817 1098 c 1,26,27
EndSplineSet
Validated: 19457
EndChar

StartChar: eth
Encoding: 240 240 193
Width: 1850
Flags: W
HStem: 0 422<817 1104.36> 592 256<98 215 817 994> 1025 383<817 1106.4>
VStem: 1177 602<491.547 955.466>
LayerCount: 2
Fore
SplineSet
98 592 m 1,0,-1
 98 848 l 1,1,-1
 215 848 l 1,2,-1
 215 1025 l 1,3,-1
 95 1048 l 1,4,-1
 95 1408 l 1,5,-1
 1190 1408 l 1,6,7
 1326 1379 1326 1379 1435 1326 c 128,-1,8
 1544 1273 1544 1273 1620.5 1190.5 c 128,-1,9
 1697 1108 1697 1108 1738 992.5 c 128,-1,10
 1779 877 1779 877 1779 723 c 0,11,12
 1779 588 1779 588 1747.5 481.5 c 128,-1,13
 1716 375 1716 375 1657.5 294.5 c 128,-1,14
 1599 214 1599 214 1514 158 c 128,-1,15
 1429 102 1429 102 1322.5 67 c 128,-1,16
 1216 32 1216 32 1088.5 16 c 128,-1,17
 961 0 961 0 817 0 c 2,18,-1
 95 0 l 1,19,-1
 95 399 l 1,20,-1
 215 422 l 1,21,-1
 215 592 l 1,22,-1
 98 592 l 1,0,-1
817 422 m 1,23,-1
 909 422 l 2,24,25
 976 422 976 422 1022 432 c 128,-1,26
 1068 442 1068 442 1097.5 460 c 128,-1,27
 1127 478 1127 478 1143.5 505 c 128,-1,28
 1160 532 1160 532 1167.5 565 c 128,-1,29
 1175 598 1175 598 1176 638 c 128,-1,30
 1177 678 1177 678 1177 723 c 256,31,32
 1177 768 1177 768 1176 808 c 128,-1,33
 1175 848 1175 848 1167.5 881.5 c 128,-1,34
 1160 915 1160 915 1143.5 941.5 c 128,-1,35
 1127 968 1127 968 1097.5 986.5 c 128,-1,36
 1068 1005 1068 1005 1022 1015 c 128,-1,37
 976 1025 976 1025 909 1025 c 2,38,-1
 817 1025 l 1,39,-1
 817 848 l 1,40,-1
 994 848 l 1,41,-1
 994 592 l 1,42,-1
 817 592 l 1,43,-1
 817 422 l 1,23,-1
EndSplineSet
Validated: 19457
EndChar

StartChar: Eth
Encoding: 208 208 194
Width: 1958
Flags: W
HStem: 0 459<863 1165.26> 640 256<99 223 863 995> 1114 422<863 1166.51>
VStem: 1246 641<536.664 1035.89>
LayerCount: 2
Fore
SplineSet
99 640 m 1,0,-1
 99 896 l 1,1,-1
 223 896 l 1,2,-1
 223 1114 l 1,3,-1
 95 1139 l 1,4,-1
 95 1536 l 1,5,-1
 1260 1536 l 1,6,7
 1405 1505 1405 1505 1521 1446.5 c 128,-1,8
 1637 1388 1637 1388 1718.5 1297 c 128,-1,9
 1800 1206 1800 1206 1843.5 1079.5 c 128,-1,10
 1887 953 1887 953 1887 786 c 0,11,12
 1887 565 1887 565 1813 414.5 c 128,-1,13
 1739 264 1739 264 1604.5 172 c 128,-1,14
 1470 80 1470 80 1281 40 c 128,-1,15
 1092 0 1092 0 863 0 c 2,16,-1
 95 0 l 1,17,-1
 95 434 l 1,18,-1
 223 459 l 1,19,-1
 223 640 l 1,20,-1
 99 640 l 1,0,-1
863 459 m 1,21,-1
 961 459 l 2,22,23
 1068 459 1068 459 1126 482.5 c 128,-1,24
 1184 506 1184 506 1210.5 549 c 128,-1,25
 1237 592 1237 592 1241.5 652 c 128,-1,26
 1246 712 1246 712 1246 786 c 256,27,28
 1246 860 1246 860 1241.5 920.5 c 128,-1,29
 1237 981 1237 981 1210.5 1024 c 128,-1,30
 1184 1067 1184 1067 1126 1090.5 c 128,-1,31
 1068 1114 1068 1114 961 1114 c 2,32,-1
 863 1114 l 1,33,-1
 863 896 l 1,34,-1
 995 896 l 1,35,-1
 995 640 l 1,36,-1
 863 640 l 1,37,-1
 863 459 l 1,21,-1
EndSplineSet
Validated: 19457
EndChar

StartChar: germandbls
Encoding: 223 223 195
Width: 1854
Flags: W
HStem: 0 21G<77 845 973 1319> 680 215<973 1127.99> 1190 346<881.33 1132.21>
VStem: 205 640<459 1153.44> 1166 618<424.879 623.684> 1166 474<967.532 1156.44>
LayerCount: 2
Fore
SplineSet
973 0 m 1,0,-1
 973 385 l 1,1,2
 1033 385 1033 385 1070.5 397.5 c 128,-1,3
 1108 410 1108 410 1129.5 431 c 128,-1,4
 1151 452 1151 452 1158.5 478.5 c 128,-1,5
 1166 505 1166 505 1166 533 c 0,6,7
 1166 560 1166 560 1158.5 586.5 c 128,-1,8
 1151 613 1151 613 1130 634 c 128,-1,9
 1109 655 1109 655 1071 667.5 c 128,-1,10
 1033 680 1033 680 973 680 c 1,11,-1
 973 895 l 1,12,13
 1034 895 1034 895 1072 908 c 128,-1,14
 1110 921 1110 921 1131 942.5 c 128,-1,15
 1152 964 1152 964 1159 991 c 128,-1,16
 1166 1018 1166 1018 1166 1046 c 0,17,18
 1166 1073 1166 1073 1160 1099 c 128,-1,19
 1154 1125 1154 1125 1135 1145 c 128,-1,20
 1116 1165 1116 1165 1082 1177.5 c 128,-1,21
 1048 1190 1048 1190 992 1190 c 0,22,23
 964 1190 964 1190 937.5 1181 c 128,-1,24
 911 1172 911 1172 890.5 1154 c 128,-1,25
 870 1136 870 1136 857.5 1108.5 c 128,-1,26
 845 1081 845 1081 845 1044 c 2,27,-1
 845 0 l 1,28,-1
 77 0 l 1,29,-1
 77 434 l 1,30,-1
 205 459 l 1,31,-1
 205 1177 l 2,32,33
 205 1324 205 1324 284.5 1411 c 128,-1,34
 364 1498 364 1498 522 1536 c 1,35,-1
 1128 1536 l 2,36,37
 1263 1536 1263 1536 1360 1502.5 c 128,-1,38
 1457 1469 1457 1469 1519 1414 c 128,-1,39
 1581 1359 1581 1359 1610.5 1289.5 c 128,-1,40
 1640 1220 1640 1220 1640 1147 c 0,41,42
 1640 1090 1640 1090 1623 1035 c 128,-1,43
 1606 980 1606 980 1574 932 c 128,-1,44
 1542 884 1542 884 1495.5 846 c 128,-1,45
 1449 808 1449 808 1391 786 c 1,46,47
 1500 782 1500 782 1587 745 c 0,48,49
 1624 730 1624 730 1659 706 c 128,-1,50
 1694 682 1694 682 1722 647.5 c 128,-1,51
 1750 613 1750 613 1767 566 c 128,-1,52
 1784 519 1784 519 1784 459 c 0,53,54
 1784 361 1784 361 1759.5 277 c 128,-1,55
 1735 193 1735 193 1673.5 131.5 c 128,-1,56
 1612 70 1612 70 1506 35 c 128,-1,57
 1400 0 1400 0 1238 0 c 2,58,-1
 973 0 l 1,0,-1
EndSplineSet
Validated: 19457
EndChar

StartChar: section
Encoding: 167 167 196
Width: 1167
Flags: W
HStem: -41 266<391.148 593.249> 5 331<111.279 366.908> 1199 330<800.027 1058.46> 1310 266<573.758 775.568>
VStem: 80 354<693.012 829.366> 740 347<688.345 872.648>
LayerCount: 2
Fore
SplineSet
80 707 m 256,0,1
 80 794 80 794 106 855.5 c 128,-1,2
 132 917 132 917 177 962 c 1,3,4
 132 1000 132 1000 106 1052.5 c 128,-1,5
 80 1105 80 1105 80 1175 c 0,6,7
 80 1299 80 1299 125 1377.5 c 128,-1,8
 170 1456 170 1456 243 1500 c 128,-1,9
 316 1544 316 1544 407.5 1560 c 128,-1,10
 499 1576 499 1576 592 1576 c 0,11,12
 703 1576 703 1576 789 1561 c 128,-1,13
 875 1546 875 1546 936 1529 c 0,14,15
 971 1519 971 1519 1002.5 1507.5 c 128,-1,16
 1034 1496 1034 1496 1061 1483 c 1,17,-1
 1061 1199 l 1,18,-1
 835 1199 l 1,19,20
 797 1256 797 1256 750 1283 c 128,-1,21
 703 1310 703 1310 652 1310 c 0,22,23
 638 1310 638 1310 620.5 1305.5 c 128,-1,24
 603 1301 603 1301 588 1286 c 128,-1,25
 573 1271 573 1271 562.5 1241 c 128,-1,26
 552 1211 552 1211 552 1160 c 1,27,28
 684 1155 684 1155 784.5 1135.5 c 128,-1,29
 885 1116 885 1116 952 1077 c 128,-1,30
 1019 1038 1019 1038 1053 977 c 128,-1,31
 1087 916 1087 916 1087 828 c 256,32,33
 1087 740 1087 740 1060.5 678.5 c 128,-1,34
 1034 617 1034 617 989 572 c 1,35,36
 1034 534 1034 534 1060.5 482 c 128,-1,37
 1087 430 1087 430 1087 360 c 0,38,39
 1087 277 1087 277 1066.5 215 c 128,-1,40
 1046 153 1046 153 1009.5 108.5 c 128,-1,41
 973 64 973 64 924 35 c 128,-1,42
 875 6 875 6 818 -11 c 128,-1,43
 761 -28 761 -28 699 -34.5 c 128,-1,44
 637 -41 637 -41 575 -41 c 0,45,46
 463 -41 463 -41 377.5 -26.5 c 128,-1,47
 292 -12 292 -12 231 5 c 0,48,49
 162 24 162 24 106 52 c 1,50,-1
 106 336 l 1,51,-1
 332 336 l 1,52,53
 370 279 370 279 417 252 c 128,-1,54
 464 225 464 225 515 225 c 0,55,56
 529 225 529 225 546.5 229.5 c 128,-1,57
 564 234 564 234 579 249 c 128,-1,58
 594 264 594 264 604.5 294 c 128,-1,59
 615 324 615 324 615 375 c 1,60,61
 483 379 483 379 382.5 399 c 128,-1,62
 282 419 282 419 215 458.5 c 128,-1,63
 148 498 148 498 114 559 c 128,-1,64
 80 620 80 620 80 707 c 256,0,1
599 853 m 1,65,66
 529 859 l 1,67,68
 508 852 508 852 490.5 839 c 128,-1,69
 473 826 473 826 460.5 810 c 128,-1,70
 448 794 448 794 441 776.5 c 128,-1,71
 434 759 434 759 434 743 c 0,72,73
 434 711 434 711 473.5 694.5 c 128,-1,74
 513 678 513 678 585 667 c 1,75,-1
 639 660 l 1,76,77
 665 667 665 667 684 680 c 128,-1,78
 703 693 703 693 715.5 709 c 128,-1,79
 728 725 728 725 734 742.5 c 128,-1,80
 740 760 740 760 740 776 c 0,81,82
 740 808 740 808 703 826 c 128,-1,83
 666 844 666 844 599 853 c 1,65,66
EndSplineSet
Validated: 19457
EndChar

StartChar: currency
Encoding: 164 164 197
Width: 1324
Flags: W
HStem: 446 272<528.641 798.143> 1188 281<528.216 798.076> 1528 20G<235 274.862 1049 1089>
VStem: 152 291<804.623 1101.9> 885 291<805.904 1099.62>
LayerCount: 2
Fore
SplineSet
1176 960 m 0,0,1
 1176 879 1176 879 1158.5 813 c 128,-1,2
 1141 747 1141 747 1110 692 c 1,3,-1
 1250 553 l 1,4,-1
 1069 372 l 1,5,-1
 928 513 l 1,6,7
 867 479 867 479 799.5 462.5 c 128,-1,8
 732 446 732 446 662 446 c 0,9,10
 593 446 593 446 525 463 c 128,-1,11
 457 480 457 480 397 514 c 1,12,-1
 255 372 l 1,13,-1
 74 553 l 1,14,-1
 216 695 l 1,15,16
 186 749 186 749 169 815.5 c 128,-1,17
 152 882 152 882 152 960 c 256,18,19
 152 1038 152 1038 169 1104 c 128,-1,20
 186 1170 186 1170 216 1224 c 1,21,-1
 74 1367 l 1,22,-1
 255 1548 l 1,23,-1
 399 1403 l 1,24,25
 459 1436 459 1436 526 1452.5 c 128,-1,26
 593 1469 593 1469 662 1469 c 256,27,28
 731 1469 731 1469 798 1452.5 c 128,-1,29
 865 1436 865 1436 925 1404 c 1,30,-1
 1069 1548 l 1,31,-1
 1250 1367 l 1,32,-1
 1109 1226 l 1,33,34
 1141 1172 1141 1172 1158.5 1105.5 c 128,-1,35
 1176 1039 1176 1039 1176 960 c 0,0,1
885 954 m 0,36,37
 885 1012 885 1012 866 1055.5 c 128,-1,38
 847 1099 847 1099 815.5 1128.5 c 128,-1,39
 784 1158 784 1158 744 1173 c 128,-1,40
 704 1188 704 1188 662 1188 c 0,41,42
 621 1188 621 1188 581.5 1173 c 128,-1,43
 542 1158 542 1158 511.5 1129 c 128,-1,44
 481 1100 481 1100 462 1056 c 128,-1,45
 443 1012 443 1012 443 954 c 0,46,47
 443 895 443 895 462 850.5 c 128,-1,48
 481 806 481 806 512 776.5 c 128,-1,49
 543 747 543 747 582.5 732.5 c 128,-1,50
 622 718 622 718 663 718 c 0,51,52
 705 718 705 718 745 733 c 128,-1,53
 785 748 785 748 816 777.5 c 128,-1,54
 847 807 847 807 866 851 c 128,-1,55
 885 895 885 895 885 954 c 0,36,37
EndSplineSet
Validated: 19457
EndChar

StartChar: breve
Encoding: 728 728 198
Width: 934
Flags: W
HStem: 1535 293<370.514 562.846>
LayerCount: 2
Fore
SplineSet
65 1980 m 1,0,1
 334 1980 l 1,2,3
 334 1942 334 1942 345.5 1914 c 128,-1,4
 357 1886 357 1886 375.5 1866.5 c 128,-1,5
 394 1847 394 1847 418 1837.5 c 128,-1,6
 442 1828 442 1828 467 1828 c 256,7,8
 492 1828 492 1828 515.5 1837.5 c 128,-1,9
 539 1847 539 1847 558 1866.5 c 128,-1,10
 577 1886 577 1886 588.5 1914 c 128,-1,11
 600 1942 600 1942 600 1980 c 1,12,-1
 869 1980 l 1,13,14
 869 1868 869 1868 834.5 1784.5 c 128,-1,15
 800 1701 800 1701 743.5 1645.5 c 128,-1,16
 687 1590 687 1590 614.5 1562.5 c 128,-1,17
 542 1535 542 1535 466 1535 c 0,18,19
 391 1535 391 1535 319 1562.5 c 128,-1,20
 247 1590 247 1590 190.5 1645.5 c 128,-1,21
 134 1701 134 1701 99.5 1784.5 c 128,-1,22
 65 1868 65 1868 65 1980 c 1,0,1
EndSplineSet
Validated: 19457
EndChar

StartChar: dotaccent
Encoding: 729 729 199
Width: 829
Flags: W
HStem: 1664 512<95 735>
VStem: 95 640<1664 2176>
LayerCount: 2
Fore
SplineSet
95 1664 m 1,0,-1
 95 2176 l 1,1,-1
 735 2176 l 1,2,-1
 735 1664 l 1,3,-1
 95 1664 l 1,0,-1
EndSplineSet
Validated: 19457
EndChar

StartChar: trademark
Encoding: 8482 8482 200
Width: 2427
Flags: W
HStem: 640 253<269 344 717 792 1062 1137 2257 2332> 1237 299<83 257.18 805.019 979> 1283 253<1062 1137 2257 2332> 1312 224<238.997 344 717 822.275>
VStem: 344 373<907 1312>
LayerCount: 2
Fore
SplineSet
1697 755 m 1,0,-1
 1510 1077 l 1,1,-1
 1510 640 l 1,2,-1
 1062 640 l 1,3,-1
 1062 893 l 1,4,-1
 1137 907 l 1,5,-1
 1137 1269 l 1,6,-1
 1062 1283 l 1,7,-1
 1062 1536 l 1,8,-1
 1510 1536 l 1,9,-1
 1697 1192 l 1,10,-1
 1884 1536 l 1,11,-1
 2332 1536 l 1,12,-1
 2332 1283 l 1,13,-1
 2257 1269 l 1,14,-1
 2257 907 l 1,15,-1
 2332 893 l 1,16,-1
 2332 640 l 1,17,-1
 1884 640 l 1,18,-1
 1884 1077 l 1,19,-1
 1697 755 l 1,0,-1
83 1536 m 1,20,-1
 979 1536 l 1,21,-1
 979 1237 l 1,22,-1
 850 1237 l 1,23,24
 839 1250 839 1250 826 1263.5 c 128,-1,25
 813 1277 813 1277 796.5 1287.5 c 128,-1,26
 780 1298 780 1298 760.5 1305 c 128,-1,27
 741 1312 741 1312 717 1312 c 1,28,-1
 717 907 l 1,29,-1
 792 893 l 1,30,-1
 792 640 l 1,31,-1
 269 640 l 1,32,-1
 269 893 l 1,33,-1
 344 907 l 1,34,-1
 344 1312 l 1,35,36
 322 1312 322 1312 302.5 1305 c 128,-1,37
 283 1298 283 1298 266 1287.5 c 128,-1,38
 249 1277 249 1277 235 1263.5 c 128,-1,39
 221 1250 221 1250 211 1237 c 1,40,-1
 83 1237 l 1,41,-1
 83 1536 l 1,20,-1
EndSplineSet
Validated: 19457
EndChar

StartChar: four
Encoding: 52 52 201
Width: 1688
Flags: W
HStem: 0 21G<546 1442> 592 256<402 674 1314 1634> 1556 20G<994 1314>
VStem: 674 640<459 592 848 1168>
LayerCount: 2
Fore
SplineSet
34 592 m 1,0,-1
 34 848 l 1,1,-1
 674 1536 l 1,2,-1
 1314 1576 l 1,3,-1
 1314 848 l 1,4,-1
 1634 848 l 1,5,-1
 1634 592 l 1,6,-1
 1314 592 l 1,7,-1
 1314 459 l 1,8,-1
 1442 434 l 1,9,-1
 1442 0 l 1,10,-1
 546 0 l 1,11,-1
 546 434 l 1,12,-1
 674 459 l 1,13,-1
 674 592 l 1,14,-1
 34 592 l 1,0,-1
674 1168 m 1,15,-1
 402 848 l 1,16,-1
 674 848 l 1,17,-1
 674 1168 l 1,15,-1
EndSplineSet
Validated: 19457
EndChar

StartChar: threequarters
Encoding: 190 190 202
Width: 3021
Flags: W
HStem: 0 293<2235 2308.37 2767.63 2841> 400 173<2138 2322 2754 2970> 469 274<316.246 566.13> 511 328<61.6921 305.862> 554 285<60 194.727> 920 203<323 578.244> 1204 285<60 192.776> 1300 276<318.259 566.13> 1516 20G<1352 1997>
VStem: 586 439<766.459 910.717 1132.08 1276.58> 2322 432<310 400 573 789>
LayerCount: 2
Fore
SplineSet
452 743 m 0,0,1
 485 743 485 743 510 751.5 c 128,-1,2
 535 760 535 760 552 773.5 c 128,-1,3
 569 787 569 787 577.5 805 c 128,-1,4
 586 823 586 823 586 841 c 0,5,6
 586 856 586 856 580.5 870 c 128,-1,7
 575 884 575 884 564 895 c 128,-1,8
 553 906 553 906 537 913 c 128,-1,9
 521 920 521 920 500 920 c 2,10,-1
 323 920 l 1,11,-1
 323 1123 l 1,12,-1
 500 1123 l 2,13,14
 521 1123 521 1123 537 1130 c 128,-1,15
 553 1137 553 1137 564 1148 c 128,-1,16
 575 1159 575 1159 580.5 1173 c 128,-1,17
 586 1187 586 1187 586 1202 c 0,18,19
 586 1220 586 1220 577.5 1238 c 128,-1,20
 569 1256 569 1256 552 1269.5 c 128,-1,21
 535 1283 535 1283 510 1291.5 c 128,-1,22
 485 1300 485 1300 452 1300 c 0,23,24
 401 1300 401 1300 352.5 1276.5 c 128,-1,25
 304 1253 304 1253 266 1204 c 1,26,-1
 60 1204 l 1,27,-1
 60 1489 l 1,28,29
 113 1512 113 1512 187 1532 c 0,30,31
 248 1549 248 1549 335 1562.5 c 128,-1,32
 422 1576 422 1576 531 1576 c 0,33,34
 657 1576 657 1576 750 1546.5 c 128,-1,35
 843 1517 843 1517 904 1468 c 128,-1,36
 965 1419 965 1419 995 1356 c 128,-1,37
 1025 1293 1025 1293 1025 1227 c 0,38,39
 1025 1164 1025 1164 1005 1124.5 c 128,-1,40
 985 1085 985 1085 961 1062 c 0,41,42
 932 1034 932 1034 898 1021 c 1,43,44
 934 1004 934 1004 961 978 c 0,45,46
 985 955 985 955 1005 915.5 c 128,-1,47
 1025 876 1025 876 1025 816 c 0,48,49
 1025 750 1025 750 995 687.5 c 128,-1,50
 965 625 965 625 904 576.5 c 128,-1,51
 843 528 843 528 750 498.5 c 128,-1,52
 657 469 657 469 531 469 c 0,53,54
 422 469 422 469 335 482 c 128,-1,55
 248 495 248 495 187 511 c 0,56,57
 114 529 114 529 60 554 c 1,58,-1
 60 839 l 1,59,-1
 266 839 l 1,60,61
 304 788 304 788 352.5 765.5 c 128,-1,62
 401 743 401 743 452 743 c 0,0,1
973 0 m 1,63,-1
 1357 1536 l 1,64,-1
 1997 1536 l 1,65,-1
 1613 0 l 1,66,-1
 973 0 l 1,63,-1
1889 400 m 1,67,-1
 1889 573 l 1,68,-1
 2322 1037 l 1,69,-1
 2754 1064 l 1,70,-1
 2754 573 l 1,71,-1
 2970 573 l 1,72,-1
 2970 400 l 1,73,-1
 2754 400 l 1,74,-1
 2754 310 l 1,75,-1
 2841 293 l 1,76,-1
 2841 0 l 1,77,-1
 2235 0 l 1,78,-1
 2235 293 l 1,79,-1
 2322 310 l 1,80,-1
 2322 400 l 1,81,-1
 1889 400 l 1,67,-1
2322 789 m 1,82,-1
 2138 573 l 1,83,-1
 2322 573 l 1,84,-1
 2322 789 l 1,82,-1
EndSplineSet
Validated: 19457
EndChar

StartChar: eight
Encoding: 56 56 203
Width: 1614
Flags: W
HStem: -40 381<648.996 965.004> 642 292<662.074 951.926> 1205 371<666.742 947.258>
VStem: 72 550<368.411 595.347> 122 520<960.214 1179.39> 972 520<960.448 1179.39> 992 550<368.411 595.347>
LayerCount: 2
Fore
SplineSet
1492 1130 m 0,0,1
 1492 1021 1492 1021 1431 936 c 128,-1,2
 1370 851 1370 851 1264 788 c 1,3,4
 1327 758 1327 758 1378.5 720.5 c 128,-1,5
 1430 683 1430 683 1466.5 638.5 c 128,-1,6
 1503 594 1503 594 1522.5 543.5 c 128,-1,7
 1542 493 1542 493 1542 436 c 0,8,9
 1542 313 1542 313 1498 223.5 c 128,-1,10
 1454 134 1454 134 1363.5 75.5 c 128,-1,11
 1273 17 1273 17 1134.5 -11.5 c 128,-1,12
 996 -40 996 -40 807 -40 c 256,13,14
 618 -40 618 -40 479.5 -11.5 c 128,-1,15
 341 17 341 17 250.5 75.5 c 128,-1,16
 160 134 160 134 116 223.5 c 128,-1,17
 72 313 72 313 72 436 c 0,18,19
 72 493 72 493 91.5 543.5 c 128,-1,20
 111 594 111 594 147 638.5 c 128,-1,21
 183 683 183 683 234.5 720.5 c 128,-1,22
 286 758 286 758 349 788 c 1,23,24
 243 851 243 851 182.5 936 c 128,-1,25
 122 1021 122 1021 122 1130 c 0,26,27
 122 1245 122 1245 163 1329 c 128,-1,28
 204 1413 204 1413 288.5 1468 c 128,-1,29
 373 1523 373 1523 502 1549.5 c 128,-1,30
 631 1576 631 1576 807 1576 c 256,31,32
 983 1576 983 1576 1112 1549.5 c 128,-1,33
 1241 1523 1241 1523 1325.5 1468 c 128,-1,34
 1410 1413 1410 1413 1451 1329 c 128,-1,35
 1492 1245 1492 1245 1492 1130 c 0,0,1
807 934 m 256,36,37
 846 934 846 934 877 938.5 c 128,-1,38
 908 943 908 943 929 956.5 c 128,-1,39
 950 970 950 970 961 994.5 c 128,-1,40
 972 1019 972 1019 972 1060 c 0,41,42
 972 1106 972 1106 961.5 1134 c 128,-1,43
 951 1162 951 1162 930 1178 c 128,-1,44
 909 1194 909 1194 878 1199.5 c 128,-1,45
 847 1205 847 1205 807 1205 c 0,46,47
 766 1205 766 1205 735.5 1199.5 c 128,-1,48
 705 1194 705 1194 684 1178 c 128,-1,49
 663 1162 663 1162 652.5 1134 c 128,-1,50
 642 1106 642 1106 642 1060 c 0,51,52
 642 1019 642 1019 653 994.5 c 128,-1,53
 664 970 664 970 685 956.5 c 128,-1,54
 706 943 706 943 737 938.5 c 128,-1,55
 768 934 768 934 807 934 c 256,36,37
807 642 m 256,56,57
 763 642 763 642 728.5 636.5 c 128,-1,58
 694 631 694 631 670.5 613 c 128,-1,59
 647 595 647 595 634.5 562.5 c 128,-1,60
 622 530 622 530 622 476 c 0,61,62
 622 433 622 433 634 406.5 c 128,-1,63
 646 380 646 380 669.5 365.5 c 128,-1,64
 693 351 693 351 727.5 346 c 128,-1,65
 762 341 762 341 807 341 c 256,66,67
 852 341 852 341 886.5 346 c 128,-1,68
 921 351 921 351 944.5 365.5 c 128,-1,69
 968 380 968 380 980 406.5 c 128,-1,70
 992 433 992 433 992 476 c 0,71,72
 992 530 992 530 979.5 562.5 c 128,-1,73
 967 595 967 595 943.5 613 c 128,-1,74
 920 631 920 631 885.5 636.5 c 128,-1,75
 851 642 851 642 807 642 c 256,56,57
EndSplineSet
Validated: 19457
EndChar

StartChar: at
Encoding: 64 64 204
Width: 1872
Flags: W
HStem: -40 241<703.53 1379.23> 32 249<1334.64 1504> 343 190<1317.25 1487.66> 359 198<770 999.977> 1020 185<815.359 1036.95> 1344 232<683.056 1157.77>
VStem: 65 269<531.07 984.884> 483 277<609.419 965.099> 1037 276<573.678 1018.45> 1544 266<595.108 1007.11>
LayerCount: 2
Fore
SplineSet
1810 811 m 0,0,1
 1810 717 1810 717 1787.5 632 c 128,-1,2
 1765 547 1765 547 1714.5 483 c 128,-1,3
 1664 419 1664 419 1584.5 381 c 128,-1,4
 1505 343 1505 343 1391 343 c 0,5,6
 1349 343 1349 343 1303 352 c 128,-1,7
 1257 361 1257 361 1215.5 377 c 128,-1,8
 1174 393 1174 393 1141 414.5 c 128,-1,9
 1108 436 1108 436 1091 462 c 1,10,11
 1019 405 1019 405 945.5 382 c 128,-1,12
 872 359 872 359 803 359 c 0,13,14
 737 359 737 359 678.5 391 c 128,-1,15
 620 423 620 423 576.5 477 c 128,-1,16
 533 531 533 531 508 601 c 128,-1,17
 483 671 483 671 483 746 c 0,18,19
 483 863 483 863 515.5 949 c 128,-1,20
 548 1035 548 1035 606 1092 c 128,-1,21
 664 1149 664 1149 744.5 1177 c 128,-1,22
 825 1205 825 1205 922 1205 c 0,23,24
 964 1205 964 1205 1011.5 1199.5 c 128,-1,25
 1059 1194 1059 1194 1109.5 1182.5 c 128,-1,26
 1160 1171 1160 1171 1211.5 1155 c 128,-1,27
 1263 1139 1263 1139 1313 1118 c 1,28,-1
 1313 599 l 2,29,30
 1313 568 1313 568 1343 550.5 c 128,-1,31
 1373 533 1373 533 1415 533 c 0,32,33
 1436 533 1436 533 1459 548.5 c 128,-1,34
 1482 564 1482 564 1501 597.5 c 128,-1,35
 1520 631 1520 631 1532 684 c 128,-1,36
 1544 737 1544 737 1544 812 c 0,37,38
 1544 922 1544 922 1493.5 1019 c 128,-1,39
 1443 1116 1443 1116 1355.5 1188 c 128,-1,40
 1268 1260 1268 1260 1150 1302 c 128,-1,41
 1032 1344 1032 1344 898 1344 c 0,42,43
 821 1344 821 1344 749 1323 c 128,-1,44
 677 1302 677 1302 614 1263.5 c 128,-1,45
 551 1225 551 1225 499.5 1171.5 c 128,-1,46
 448 1118 448 1118 411 1053 c 128,-1,47
 374 988 374 988 354 913 c 128,-1,48
 334 838 334 838 334 758 c 0,49,50
 334 615 334 615 388.5 510.5 c 128,-1,51
 443 406 443 406 533 337 c 128,-1,52
 623 268 623 268 738 234.5 c 128,-1,53
 853 201 853 201 975 201 c 0,54,55
 1111 201 1111 201 1247 221 c 128,-1,56
 1383 241 1383 241 1504 281 c 1,57,-1
 1504 32 l 1,58,59
 1377 -4 1377 -4 1242.5 -22 c 128,-1,60
 1108 -40 1108 -40 974 -40 c 0,61,62
 858 -40 858 -40 746 -17 c 128,-1,63
 634 6 634 6 533 51.5 c 128,-1,64
 432 97 432 97 346 164.5 c 128,-1,65
 260 232 260 232 197.5 320.5 c 128,-1,66
 135 409 135 409 100 518 c 128,-1,67
 65 627 65 627 65 757 c 0,68,69
 65 870 65 870 95 974.5 c 128,-1,70
 125 1079 125 1079 179 1170 c 128,-1,71
 233 1261 233 1261 309 1336 c 128,-1,72
 385 1411 385 1411 477.5 1464 c 128,-1,73
 570 1517 570 1517 676 1546.5 c 128,-1,74
 782 1576 782 1576 897 1576 c 0,75,76
 1023 1576 1023 1576 1140 1548.5 c 128,-1,77
 1257 1521 1257 1521 1358.5 1471 c 128,-1,78
 1460 1421 1460 1421 1543 1351 c 128,-1,79
 1626 1281 1626 1281 1685.5 1196 c 128,-1,80
 1745 1111 1745 1111 1777.5 1013.5 c 128,-1,81
 1810 916 1810 916 1810 811 c 0,0,1
1037 594 m 1,82,83
 1037 1014 l 1,84,85
 1015 1017 1015 1017 991.5 1018.5 c 128,-1,86
 968 1020 968 1020 948 1020 c 0,87,88
 851 1020 851 1020 805.5 967 c 128,-1,89
 760 914 760 914 760 796 c 0,90,91
 760 745 760 745 768 701.5 c 128,-1,92
 776 658 776 658 794 626 c 128,-1,93
 812 594 812 594 840 575.5 c 128,-1,94
 868 557 868 557 909 557 c 0,95,96
 936 557 936 557 967.5 565.5 c 128,-1,97
 999 574 999 574 1037 594 c 1,82,83
EndSplineSet
Validated: 19457
EndChar

StartChar: plusminus
Encoding: 177 177 205
Width: 1103
Flags: W
HStem: 0 256<165 933> 768 256<40 424 680 1064> 1388 20G<424 680> 1388 20G<424 680>
VStem: 424 256<384 768 1024 1408>
LayerCount: 2
Fore
SplineSet
40 768 m 1,0,-1
 40 1024 l 1,1,-1
 424 1024 l 1,2,-1
 424 1408 l 1,3,-1
 680 1408 l 1,4,-1
 680 1024 l 1,5,-1
 1064 1024 l 1,6,-1
 1064 768 l 1,7,-1
 680 768 l 1,8,-1
 680 384 l 1,9,-1
 424 384 l 1,10,-1
 424 768 l 1,11,-1
 40 768 l 1,0,-1
165 0 m 1,12,-1
 165 256 l 1,13,-1
 933 256 l 1,14,-1
 933 0 l 1,15,-1
 165 0 l 1,12,-1
EndSplineSet
Validated: 19457
EndChar

StartChar: minus
Encoding: 8722 8722 206
Width: 956
Flags: W
HStem: 512 384<94 862>
LayerCount: 2
Fore
SplineSet
94 512 m 1,0,-1
 94 896 l 1,1,-1
 862 896 l 1,2,-1
 862 512 l 1,3,-1
 94 512 l 1,0,-1
EndSplineSet
Validated: 19457
EndChar

StartChar: logicalnot
Encoding: 172 172 207
Width: 897
Flags: W
HStem: 512 384<35 547>
VStem: 547 256<256 512>
LayerCount: 2
Fore
SplineSet
35 512 m 1,0,-1
 35 896 l 1,1,-1
 803 896 l 1,2,-1
 803 256 l 1,3,-1
 547 256 l 1,4,-1
 547 512 l 1,5,-1
 35 512 l 1,0,-1
EndSplineSet
Validated: 19457
EndChar

StartChar: divide
Encoding: 247 247 208
Width: 844
Flags: W
HStem: 0 384<230 614> 512 256<38 806> 896 384<230 614>
VStem: 230 384<0 384 896 1280>
CounterMasks: 1 e0
LayerCount: 2
Fore
SplineSet
230 896 m 1,0,-1
 230 1280 l 1,1,-1
 614 1280 l 1,2,-1
 614 896 l 1,3,-1
 230 896 l 1,0,-1
38 512 m 1,4,-1
 38 768 l 1,5,-1
 806 768 l 1,6,-1
 806 512 l 1,7,-1
 38 512 l 1,4,-1
230 0 m 1,8,-1
 230 384 l 1,9,-1
 614 384 l 1,10,-1
 614 0 l 1,11,-1
 230 0 l 1,8,-1
EndSplineSet
Validated: 19457
EndChar

StartChar: uni0311
Encoding: 785 785 209
Width: 934
Flags: W
HStem: 1535 21G<65 334 600 869> 1687 293<370.514 562.846>
LayerCount: 2
Fore
SplineSet
334 1535 m 1,0,1
 65 1535 l 1,2,3
 65 1647 65 1647 99.5 1730.5 c 128,-1,4
 134 1814 134 1814 190.5 1869.5 c 128,-1,5
 247 1925 247 1925 319 1952.5 c 128,-1,6
 391 1980 391 1980 466 1980 c 0,7,8
 542 1980 542 1980 614.5 1952.5 c 128,-1,9
 687 1925 687 1925 743.5 1869.5 c 128,-1,10
 800 1814 800 1814 834.5 1730.5 c 128,-1,11
 869 1647 869 1647 869 1535 c 1,12,-1
 600 1535 l 1,13,14
 600 1572 600 1572 588.5 1600.5 c 128,-1,15
 577 1629 577 1629 558 1648.5 c 128,-1,16
 539 1668 539 1668 515.5 1677.5 c 128,-1,17
 492 1687 492 1687 467 1687 c 256,18,19
 442 1687 442 1687 418 1677.5 c 128,-1,20
 394 1668 394 1668 375.5 1648.5 c 128,-1,21
 357 1629 357 1629 345.5 1600.5 c 128,-1,22
 334 1572 334 1572 334 1535 c 1,0,1
EndSplineSet
Validated: 19457
EndChar

StartChar: uni030F
Encoding: 783 783 210
Width: 1500
Flags: W
HStem: 1664 640<617 703 1168 1354>
LayerCount: 2
Fore
SplineSet
1007 1664 m 1,0,-1
 703 2304 l 1,1,-1
 1193 2304 l 1,2,-1
 1432 1664 l 1,3,-1
 1007 1664 l 1,0,-1
456 1664 m 1,4,-1
 52 2304 l 1,5,-1
 542 2304 l 1,6,-1
 881 1664 l 1,7,-1
 456 1664 l 1,4,-1
EndSplineSet
Validated: 19457
EndChar

StartChar: quotesingle
Encoding: 39 39 238
Width: 464
Flags: W
HStem: 908 628<124 340>
VStem: 74 316<1268.21 1536>
LayerCount: 2
Fore
SplineSet
390 1536 m 1,0,-1
 390 1413 l 1,1,-1
 340 908 l 1,2,-1
 124 908 l 1,3,-1
 74 1413 l 1,4,-1
 74 1536 l 1,5,-1
 390 1536 l 1,0,-1
EndSplineSet
Validated: 19457
EndChar

StartChar: quotedbl
Encoding: 34 34 239
Width: 940
Flags: W
HStem: 908 628<136 352 589 805>
VStem: 86 316<1268.21 1536> 539 316<1268.21 1536>
LayerCount: 2
Fore
SplineSet
855 1536 m 1,0,-1
 855 1413 l 1,1,-1
 805 908 l 1,2,-1
 589 908 l 1,3,-1
 539 1413 l 1,4,-1
 539 1536 l 1,5,-1
 855 1536 l 1,0,-1
402 1536 m 1,6,-1
 402 1413 l 1,7,-1
 352 908 l 1,8,-1
 136 908 l 1,9,-1
 86 1413 l 1,10,-1
 86 1536 l 1,11,-1
 402 1536 l 1,6,-1
EndSplineSet
Validated: 19457
EndChar

StartChar: endash
Encoding: 8211 8211 240
Width: 699
Flags: W
HStem: 640 256<94 606>
VStem: 94 512<640 896>
LayerCount: 2
Fore
SplineSet
94 896 m 1,0,-1
 606 896 l 1,1,-1
 606 640 l 1,2,-1
 94 640 l 1,3,-1
 94 896 l 1,0,-1
EndSplineSet
Validated: 19457
EndChar

StartChar: emdash
Encoding: 8212 8212 241
Width: 699
Flags: W
HStem: 640 256<0 698>
LayerCount: 2
Fore
SplineSet
0 896 m 1,0,-1
 698 896 l 1,1,-1
 698 640 l 1,2,-1
 0 640 l 1,3,-1
 0 896 l 1,0,-1
EndSplineSet
Validated: 19457
EndChar

StartChar: underscore
Encoding: 95 95 242
Width: 699
Flags: W
HStem: -32 256<0 698>
LayerCount: 2
Fore
SplineSet
0 224 m 1,0,-1
 698 224 l 1,1,-1
 698 -32 l 1,2,-1
 0 -32 l 1,3,-1
 0 224 l 1,0,-1
EndSplineSet
Validated: 19457
EndChar

StartChar: lslash
Encoding: 322 322 245
Width: 1297
Flags: W
HStem: 0 21G<94 1238> 640 256<94 214 815 904> 1393 20G<94 936> 1393 20G<94 936>
LayerCount: 2
Fore
SplineSet
815 991 m 1,0,-1
 815 896 l 1,1,-1
 904 896 l 1,2,-1
 904 640 l 1,3,-1
 815 640 l 1,4,-1
 815 384 l 1,5,6
 857 384 857 384 895 395.5 c 128,-1,7
 933 407 933 407 965.5 425.5 c 128,-1,8
 998 444 998 444 1024.5 466.5 c 128,-1,9
 1051 489 1051 489 1071 512 c 1,10,-1
 1238 512 l 1,11,-1
 1238 0 l 1,12,-1
 94 0 l 1,13,-1
 94 399 l 1,14,-1
 214 422 l 1,15,-1
 214 640 l 1,16,-1
 94 640 l 1,17,-1
 94 896 l 1,18,-1
 214 896 l 1,19,-1
 214 991 l 1,20,-1
 94 1014 l 1,21,-1
 94 1413 l 1,22,-1
 936 1413 l 1,23,-1
 936 1014 l 1,24,-1
 815 991 l 1,0,-1
EndSplineSet
Validated: 19457
EndChar

StartChar: Lslash
Encoding: 321 321 246
Width: 1372
Flags: W
HStem: 0 21G<94 1314> 640 256<94 222 862 1034> 1516 20G<94 990>
LayerCount: 2
Fore
SplineSet
862 1077 m 1,0,-1
 862 896 l 1,1,-1
 1034 896 l 1,2,-1
 1034 640 l 1,3,-1
 862 640 l 1,4,-1
 862 384 l 1,5,6
 910 384 910 384 952 395.5 c 128,-1,7
 994 407 994 407 1030 425 c 128,-1,8
 1066 443 1066 443 1095.5 466 c 128,-1,9
 1125 489 1125 489 1147 512 c 1,10,-1
 1314 512 l 1,11,-1
 1314 0 l 1,12,-1
 94 0 l 1,13,-1
 94 434 l 1,14,-1
 222 459 l 1,15,-1
 222 640 l 1,16,-1
 94 640 l 1,17,-1
 94 896 l 1,18,-1
 222 896 l 1,19,-1
 222 1077 l 1,20,-1
 94 1102 l 1,21,-1
 94 1536 l 1,22,-1
 990 1536 l 1,23,-1
 990 1102 l 1,24,-1
 862 1077 l 1,0,-1
EndSplineSet
Validated: 19457
EndChar

StartChar: Dcroat
Encoding: 272 272 271
Width: 1956
Flags: W
HStem: 0 459<862 1164.26> 656 257<94 222 862 998> 1114 422<862 1165.51>
VStem: 1245 641<536.664 1035.89>
LayerCount: 2
Fore
SplineSet
94 1536 m 1,0,-1
 1259 1536 l 1,1,2
 1404 1505 1404 1505 1520 1446.5 c 128,-1,3
 1636 1388 1636 1388 1717.5 1297 c 128,-1,4
 1799 1206 1799 1206 1842.5 1079.5 c 128,-1,5
 1886 953 1886 953 1886 786 c 0,6,7
 1886 565 1886 565 1812 414.5 c 128,-1,8
 1738 264 1738 264 1603.5 172 c 128,-1,9
 1469 80 1469 80 1280 40 c 128,-1,10
 1091 0 1091 0 862 0 c 2,11,-1
 94 0 l 1,12,-1
 94 434 l 1,13,-1
 222 459 l 1,14,-1
 222 656 l 1,15,-1
 94 656 l 1,16,-1
 94 913 l 1,17,-1
 222 913 l 1,18,-1
 222 1114 l 1,19,-1
 94 1139 l 1,20,-1
 94 1536 l 1,0,-1
862 459 m 1,21,-1
 960 459 l 2,22,23
 1067 459 1067 459 1125 482.5 c 128,-1,24
 1183 506 1183 506 1209.5 549 c 128,-1,25
 1236 592 1236 592 1240.5 652 c 128,-1,26
 1245 712 1245 712 1245 786 c 256,27,28
 1245 860 1245 860 1240.5 920.5 c 128,-1,29
 1236 981 1236 981 1209.5 1024 c 128,-1,30
 1183 1067 1183 1067 1125 1090.5 c 128,-1,31
 1067 1114 1067 1114 960 1114 c 2,32,-1
 862 1114 l 1,33,-1
 862 913 l 1,34,-1
 998 913 l 1,35,-1
 998 656 l 1,36,-1
 862 656 l 1,37,-1
 862 459 l 1,21,-1
EndSplineSet
Validated: 19457
EndChar

StartChar: dcroat
Encoding: 273 273 287
Width: 1848
Flags: W
HStem: 0 422<816 1103.36> 598 256<93 214 816 944> 1025 383<816 1105.4>
VStem: 1176 602<491.547 955.466>
LayerCount: 2
Fore
SplineSet
94 1408 m 1,0,-1
 1189 1408 l 1,1,2
 1325 1379 1325 1379 1434 1326 c 128,-1,3
 1543 1273 1543 1273 1619.5 1190.5 c 128,-1,4
 1696 1108 1696 1108 1737 992.5 c 128,-1,5
 1778 877 1778 877 1778 723 c 0,6,7
 1778 588 1778 588 1746.5 481.5 c 128,-1,8
 1715 375 1715 375 1656.5 294.5 c 128,-1,9
 1598 214 1598 214 1513 158 c 128,-1,10
 1428 102 1428 102 1321.5 67 c 128,-1,11
 1215 32 1215 32 1087.5 16 c 128,-1,12
 960 0 960 0 816 0 c 2,13,-1
 94 0 l 1,14,-1
 94 399 l 1,15,-1
 214 422 l 1,16,-1
 214 598 l 1,17,-1
 93 598 l 1,18,-1
 93 854 l 1,19,-1
 214 854 l 1,20,-1
 214 1025 l 1,21,-1
 94 1048 l 1,22,-1
 94 1408 l 1,0,-1
816 422 m 1,23,-1
 908 422 l 2,24,25
 975 422 975 422 1021 432 c 128,-1,26
 1067 442 1067 442 1096.5 460 c 128,-1,27
 1126 478 1126 478 1142.5 505 c 128,-1,28
 1159 532 1159 532 1166.5 565 c 128,-1,29
 1174 598 1174 598 1175 638 c 128,-1,30
 1176 678 1176 678 1176 723 c 256,31,32
 1176 768 1176 768 1175 808 c 128,-1,33
 1174 848 1174 848 1166.5 881.5 c 128,-1,34
 1159 915 1159 915 1142.5 941.5 c 128,-1,35
 1126 968 1126 968 1096.5 986.5 c 128,-1,36
 1067 1005 1067 1005 1021 1015 c 128,-1,37
 975 1025 975 1025 908 1025 c 2,38,-1
 816 1025 l 1,39,-1
 816 854 l 1,40,-1
 944 854 l 1,41,-1
 944 598 l 1,42,-1
 816 598 l 1,43,-1
 816 422 l 1,23,-1
EndSplineSet
Validated: 19457
EndChar

StartChar: guilsinglleft
Encoding: 8249 8249 296
Width: 856
Flags: W
HStem: -17 21G<724.802 764> 1401 20G<724.802 764>
LayerCount: 2
Fore
SplineSet
764 789 m 1,0,-1
 430 627 l 1,1,-1
 764 464 l 1,2,-1
 764 -17 l 1,3,-1
 31 357 l 1,4,-1
 31 1047 l 1,5,-1
 764 1421 l 1,6,-1
 764 789 l 1,0,-1
EndSplineSet
Validated: 19457
EndChar

StartChar: guilsinglright
Encoding: 8250 8250 297
Width: 856
Flags: W
HStem: -17 21G<93 132.198> 1401 20G<93 132.198>
LayerCount: 2
Fore
SplineSet
427 627 m 1,0,-1
 93 789 l 1,1,-1
 93 1421 l 1,2,-1
 826 1047 l 1,3,-1
 826 357 l 1,4,-1
 93 -17 l 1,5,-1
 93 464 l 1,6,-1
 427 627 l 1,0,-1
EndSplineSet
Validated: 19457
EndChar

StartChar: less
Encoding: 60 60 300
Width: 1154
Flags: W
HStem: -17 21G<979.898 1033> 1401 20G<979.898 1033>
LayerCount: 2
Fore
SplineSet
1033 789 m 1,0,-1
 489 627 l 1,1,-1
 1033 464 l 1,2,-1
 1033 -17 l 1,3,-1
 40 357 l 1,4,-1
 40 1047 l 1,5,-1
 1033 1421 l 1,6,-1
 1033 789 l 1,0,-1
EndSplineSet
Validated: 19457
EndChar

StartChar: greater
Encoding: 62 62 301
Width: 1155
Flags: W
HStem: -17 21G<122 175.102> 1401 20G<122 175.102>
LayerCount: 2
Fore
SplineSet
666 627 m 1,0,-1
 122 789 l 1,1,-1
 122 1421 l 1,2,-1
 1115 1047 l 1,3,-1
 1115 357 l 1,4,-1
 122 -17 l 1,5,-1
 122 464 l 1,6,-1
 666 627 l 1,0,-1
EndSplineSet
Validated: 19457
EndChar

StartChar: equal
Encoding: 61 61 302
Width: 941
Flags: W
HStem: 172 256<122 820> 640 256<122 820>
VStem: 122 698<172 428 640 896>
LayerCount: 2
Fore
SplineSet
122 896 m 1,0,-1
 820 896 l 1,1,-1
 820 640 l 1,2,-1
 122 640 l 1,3,-1
 122 896 l 1,0,-1
122 428 m 1,4,-1
 820 428 l 1,5,-1
 820 172 l 1,6,-1
 122 172 l 1,7,-1
 122 428 l 1,4,-1
EndSplineSet
Validated: 19457
EndChar

StartChar: asciitilde
Encoding: 126 126 303
Width: 1053
Flags: W
HStem: 661 377<568.871 871.28> 757 396<172.684 471.466>
LayerCount: 2
Fore
SplineSet
975 1159 m 1,0,1
 915 742 l 1,2,3
 883 697 883 697 841 679 c 128,-1,4
 799 661 799 661 754 661 c 0,5,6
 708 661 708 661 659 676 c 128,-1,7
 610 691 610 691 560 709 c 128,-1,8
 510 727 510 727 460 742 c 128,-1,9
 410 757 410 757 362 757 c 0,10,11
 293 757 293 757 223 734 c 128,-1,12
 153 711 153 711 79 652 c 1,13,-1
 141 1078 l 1,14,15
 178 1120 178 1120 220.5 1136.5 c 128,-1,16
 263 1153 263 1153 311 1153 c 0,17,18
 356 1153 356 1153 404 1135 c 128,-1,19
 452 1117 452 1117 501 1095.5 c 128,-1,20
 550 1074 550 1074 599 1056 c 128,-1,21
 648 1038 648 1038 696 1038 c 0,22,23
 764 1038 764 1038 832.5 1064.5 c 128,-1,24
 901 1091 901 1091 975 1159 c 1,0,1
EndSplineSet
Validated: 19457
EndChar

StartChar: asterisk
Encoding: 42 42 304
Width: 1274
Flags: W
HStem: 1403 20G<240.138 282.123 979.474 1020.81> 1517 20G<484.512 800>
VStem: 474 315<350 512.866 1352.62 1536>
LayerCount: 2
Fore
SplineSet
792 472 m 1,0,-1
 789 349 l 1,1,-1
 474 350 l 1,2,-1
 475 474 l 1,3,-1
 494 652 l 1,4,-1
 366 528 l 1,5,-1
 269 452 l 1,6,-1
 73 700 l 1,7,-1
 170 776 l 1,8,-1
 425 940 l 1,9,-1
 165 1096 l 1,10,-1
 67 1170 l 1,11,-1
 255 1423 l 1,12,-1
 354 1350 l 1,13,-1
 500 1217 l 1,14,-1
 482 1414 l 1,15,-1
 485 1537 l 1,16,-1
 800 1536 l 1,17,-1
 799 1412 l 1,18,-1
 779 1234 l 1,19,-1
 908 1358 l 1,20,-1
 1005 1434 l 1,21,-1
 1201 1186 l 1,22,-1
 1104 1110 l 1,23,-1
 847 947 l 1,24,-1
 1109 790 l 1,25,-1
 1207 716 l 1,26,-1
 1019 463 l 1,27,-1
 920 536 l 1,28,-1
 773 668 l 1,29,-1
 792 472 l 1,0,-1
EndSplineSet
Validated: 19457
EndChar

StartChar: ampersand
Encoding: 38 38 305
Width: 3011
Flags: W
HStem: -40 401<841.984 1365.12 2220.94 2530.03> 22 479<2598.09 2896.69> 699 296<783.066 1531 2172 2555> 1252 352<794.218 1024.39>
VStem: 108 640<442.559 665.317> 128 620<1019.86 1206.58> 1531 640<441.347 699 996 1535>
LayerCount: 2
Fore
SplineSet
2366 361 m 0,0,1
 2441 361 2441 361 2511 395 c 128,-1,2
 2581 429 2581 429 2638 501 c 1,3,-1
 2939 501 l 1,4,-1
 2939 84 l 1,5,6
 2857 49 2857 49 2754 22 c 0,7,8
 2663 -1 2663 -1 2537.5 -20.5 c 128,-1,9
 2412 -40 2412 -40 2251 -40 c 0,10,11
 2056 -40 2056 -40 1916.5 7 c 128,-1,12
 1777 54 1777 54 1688 132 c 1,13,14
 1595 76 1595 76 1494.5 42 c 128,-1,15
 1394 8 1394 8 1292 -10 c 128,-1,16
 1190 -28 1190 -28 1090 -34 c 128,-1,17
 990 -40 990 -40 898 -40 c 0,18,19
 695 -40 695 -40 546.5 4.5 c 128,-1,20
 398 49 398 49 300.5 123 c 128,-1,21
 203 197 203 197 155.5 291.5 c 128,-1,22
 108 386 108 386 108 487 c 0,23,24
 108 565 108 565 121 622.5 c 128,-1,25
 134 680 134 680 159.5 722.5 c 128,-1,26
 185 765 185 765 223.5 794.5 c 128,-1,27
 262 824 262 824 313 847 c 1,28,29
 260 867 260 867 221 907 c 0,30,31
 204 924 204 924 187 947 c 128,-1,32
 170 970 170 970 157 999 c 128,-1,33
 144 1028 144 1028 136 1065 c 128,-1,34
 128 1102 128 1102 128 1147 c 0,35,36
 128 1234 128 1234 170.5 1316.5 c 128,-1,37
 213 1399 213 1399 299.5 1463 c 128,-1,38
 386 1527 386 1527 517.5 1565.5 c 128,-1,39
 649 1604 649 1604 828 1604 c 0,40,41
 973 1604 973 1604 1111.5 1570 c 128,-1,42
 1250 1536 1250 1536 1376 1478 c 1,43,-1
 1376 1113 l 1,44,-1
 1075 1113 l 1,45,46
 1063 1166 1063 1166 1034 1198 c 0,47,48
 1004 1229 1004 1229 968 1242 c 0,49,50
 940 1252 940 1252 913 1252 c 0,51,52
 903 1252 903 1252 893 1250 c 0,53,54
 854 1246 854 1246 822 1228 c 128,-1,55
 790 1210 790 1210 769 1179.5 c 128,-1,56
 748 1149 748 1149 748 1110 c 0,57,58
 748 1089 748 1089 756 1068 c 128,-1,59
 764 1047 764 1047 780 1031 c 128,-1,60
 796 1015 796 1015 819.5 1005 c 128,-1,61
 843 995 843 995 873 995 c 2,62,-1
 1531 995 l 1,63,-1
 1531 1535 l 1,64,-1
 2171 1604 l 1,65,-1
 2172 996 l 1,66,-1
 2555 996 l 1,67,-1
 2555 700 l 1,68,-1
 2172 700 l 1,69,70
 2171 660 2171 660 2171 623 c 2,71,-1
 2171 504 l 2,72,73
 2171 477 2171 477 2183.5 451.5 c 128,-1,74
 2196 426 2196 426 2221 405.5 c 128,-1,75
 2246 385 2246 385 2282 373 c 128,-1,76
 2318 361 2318 361 2366 361 c 0,0,1
1043 361 m 0,77,78
 1130 361 1130 361 1205 370.5 c 128,-1,79
 1280 380 1280 380 1341 395 c 128,-1,80
 1402 410 1402 410 1450 427.5 c 128,-1,81
 1498 445 1498 445 1531 460 c 1,82,-1
 1531 467 l 1,83,-1
 1531 699 l 1,84,-1
 873 699 l 2,85,86
 843 699 843 699 819.5 685.5 c 128,-1,87
 796 672 796 672 780 650.5 c 128,-1,88
 764 629 764 629 756 601 c 128,-1,89
 748 573 748 573 748 544 c 0,90,91
 748 509 748 509 766.5 476.5 c 128,-1,92
 785 444 785 444 821.5 418 c 128,-1,93
 858 392 858 392 913.5 376.5 c 128,-1,94
 969 361 969 361 1043 361 c 0,77,78
EndSplineSet
Validated: 19457
EndChar

StartChar: guillemotleft
Encoding: 171 171 306
Width: 1781
Flags: W
HStem: -17 21G<754.802 794 1648.8 1688> 1401 20G<754.802 794 1648.8 1688>
LayerCount: 2
Fore
SplineSet
1688 789 m 1,0,-1
 1354 627 l 1,1,-1
 1688 464 l 1,2,-1
 1688 -17 l 1,3,-1
 955 357 l 1,4,-1
 955 1047 l 1,5,-1
 1688 1421 l 1,6,-1
 1688 789 l 1,0,-1
794 789 m 1,7,-1
 460 627 l 1,8,-1
 794 464 l 1,9,-1
 794 -17 l 1,10,-1
 61 357 l 1,11,-1
 61 1047 l 1,12,-1
 794 1421 l 1,13,-1
 794 789 l 1,7,-1
EndSplineSet
Validated: 19457
EndChar

StartChar: guillemotright
Encoding: 187 187 307
Width: 1780
Flags: W
HStem: -17 21G<93 132.198 987 1026.2> 1401 20G<93 132.198 987 1026.2>
LayerCount: 2
Fore
SplineSet
1321 627 m 1,0,-1
 987 789 l 1,1,-1
 987 1421 l 1,2,-1
 1720 1047 l 1,3,-1
 1720 357 l 1,4,-1
 987 -17 l 1,5,-1
 987 464 l 1,6,-1
 1321 627 l 1,0,-1
427 627 m 1,7,-1
 93 789 l 1,8,-1
 93 1421 l 1,9,-1
 826 1047 l 1,10,-1
 826 357 l 1,11,-1
 93 -17 l 1,12,-1
 93 464 l 1,13,-1
 427 627 l 1,7,-1
EndSplineSet
Validated: 19457
EndChar

StartChar: florin
Encoding: 402 402 309
Width: 1480
Flags: W
HStem: -128 342<381.254 566.5> 808 187<239 451 1039 1268> 1284 321<949.5 1116.55>
VStem: 49 330<214.842 359.796> 451 588<214.861 808 995 1282.51> 1122 310<1131.25 1283.04>
LayerCount: 2
Fore
SplineSet
451 408 m 2,0,1
 451 808 l 1,2,-1
 219 808 l 1,3,-1
 239 995 l 1,4,-1
 451 995 l 1,5,6
 453 1080 453 1080 464 1158 c 128,-1,7
 475 1236 475 1236 499.5 1304 c 128,-1,8
 524 1372 524 1372 565 1427.5 c 128,-1,9
 606 1483 606 1483 666.5 1522.5 c 128,-1,10
 727 1562 727 1562 810.5 1583.5 c 128,-1,11
 894 1605 894 1605 1005 1605 c 0,12,13
 1092 1605 1092 1605 1170 1583.5 c 128,-1,14
 1248 1562 1248 1562 1306 1511 c 128,-1,15
 1364 1460 1364 1460 1398 1375 c 128,-1,16
 1432 1290 1432 1290 1432 1164 c 0,17,18
 1432 1156 1432 1156 1432 1147.5 c 128,-1,19
 1432 1139 1432 1139 1431 1131 c 1,20,-1
 1114 1131 l 1,21,22
 1117 1139 1117 1139 1119.5 1156.5 c 128,-1,23
 1122 1174 1122 1174 1122 1194 c 0,24,25
 1122 1210 1122 1210 1120 1226 c 128,-1,26
 1118 1242 1118 1242 1113 1255 c 128,-1,27
 1108 1268 1108 1268 1100 1276 c 128,-1,28
 1092 1284 1092 1284 1080 1284 c 0,29,30
 1065 1284 1065 1284 1052 1254.5 c 128,-1,31
 1039 1225 1039 1225 1039 1150 c 2,32,-1
 1039 995 l 1,33,-1
 1288 995 l 1,34,-1
 1268 808 l 1,35,-1
 1039 808 l 1,36,-1
 1039 412 l 2,37,38
 1039 301 1039 301 1004 202.5 c 128,-1,39
 969 104 969 104 901 30.5 c 128,-1,40
 833 -43 833 -43 732.5 -85.5 c 128,-1,41
 632 -128 632 -128 501 -128 c 0,42,43
 414 -128 414 -128 332.5 -104.5 c 128,-1,44
 251 -81 251 -81 188 -35.5 c 128,-1,45
 125 10 125 10 87 76.5 c 128,-1,46
 49 143 49 143 49 229 c 0,47,48
 49 290 49 290 70 361 c 1,49,-1
 384 361 l 1,50,51
 383 355 383 355 381 335 c 128,-1,52
 379 315 379 315 379 292 c 0,53,54
 379 278 379 278 380.5 264 c 128,-1,55
 382 250 382 250 385.5 239 c 128,-1,56
 389 228 389 228 395.5 221 c 128,-1,57
 402 214 402 214 412 214 c 0,58,59
 419 214 419 214 426 223.5 c 128,-1,60
 433 233 433 233 438.5 255.5 c 128,-1,61
 444 278 444 278 447.5 315 c 128,-1,62
 451 352 451 352 451 408 c 2,0,1
EndSplineSet
Validated: 19457
EndChar

StartChar: macron
Encoding: 175 175 310
Width: 699
Flags: W
HStem: 1536 216<94 606>
VStem: 94 512<1536 1752>
LayerCount: 2
Fore
SplineSet
94 1752 m 1,0,-1
 606 1752 l 1,1,-1
 606 1536 l 1,2,-1
 94 1536 l 1,3,-1
 94 1752 l 1,0,-1
EndSplineSet
Validated: 19457
EndChar

StartChar: integral
Encoding: 8747 8747 316
Width: 1473
Flags: W
HStem: -128 342<377.254 562.5> 1284 321<943.5 1112.55>
VStem: 45 330<214.842 359.796> 447 588<214.861 1283.99> 1118 310<1131.25 1283.04>
LayerCount: 2
Fore
SplineSet
447 408 m 2,0,1
 447 958 l 2,2,3
 447 1047 447 1047 456 1129.5 c 128,-1,4
 465 1212 465 1212 488.5 1284 c 128,-1,5
 512 1356 512 1356 552 1415 c 128,-1,6
 592 1474 592 1474 653.5 1516.5 c 128,-1,7
 715 1559 715 1559 800.5 1582 c 128,-1,8
 886 1605 886 1605 1001 1605 c 0,9,10
 1088 1605 1088 1605 1166 1583.5 c 128,-1,11
 1244 1562 1244 1562 1302 1511 c 128,-1,12
 1360 1460 1360 1460 1394 1375 c 128,-1,13
 1428 1290 1428 1290 1428 1164 c 0,14,15
 1428 1156 1428 1156 1428 1147.5 c 128,-1,16
 1428 1139 1428 1139 1427 1131 c 1,17,-1
 1110 1131 l 1,18,19
 1113 1139 1113 1139 1115.5 1156.5 c 128,-1,20
 1118 1174 1118 1174 1118 1194 c 0,21,22
 1118 1210 1118 1210 1116 1226 c 128,-1,23
 1114 1242 1114 1242 1109 1255 c 128,-1,24
 1104 1268 1104 1268 1096 1276 c 128,-1,25
 1088 1284 1088 1284 1076 1284 c 0,26,27
 1061 1284 1061 1284 1048 1254.5 c 128,-1,28
 1035 1225 1035 1225 1035 1150 c 2,29,-1
 1035 412 l 2,30,31
 1035 301 1035 301 1000 202.5 c 128,-1,32
 965 104 965 104 897 30.5 c 128,-1,33
 829 -43 829 -43 728.5 -85.5 c 128,-1,34
 628 -128 628 -128 497 -128 c 0,35,36
 410 -128 410 -128 328.5 -104.5 c 128,-1,37
 247 -81 247 -81 184 -35.5 c 128,-1,38
 121 10 121 10 83 76.5 c 128,-1,39
 45 143 45 143 45 229 c 0,40,41
 45 290 45 290 66 361 c 1,42,-1
 380 361 l 1,43,44
 379 355 379 355 377 335 c 128,-1,45
 375 315 375 315 375 292 c 0,46,47
 375 278 375 278 376.5 264 c 128,-1,48
 378 250 378 250 381.5 239 c 128,-1,49
 385 228 385 228 391.5 221 c 128,-1,50
 398 214 398 214 408 214 c 0,51,52
 415 214 415 214 422 223.5 c 128,-1,53
 429 233 429 233 434.5 255.5 c 128,-1,54
 440 278 440 278 443.5 315 c 128,-1,55
 447 352 447 352 447 408 c 2,0,1
EndSplineSet
Validated: 19457
EndChar

StartChar: Delta
Encoding: 916 916 318
AltUni2: 002206.ffffffff.0
Width: 1725
Flags: W
HStem: 0 216<727 998>
LayerCount: 2
Fore
SplineSet
1230 1171 m 1,0,-1
 1530 0 l 1,1,-1
 198 0 l 1,2,-1
 484 1171 l 1,3,-1
 1230 1171 l 1,0,-1
862 869 m 1,4,-1
 727 216 l 1,5,-1
 998 216 l 1,6,-1
 862 869 l 1,4,-1
EndSplineSet
Validated: 19457
EndChar

StartChar: lozenge
Encoding: 9674 9674 319
Width: 1725
Flags: W
HStem: 1 21G<476.591 1237.77> 1516 20G<476.503 1237.86>
LayerCount: 2
Fore
SplineSet
198 773 m 1,0,-1
 484 1536 l 1,1,-1
 1230 1536 l 1,2,-1
 1530 773 l 1,3,-1
 1230 1 l 1,4,-1
 484 1 l 1,5,-1
 198 773 l 1,0,-1
727 773 m 1,6,-1
 862 303 l 1,7,-1
 998 773 l 1,8,-1
 862 1234 l 1,9,-1
 727 773 l 1,6,-1
EndSplineSet
Validated: 19457
EndChar
